<svg width="64" height="64" viewBox="0 0 64 64" fill="none" xmlns="http://www.w3.org/2000/svg">
<path d="M8.03125 24.8809C8.03125 23.7358 13.3093 20.2687 15.9483 18.6783C16.7245 18.0421 18.9289 16.4835 21.5368 15.3384C24.7968 13.907 24.7968 16.2927 25.2625 16.7698C25.6351 17.1515 28.8329 18.2012 30.3853 18.6783C29.4539 19.7916 27.3116 22.3999 26.1939 23.9267C24.7968 25.8351 25.2625 28.2208 27.5911 28.6979C29.4539 29.0796 34.5767 26.3123 36.9052 24.8809L44.8223 32.992C45.288 33.4691 46.6852 38.7175 46.6852 40.626C46.6852 42.1528 43.8909 42.5345 42.4938 42.5345C42.3385 43.4888 41.7486 45.5881 40.6309 46.3515C39.5132 47.1149 37.6814 46.6696 36.9052 46.3515C36.9052 47.1467 36.4395 48.928 34.5767 49.6914C32.2481 50.6456 33.1796 47.3057 31.7824 45.3973C30.3853 43.4888 28.9882 37.2861 28.5225 36.3319C28.0568 35.3776 24.3311 28.6979 21.5368 28.6979C19.3014 28.6979 16.8797 30.2883 15.9483 31.0835C15.9483 30.4474 15.2032 29.0796 12.2226 28.6979C8.49696 28.2208 8.03125 26.3123 8.03125 24.8809Z" fill="#FFD000"/>
<path d="M42.1641 16.0144C39.861 16.3351 35.1558 19.1894 32.7869 20.3439C29.8258 21.7871 23.9035 26.5977 24.8906 29.003C25.8776 31.4083 32.7869 29.003 35.7483 27.5598C36.7951 27.0497 38.0893 26.2428 39.2029 25.4963M39.2029 25.4963C40.4654 24.6502 41.4957 23.8817 41.6705 23.7113M39.2029 25.4963C41.8351 28.5895 47.198 35.1605 47.5928 36.6999C48.0863 38.6242 49.0734 43.4348 46.1122 43.9158C43.1511 44.3969 40.19 40.5484 39.2029 38.6242M43.1511 42.9537C43.6446 44.878 44.0394 48.8226 41.6705 49.2075C38.7094 49.6886 36.2418 46.257 35.7483 45.2948C35.3535 44.5252 34.0813 42.4829 33.5877 41.6811M37.7224 48.2454C37.7224 49.5282 37.3275 52.1901 35.7483 52.5749C34.169 52.9598 31.5137 50.8389 30.5267 49.7164M22.4916 36.7131C23.4786 35.2699 24.9599 30.4593 19.0373 31.4215C16.7342 32.5439 12.3895 35.4962 11.141 36.7131C9.16652 38.6376 8.17986 42.4858 12.128 42.9669C13.0586 43.0803 14.0713 42.873 15.0888 42.471M22.4916 36.7131C21.7372 37.8162 18.3883 41.1674 15.0888 42.471M22.4916 36.7131C22.8206 36.5528 23.8734 36.3284 25.4527 36.7131C26.7634 37.0324 26.5512 38.6244 25.8271 40.0808M15.0888 42.471C14.7598 43.4381 14.4966 45.5648 16.0758 46.3345C16.782 46.6787 17.867 46.4073 19.0373 45.8506M19.0373 45.8506C21.1386 44.8511 23.9399 43.3996 24.8908 42.4727C25.3883 41.9877 25.4607 40.8178 25.8271 40.0808M19.0373 45.8506C18.5439 46.9741 18.3463 48.9277 19.5305 49.3125C20.1149 49.5025 20.9758 49.7818 22.4916 49.3125M25.8271 40.0808C27.1886 40.0808 29.8944 40.0808 28.4138 44.4103M28.4138 44.4103C27.5179 47.0303 24.8147 48.5933 22.4916 49.3125M28.4138 44.4103C31.0006 44.4103 31.7171 45.4113 31.7171 47.3356C31.7171 49.2598 27.3582 53.056 24.8906 52.5749C22.9165 52.1901 22.3271 50.0838 22.4916 49.3125M47.5928 36.2189C48.4153 35.7378 50.2578 34.4871 51.0474 33.3325C51.8371 32.178 52.0322 31.7308 52.0322 31.4101M26.8649 18.9008C28.181 18.5801 31.1092 18.4198 32.2936 20.344M12.5533 28.5219C12.0597 29.8047 11.3688 32.8515 12.5533 34.7757M45.6165 11.2056C44.1359 11.2056 42.5602 12.2621 42.1653 14.5712C41.6718 17.4575 49.1165 28.5623 50.5551 29.9651C53.515 32.8515 56.4739 32.3722 57.9545 30.929C59.435 29.4858 58.448 25.1563 55.9804 20.8268C53.5128 16.4972 49.5633 11.2056 45.6165 11.2056ZM21.9249 13.2778C17.6477 15.8434 10.5739 20.0126 6.62555 22.4178C2.44037 24.9672 4.68302 30.6615 8.10798 30.1147C12.0569 29.4842 20.4464 23.8609 23.4075 21.9367C26.3686 20.0124 28.8362 17.1261 27.8492 14.7208C26.8622 12.3155 23.9009 12.0925 21.9249 13.2778Z" stroke="#1B1B20" stroke-width="2.5" stroke-linecap="round"/>
</svg>
