<svg width="149" height="105" viewBox="0 0 149 105" fill="none" xmlns="http://www.w3.org/2000/svg">
<path d="M3.67825 57.0739C3.11302 70.2297 3.23319 83.4026 4.03816 96.5335C4.06594 96.9857 3.31049 103.914 5.77552 103.735C8.18862 103.559 10.6023 103.383 13.016 103.207C14.8615 103.073 17.2021 103.443 18.2583 100.805C19.2336 98.3677 18.6393 94.3602 18.6122 91.6828C18.5741 87.8509 18.5355 84.019 18.4974 80.187C18.4612 76.557 18.425 72.9263 18.3887 69.2962C18.3555 65.9982 18.6043 62.3817 18.1931 59.1285C17.8132 56.1191 16.3615 54.4342 14.2437 54.1569C11.5438 53.8036 8.79733 53.8079 6.08833 53.6479C4.7296 53.5662 3.75494 55.2859 3.67825 57.0739Z" fill="white"/>
<path d="M46.3051 33.7941C46.3232 34.1232 46.3431 34.4517 46.3612 34.7808C45.5152 55.3702 44.3002 102.914 46.854 102.863L53.7249 102.726C55.5674 102.69 57.9557 103.232 59.623 101.838C60.9938 100.692 61.4377 98.5053 61.5681 96.4045C61.7686 93.1819 61.7692 89.908 61.8435 86.6754C62.1436 73.6284 62.2167 60.5706 62.0597 47.5179C62.0198 44.2028 61.9654 40.8885 61.8966 37.5748C61.8459 35.1349 61.9648 32.3537 61.0669 30.1612C60.2933 28.2722 58.9599 27.3509 57.5318 26.8212C55.4532 26.0506 53.2684 25.4513 51.1506 24.9522C46.9947 23.9718 46.046 29.0379 46.3051 33.7941Z" fill="#C9C9CD"/>
<path d="M45.8067 98.8443C45.3719 92.8049 45.7216 86.5608 45.7143 80.5072C45.7005 69.0974 45.7011 57.6876 45.6902 46.2779C45.6854 41.0639 45.5996 35.8449 45.6244 30.6317C45.6304 29.3171 45.5223 27.5647 45.8925 26.3007C46.2633 25.0352 46.4102 24.0457 47.3203 23.5815C48.8028 22.825 51.8141 23.2647 53.3938 23.2491C54.4742 23.2384 57.3691 24.0012 58.3203 24.7605C58.8203 25.35 58.8432 26.5488 58.938 27.296C59.1862 29.2596 59.1476 31.2779 59.2061 33.2564C59.4519 41.6042 59.6174 49.9555 59.7001 58.3076C59.7919 67.5881 59.7835 76.87 59.6742 86.1498C59.6415 88.9083 60.496 100.048 58.3203 101.154C56.8347 101.909 52.4542 101.454 51.0653 101.154C50.1945 100.966 46.0809 100.23 45.7143 99.0382C44.9257 96.4774 42.4522 96.821 43.2493 99.4102C44.1261 102.259 46.0797 102.996 48.413 103.667C51.6082 104.584 56.4712 105.864 59.5824 104.173C61.9949 102.862 62.0462 100.019 62.1181 97.2852C62.2642 91.7207 62.3107 86.1484 62.3518 80.5818C62.4273 70.3728 62.382 60.1631 62.2141 49.9555C62.1301 44.8517 62.0154 39.7494 61.8705 34.6477C61.7696 31.0995 62.0329 26.9519 60.8813 23.5643C59.4157 19.2503 54.7822 20.0231 51.4856 20.2314C47.2554 20.4987 43.8381 20.9964 43.1907 26.6447C42.4624 32.9984 43.0621 39.8688 43.0681 46.2779C43.0748 53.4036 43.0772 60.5292 43.0814 67.6549C43.0874 77.9435 42.4455 88.5812 43.1847 98.8443C43.3785 101.559 46.0036 101.584 45.8067 98.8443Z" fill="#131317"/>
<path d="M2.80491 99.8008C2.36831 95.3119 2.71614 90.543 2.7095 86.0378C2.69742 78.1315 2.69984 70.2245 2.68232 62.3183C2.6781 60.3241 2.86045 52.8988 4.20891 51.8097C4.94503 51.2146 6.91851 51.435 7.79172 51.3874C9.19392 51.3106 10.6004 51.2864 12.0038 51.322C12.5491 51.3362 14.787 51.6429 15.2272 52.0666C16.2037 53.0057 16.246 58.3655 16.2997 59.6544C16.5425 65.5032 16.6898 71.3585 16.7406 77.2144C16.7992 84.006 16.9411 91.7231 16.7406 98.5111C16.685 100.404 15.5232 101.125 13.874 101.311C12.5678 101.458 11.1614 101.276 9.85578 101.165C8.74524 101.07 3.41999 101.158 2.81188 99.88C1.67055 97.4855 -0.714516 98.4791 0.428627 100.878C1.03432 102.148 2.03011 102.767 3.19379 103.167C6.16789 104.19 9.64985 104.359 12.7242 104.396C14.4139 104.417 16.6017 104.525 17.9465 103.059C19.4876 101.38 19.1314 98.3853 19.1911 96.1807C19.4049 88.2218 19.4411 80.2565 19.2986 72.2955C19.2316 68.5482 19.1253 64.8023 18.9798 61.0578C18.8669 58.1579 19.0692 54.867 18.2889 52.0666C17.2563 48.3591 14.8807 48.3079 12.0044 48.2347C9.14984 48.1622 5.49396 47.8323 2.76503 49.0359C-0.483834 50.4684 0.00953503 55.2843 0.049391 58.5852C0.111591 63.765 0.0699228 68.9498 0.07415 74.1304C0.078981 79.8904 0.0801888 85.6496 0.0970974 91.4096C0.105552 94.1638 -0.0852737 97.058 0.181641 99.8008C0.444328 102.497 3.07062 102.528 2.80491 99.8008Z" fill="#131317"/>
<path d="M68.5069 57.2745C67.9416 70.4303 68.0618 83.6032 68.8668 96.7341C68.8946 97.1863 68.1391 104.115 70.6041 103.935C73.0172 103.76 75.4309 103.584 77.8446 103.408C79.6901 103.273 82.0307 103.644 83.0869 101.005C84.0622 98.5683 83.468 94.5608 83.4408 91.8834C83.4027 88.0515 83.3641 84.2196 83.326 80.3876C83.2898 76.7576 83.2536 73.1269 83.2173 69.4969C83.1841 66.1989 83.4329 62.5823 83.0217 59.3291C82.6419 56.3197 81.1901 54.6348 79.0723 54.3576C76.3724 54.0042 73.6259 54.0085 70.9169 53.8485C69.5582 53.7668 68.5836 55.4865 68.5069 57.2745Z" fill="white"/>
<path d="M67.6335 100.002C67.1969 95.5129 67.5448 90.7439 67.5381 86.2387C67.526 78.3325 67.5285 70.4255 67.5109 62.5192C67.5067 60.525 67.6891 53.0998 69.0375 52.0106C69.7736 51.4156 71.7471 51.6359 72.6203 51.5883C74.0225 51.5115 75.429 51.4874 76.8324 51.5229C77.3777 51.5371 79.6156 51.8438 80.0558 52.2675C81.0323 53.2067 81.0746 58.5664 81.1284 59.8553C81.3711 65.7042 81.5185 71.5594 81.5692 77.4154C81.6278 84.2069 81.7697 91.9241 81.5692 98.7121C81.5136 100.605 80.3518 101.326 78.7026 101.512C77.3964 101.659 75.99 101.476 74.6844 101.366C73.5739 101.271 68.2486 101.358 67.6405 100.081C66.4992 97.6865 64.1141 98.6801 65.2572 101.079C65.8629 102.349 66.8587 102.968 68.0224 103.368C70.9965 104.391 74.4785 104.56 77.5528 104.597C79.2425 104.618 81.4303 104.726 82.7752 103.26C84.3163 101.581 83.96 98.5862 84.0197 96.3816C84.2335 88.4227 84.2698 80.4574 84.1272 72.4964C84.0602 68.7491 83.9539 65.0032 83.8084 61.2587C83.6955 58.3588 83.8978 55.0679 83.1176 52.2675C82.0849 48.56 79.7093 48.5088 76.833 48.4356C73.9785 48.3631 70.3226 48.0332 67.5936 49.2368C64.3448 50.6694 64.8381 55.4852 64.878 58.7861C64.9402 63.9659 64.8985 69.1508 64.9028 74.3313C64.9076 80.0913 64.9088 85.8506 64.9257 91.6106C64.9342 94.3647 64.7433 97.2589 65.0103 100.002C65.2729 102.698 67.8992 102.729 67.6335 100.002Z" fill="#131317"/>
<path d="M89.3051 33.7941C89.3232 34.1232 89.3431 34.4517 89.3612 34.7808C88.5152 55.3702 87.3002 102.914 89.854 102.863L96.7249 102.726C98.5674 102.69 100.956 103.232 102.623 101.838C103.994 100.692 104.438 98.5053 104.568 96.4045C104.769 93.1819 104.769 89.908 104.843 86.6754C105.144 73.6284 105.217 60.5706 105.06 47.5179C105.02 44.2028 104.965 40.8885 104.897 37.5748C104.846 35.1349 104.965 32.3537 104.067 30.1612C103.293 28.2722 101.96 27.3509 100.532 26.8212C98.4532 26.0506 96.2684 25.4513 94.1506 24.9522C89.9947 23.9718 89.046 29.0379 89.3051 33.7941Z" fill="white"/>
<path d="M88.8067 98.8443C88.3719 92.8049 88.7216 86.5608 88.7143 80.5072C88.7005 69.0974 88.7011 57.6876 88.6902 46.2779C88.6854 41.0639 88.5996 35.8449 88.6244 30.6317C88.6304 29.3171 88.5223 27.5647 88.8925 26.3007C89.2633 25.0352 89.4102 24.0457 90.3203 23.5815C91.8028 22.825 94.8141 23.2647 96.3938 23.2491C97.4742 23.2384 100.369 24.0012 101.32 24.7605C101.82 25.35 101.843 26.5488 101.938 27.296C102.186 29.2596 102.148 31.2779 102.206 33.2564C102.452 41.6042 102.617 49.9555 102.7 58.3076C102.792 67.5881 102.783 76.87 102.674 86.1498C102.642 88.9083 103.496 100.048 101.32 101.154C99.8347 101.909 95.4542 101.454 94.0653 101.154C93.1945 100.966 89.0809 100.23 88.7143 99.0382C87.9257 96.4774 85.4522 96.821 86.2493 99.4102C87.1261 102.259 89.0797 102.996 91.413 103.667C94.6082 104.584 99.4712 105.864 102.582 104.173C104.995 102.862 105.046 100.019 105.118 97.2852C105.264 91.7207 105.311 86.1484 105.352 80.5818C105.427 70.3728 105.382 60.1631 105.214 49.9555C105.13 44.8517 105.015 39.7494 104.87 34.6477C104.77 31.0995 105.033 26.9519 103.881 23.5643C102.416 19.2503 97.7822 20.0231 94.4856 20.2314C90.2554 20.4987 86.8381 20.9964 86.1907 26.6447C85.4624 32.9984 86.0621 39.8688 86.0681 46.2779C86.0748 53.4036 86.0772 60.5292 86.0814 67.6549C86.0874 77.9435 85.4455 88.5812 86.1847 98.8443C86.3785 101.559 89.0036 101.584 88.8067 98.8443Z" fill="#131317"/>
<path d="M111.19 77.3931C110.606 84.8245 110.73 92.2655 111.562 99.6829C111.59 99.9383 110.81 103.852 113.356 103.751C115.849 103.651 118.343 103.552 120.837 103.453C122.743 103.377 125.161 103.586 126.252 102.096C127.26 100.719 126.646 98.4552 126.618 96.9428C126.579 94.7783 126.539 92.6137 126.499 90.4491C126.462 88.3986 126.424 86.3477 126.387 84.2972C126.353 82.4342 126.61 80.3913 126.185 78.5537C125.793 76.8537 124.293 75.902 122.105 75.7454C119.316 75.5458 116.478 75.5482 113.68 75.4578C112.276 75.4116 111.269 76.3831 111.19 77.3931Z" fill="white"/>
<path d="M110.634 101.932C110.197 99.324 110.545 96.5536 110.538 93.9364C110.526 89.3435 110.528 84.7501 110.511 80.1571C110.507 78.9987 110.689 74.6851 112.038 74.0524C112.774 73.7067 114.747 73.8347 115.62 73.8071C117.023 73.7625 118.429 73.7484 119.832 73.7691C120.378 73.7773 122.616 73.9555 123.056 74.2017C124.032 74.7472 124.075 77.8608 124.128 78.6096C124.371 82.0074 124.518 85.4088 124.569 88.8107C124.628 92.7561 124.77 97.2392 124.569 101.183C124.514 102.282 123.352 102.701 121.703 102.809C120.396 102.895 118.99 102.788 117.684 102.724C116.574 102.669 111.249 102.72 110.64 101.978C109.499 100.587 107.114 101.164 108.257 102.557C108.863 103.295 109.859 103.655 111.022 103.887C113.997 104.482 117.478 104.58 120.553 104.601C122.242 104.613 124.43 104.676 125.775 103.824C127.316 102.849 126.96 101.109 127.02 99.8287C127.234 95.2052 127.27 90.5779 127.127 85.9532C127.06 83.7762 126.954 81.6001 126.808 79.4249C126.695 77.7402 126.898 75.8285 126.118 74.2017C125.085 72.0479 122.709 72.0181 119.833 71.9756C116.978 71.9335 113.323 71.7418 110.594 72.441C107.345 73.2732 107.838 76.0709 107.878 77.9885C107.94 80.9976 107.899 84.0096 107.903 87.0191C107.908 90.3652 107.909 93.7109 107.926 97.0571C107.934 98.657 107.743 100.338 108.01 101.932C108.273 103.498 110.899 103.516 110.634 101.932Z" fill="#131317"/>
<path d="M132.507 57.2745C131.942 70.4303 132.062 83.6032 132.867 96.7341C132.895 97.1863 132.139 104.115 134.604 103.935C137.017 103.76 139.431 103.584 141.845 103.408C143.69 103.273 146.031 103.644 147.087 101.005C148.062 98.5683 147.468 94.5608 147.441 91.8834C147.403 88.0515 147.364 84.2196 147.326 80.3876C147.29 76.7576 147.254 73.1269 147.217 69.4969C147.184 66.1989 147.433 62.5823 147.022 59.3291C146.642 56.3197 145.19 54.6348 143.072 54.3576C140.372 54.0042 137.626 54.0085 134.917 53.8485C133.558 53.7668 132.584 55.4865 132.507 57.2745Z" fill="white"/>
<path d="M131.634 100.002C131.197 95.5129 131.545 90.7439 131.538 86.2387C131.526 78.3325 131.528 70.4255 131.511 62.5192C131.507 60.525 131.689 53.0998 133.038 52.0106C133.774 51.4156 135.747 51.6359 136.62 51.5883C138.023 51.5115 139.429 51.4874 140.832 51.5229C141.378 51.5371 143.616 51.8438 144.056 52.2675C145.032 53.2067 145.075 58.5664 145.128 59.8553C145.371 65.7042 145.518 71.5594 145.569 77.4154C145.628 84.2069 145.77 91.9241 145.569 98.7121C145.514 100.605 144.352 101.326 142.703 101.512C141.396 101.659 139.99 101.476 138.684 101.366C137.574 101.271 132.249 101.358 131.64 100.081C130.499 97.6865 128.114 98.6801 129.257 101.079C129.863 102.349 130.859 102.968 132.022 103.368C134.997 104.391 138.478 104.56 141.553 104.597C143.242 104.618 145.43 104.726 146.775 103.26C148.316 101.581 147.96 98.5862 148.02 96.3816C148.234 88.4227 148.27 80.4574 148.127 72.4964C148.06 68.7491 147.954 65.0032 147.808 61.2587C147.695 58.3588 147.898 55.0679 147.118 52.2675C146.085 48.56 143.709 48.5088 140.833 48.4356C137.978 48.3631 134.323 48.0332 131.594 49.2368C128.345 50.6694 128.838 55.4852 128.878 58.7861C128.94 63.9659 128.899 69.1508 128.903 74.3313C128.908 80.0913 128.909 85.8506 128.926 91.6106C128.934 94.3647 128.743 97.2589 129.01 100.002C129.273 102.698 131.899 102.729 131.634 100.002Z" fill="#131317"/>
<path d="M24.8253 20.1324C24.8436 20.5255 24.8637 20.9173 24.8821 21.3103C24.027 45.8866 22.7991 102.635 25.3801 102.574L32.324 102.41C34.186 102.367 36.5997 103.014 38.2847 101.351C39.6701 99.9831 40.1187 97.3734 40.2505 94.8657C40.4531 91.0194 40.4537 87.1118 40.5288 83.2527C40.8321 67.6796 40.906 52.0926 40.7473 36.5132C40.707 32.5571 40.6521 28.5997 40.5825 24.6449C40.5312 21.7327 40.6515 18.4121 39.744 15.796C38.9622 13.541 37.6146 12.4423 36.1713 11.8093C34.0707 10.8892 31.8626 10.1745 29.7223 9.57854C25.5223 8.4083 24.5635 14.456 24.8253 20.1324Z" fill="white"/>
<path d="M23.682 96.0373C23.2509 87.9031 23.5939 79.2742 23.5866 71.1104C23.574 56.3454 23.5764 41.5817 23.5595 26.8168C23.5552 23.3099 23.397 9.39309 24.6223 7.2458C25.2557 6.13554 27.5638 6.02451 28.3434 5.93456C29.751 5.77265 31.1635 5.72384 32.5729 5.7701C33.2052 5.79195 34.6793 5.14083 35.807 7.2458C37.4232 10.2627 37.1153 18.6119 37.1702 21.0573C37.4166 32.034 37.5658 43.0197 37.6171 54.008C37.6738 66.262 37.6098 78.5186 37.4232 90.7662C37.3767 93.8168 37.4055 98.0733 35.807 98.712C34.6228 99.1849 32.5023 98.8701 31.3048 98.712C30.0837 98.5514 24.1555 98.5804 23.5039 96.0348C22.3873 91.6772 20.1886 93.6176 21.3058 97.9803C22.0129 100.741 23.2563 101.716 24.6223 102.425C27.5064 103.922 30.6441 104.411 33.6013 104.472C35.4438 104.511 37.6805 104.665 39.0199 101.497C40.4433 98.1307 40.0266 92.366 40.084 88.2308C40.282 73.8693 40.3158 59.4989 40.1794 45.1336C40.1111 37.9503 40.0012 30.7682 39.8497 23.5901C39.7379 18.3099 39.936 12.3538 39.1661 7.2458C38.1413 0.445442 35.7862 0.336227 32.8815 0.19873C30.0457 0.0638046 26.1833 -0.642967 23.5039 1.79088C20.0781 4.90321 20.9132 15.1552 20.9302 21.4968C20.9555 30.9391 20.9483 40.3841 20.9525 49.8265C20.9573 60.1093 20.9585 70.3908 20.9754 80.6736C20.9839 85.7173 20.7931 91.0116 21.0594 96.0348C21.3172 100.913 23.9429 100.968 23.682 96.0373Z" fill="#131317"/>
</svg>
