<svg width="64" height="64" viewBox="0 0 64 64" fill="none" xmlns="http://www.w3.org/2000/svg">
<path d="M10.9502 36.1357C9.89002 34.7354 10.9502 26.7246 10.9502 26.7246C12.8424 27.7668 17.5084 31.2262 20.3652 33.274C24.2979 36.0929 25.2541 35.7501 27.9179 35.7501C30.373 35.7501 36.9406 31.292 41.5562 29.3358C41.5562 29.3358 41.0588 36.4591 40.4296 39.2653C39.8005 42.0715 29.3123 45.8203 25.0327 45.5261C16.4736 44.4315 12.0104 37.536 10.9502 36.1357Z" fill="#FFD000"/>
<path d="M18.5473 12.4579C18.385 12.536 7.02407 18.005 6.94797 19.0628C6.87131 20.1282 8.85311 21.4153 9.36339 21.751C10.0012 22.1705 17.6367 27.4739 18.5491 27.8515C19.2451 28.1395 24.1749 31.6337 27.4345 33.6673C27.724 33.8479 28.0801 33.8656 28.3864 33.7153C30.3865 32.7335 37.9175 29.0194 39.1383 28.1588C40.5483 27.1648 50.6171 22.4978 51.0354 21.751C51.4499 21.0109 40.0803 12.6127 39.8724 12.4593C39.8659 12.4545 39.8715 12.4586 39.8649 12.454C39.6555 12.3074 32.3088 7.17379 30.621 7.21707C28.9223 7.26063 18.7117 12.3756 18.551 12.4561C18.546 12.4586 18.5524 12.4555 18.5473 12.4579Z" fill="#FFD000"/>
<path d="M16.0879 11.5363C16.0879 11.5363 3.9962 17.91 3.80612 18.3585C3.61604 18.807 6.267 20.8687 6.76752 21.1979C7.39317 21.6094 15.8389 27.1264 16.6324 27.6819C17.9978 28.6376 25.6195 33.7907 26.4964 33.8311C27.3733 33.8715 49.4465 21.7198 49.4369 20.9921C49.4272 20.2645 39.1345 11.9802 39.1345 11.9802C39.1345 11.9802 29.7854 5.74512 28.6653 5.8076C27.5452 5.87007 16.0879 11.5363 16.0879 11.5363Z" stroke="#1B1B20" stroke-width="2.5" stroke-miterlimit="10" stroke-linecap="round" stroke-linejoin="round"/>
<path d="M9.10323 23.0088C9.10323 23.0088 7.82381 31.9689 8.31074 34.2429C8.79767 36.5169 14.9901 43.8641 22.9984 44.8847C27.0026 45.159 38.4207 41.4268 39.0093 38.8106C39.598 36.1943 40.9813 26.4533 40.9813 26.4533" stroke="#1B1B20" stroke-width="2.5" stroke-miterlimit="10" stroke-linecap="round" stroke-linejoin="round"/>
<path d="M29.7002 18.7134C34.3062 18.8314 44.4874 20.3069 48.3637 25.2643C52.24 30.2216 49.3507 34.3915 48.3637 38.1686C47.9613 39.3526 48.5479 43.9985 49.5137 45.8156" stroke="#1B1B20" stroke-width="2.5" stroke-miterlimit="10" stroke-linecap="round" stroke-linejoin="round"/>
<path d="M43.6718 47.8296C42.6286 48.2789 40.3615 49.1559 39.6386 49.0689M45.0381 51.2867C43.2897 52.0985 39.3389 53.7263 37.5229 53.7437M45.5891 54.5699C44.5312 55.3019 42.3538 56.8486 42.107 57.1791" stroke="#1B1B20" stroke-width="2.5" stroke-miterlimit="10" stroke-linecap="round" stroke-linejoin="round"/>
<path d="M52.3397 45.9431C51.3755 45.0532 49.5081 45.7961 48.9378 46.7102C48.1603 47.7184 48.8601 49.4719 49.9098 49.9322C50.9596 50.3925 52.2426 49.9514 53.0396 49.0692C53.8366 48.187 53.545 47.0554 52.3397 45.9431Z" stroke="#1B1B20" stroke-width="2.5" stroke-miterlimit="10" stroke-linecap="round" stroke-linejoin="round"/>
<path d="M51.0464 50.2106C51.487 51.7449 52.8892 54.9938 54.9731 55.7149C56.4311 54.2701 59.2537 51.02 58.8805 49.5778C57.4808 49.6928 54.4405 49.6161 53.4763 48.3887" stroke="#1B1B20" stroke-width="2.5" stroke-miterlimit="10" stroke-linecap="round" stroke-linejoin="round"/>
</svg>
