<svg width="165" height="105" viewBox="0 0 165 105" fill="none" xmlns="http://www.w3.org/2000/svg">
<g clip-path="url(#clip0_522_8905)">
<rect width="165" height="105" fill="white"/>
<path d="M99.9544 74.2924C99.59 73.6954 99.1997 73.0985 98.8094 72.5015C98.7313 72.3977 98.6532 72.3458 98.5492 72.3198C98.5492 72.0863 98.5752 71.9046 98.6793 71.8267C98.6272 71.7748 98.5752 71.6969 98.5231 71.645C98.2629 71.4633 98.0547 71.2298 97.8205 70.9962C97.3261 70.6068 96.8057 70.2435 96.3112 69.8542C96.025 69.6206 95.7648 69.361 95.4785 69.1274C95.1402 68.8419 94.7499 68.6084 94.3856 68.3488C93.7871 67.9335 93.1885 67.4923 92.616 67.0251C92.3558 66.8175 92.1216 66.558 91.8874 66.2984C91.6272 66.1167 91.393 65.9091 91.1588 65.7274C90.0919 65.0786 89.025 64.4037 88.0882 63.5732C87.932 63.4434 87.8019 63.3396 87.6718 63.1839C87.6458 63.1579 87.6197 63.132 87.5937 63.106C87.3335 62.8724 87.0993 62.6129 86.8911 62.3274C86.787 62.2495 86.6829 62.1976 86.6049 62.1197C86.3967 61.9381 86.3186 61.7304 86.3707 61.5228C86.3447 61.4709 86.3707 61.419 86.3967 61.393C86.4748 61.1854 86.6309 60.9778 86.787 60.822C86.8651 60.7182 86.9692 60.6144 87.0733 60.5106C87.0733 60.4587 87.0993 60.4068 87.1513 60.3808C87.6718 59.9915 88.0621 59.4724 88.5045 59.0052C88.4785 59.0052 88.4525 59.0052 88.4264 59.0052C87.6458 60.0174 86.6049 60.822 85.616 61.6266C84.1327 62.8205 82.5194 63.9366 80.7759 64.7411C79.6829 65.2343 77.7052 65.987 76.9506 64.6373C76.8985 64.5335 76.9506 64.4297 77.0286 64.3778C76.9766 64.3259 76.9506 64.274 76.9245 64.2221C76.6123 63.9106 76.4041 63.4953 76.3781 63.0282C76.3781 62.9243 76.4822 62.8465 76.5602 62.8465C76.6123 62.5091 76.7684 62.1457 76.9245 61.8342C76.9766 61.7564 77.0807 61.7304 77.1587 61.7564C77.1848 61.7045 77.1848 61.6785 77.2108 61.6266C77.5231 60.8739 78.1216 60.2251 78.7201 59.68C78.9543 59.4724 79.1885 59.2648 79.4227 59.0831C79.813 58.6678 80.2034 58.2785 80.6197 57.9151C80.4636 57.7334 80.3335 57.5258 80.2294 57.3182C79.9431 56.6953 82.077 55.0861 81.6606 54.5151C81.2963 53.996 79.5788 54.1517 78.8762 53.9701C78.1736 53.7884 75.7275 53.1395 74.5045 52.9578C71.7981 52.5426 68.7015 53.0876 66.3855 51.3227C66.3595 51.2968 66.3334 51.2968 66.3074 51.2968C66.0732 50.9334 65.3446 50.9853 65.2145 51.4784C63.9654 55.6311 62.7423 59.7579 61.4933 63.9106C61.4933 63.9366 61.4673 63.9885 61.4673 64.0144C61.3892 64.2999 61.2851 64.5854 61.207 64.8709C62.2479 66.3763 64.2516 67.1809 65.4227 68.6084C66.6977 70.1656 68.2591 70.8128 69.0398 72.4999C69.1439 72.7075 69.2479 72.9411 69.378 73.1487C69.4041 73.2006 69.4301 73.2266 69.4561 73.2785C69.4561 73.2785 69.4821 73.3045 69.4821 73.3304C69.5082 73.3564 69.5342 73.3823 69.5602 73.4083C69.6643 73.3045 71.0093 71.9669 69.7684 73.1747C70.1587 72.6037 71.3037 72.7335 71.2256 73.564C71.1996 73.7197 71.2256 73.8755 71.2256 74.0571C71.2517 74.161 71.2517 74.2648 71.2517 74.3686C71.3558 74.9136 74.8167 72.3473 75.0509 72.8404C75.155 73.0481 75.2591 73.2557 75.4152 73.4374C75.4152 73.4374 75.5454 73.5931 75.5714 73.6191C75.5974 73.645 75.7275 73.7488 75.7535 73.7748C75.7796 73.8007 75.8056 73.8007 75.8316 73.8267C75.8576 73.8267 75.9097 73.8526 75.9357 73.8526C75.9357 73.8526 75.9357 73.8526 75.9617 73.8526C75.9877 73.8526 76.0138 73.8526 76.0138 73.8526C76.1178 73.8007 76.1439 73.7748 76.2219 73.7229C76.7424 73.2817 72.787 78.2374 72.813 78.9382C72.813 78.9642 72.839 79.1199 72.839 79.2237C72.839 79.2237 72.8651 79.2237 72.8651 79.1978C72.9171 79.1199 73.0472 79.068 73.0993 78.9901C73.5156 78.4451 77.7658 74.351 78 74.9999C78.2862 75.7266 79.5632 76.6556 80.5 76.4999C80.7602 76.448 76.6903 80.7031 76.8465 80.8329C77.1848 80.7031 77.5491 80.5993 77.7833 80.6772C78.1476 80.6253 78.5119 80.8329 78.642 81.1703C78.59 81.2741 80.4219 78.8961 80.5 78.9999C81.1662 78.8944 82.3608 78.8405 83 78.9999C82.5 80.9999 80.0212 83.1428 80.3075 83.065C80.5937 82.9871 80.8279 82.8054 81.0361 82.5978C81.0621 82.5978 81.0881 82.5718 81.1142 82.5718C81.1402 82.5718 81.1402 82.5718 81.1662 82.5718C81.4524 82.3902 81.7127 82.1825 81.9469 81.897C82.103 81.7153 82.3112 81.6375 82.4933 81.6634C82.3632 81.5337 82.3112 81.4039 82.3112 81.2482C82.4153 81.1443 82.5194 81.0665 82.6495 80.9886C82.9878 80.7291 83.326 80.5733 83.7424 80.5733C84.1848 80.8069 84.6792 80.9886 85.1476 81.1443H85.1736C86.0064 81.5856 86.8391 81.8451 87.7238 81.4039C88.1402 81.1963 88.5305 80.8848 88.9729 80.7291C89.5194 80.5214 90.0658 80.7291 90.6383 80.6512C91.1067 80.5993 91.5751 80.3657 91.8093 79.9245C91.9134 79.7168 91.9655 79.4833 92.0956 79.3016C92.2257 79.1199 92.4079 78.9642 92.616 78.8603C93.6569 78.3413 94.8279 78.9123 95.9209 78.6527C96.8837 78.4191 97.5863 77.6665 97.8726 76.7321C97.9246 76.5245 97.9767 76.3168 98.1848 76.2649C98.2109 76.2649 98.2629 76.2909 98.2889 76.3168C98.315 76.3168 98.393 76.3687 98.393 76.3687C98.419 76.3687 98.4451 76.3947 98.4971 76.3947C98.5491 76.4206 98.5752 76.4206 98.6272 76.4206H98.6532C98.6793 76.4206 98.7053 76.4206 98.7313 76.4206C98.7313 76.4206 98.7834 76.3947 98.8094 76.4206C98.8354 76.4206 98.8614 76.4206 98.8874 76.3947C98.9135 76.3687 98.9395 76.3687 98.9655 76.3687C99.4599 76.4466 99.9544 76.3168 100.189 75.8237C100.423 75.3046 100.241 74.7596 99.9544 74.2924ZM99.4599 75.5382C99.4599 75.5122 99.4599 75.5122 99.4599 75.5382C99.486 75.4084 99.512 75.3305 99.538 75.2267C99.564 75.3305 99.538 75.4344 99.4599 75.5382Z" fill="#FFD000"/>
<path d="M12.748 62.1309C12.748 62.4146 12.9797 62.5177 13.1857 62.4662C13.2372 62.8788 13.3144 63.2914 13.4946 63.6782C14.0095 64.7871 15.3224 64.9419 16.2749 64.2972C17.3304 63.5751 17.6908 62.2083 18.1799 61.0994C18.7205 59.8615 19.2868 58.6237 19.4413 57.2569C19.4413 57.1537 19.4413 57.0764 19.3898 57.0248C19.3641 56.9474 19.3383 56.8443 19.2354 56.7927C18.3086 56.1222 17.3304 55.5549 16.2749 55.0649C15.76 54.8328 15.2451 54.6007 14.7045 54.3944C14.4728 54.317 14.061 53.9302 13.8293 54.0075C13.7005 54.0591 13.752 54.3686 13.7005 54.446C13.5718 54.4975 13.4689 54.6007 13.4431 54.7554C13.3916 55.2196 13.3401 55.658 13.2887 56.1222C12.9282 58.1079 12.7738 60.1194 12.748 62.1309Z" fill="#1B1B20"/>
<path d="M61.8496 67.668C62.1709 67.9083 62.4921 68.1753 62.8134 68.4156C62.2697 68.2554 61.726 68.0151 61.4047 67.4811C61.3306 67.3476 61.2565 67.2141 61.207 67.0806C61.4047 67.2942 61.6272 67.4811 61.8496 67.668Z" fill="#FFD000"/>
<path d="M88.4114 58.9398C86.0631 61.3615 83.5582 63.8353 80.3489 64.9029C79.5139 65.1633 78.6007 65.3456 77.7657 65.0852C76.9308 64.8508 76.2002 64.0957 76.2002 63.2103C76.2002 62.8197 76.3567 62.4291 76.5655 62.0646C77.1917 60.8928 78.131 59.9033 79.0443 58.9398C82.4363 55.3985 86.0892 49.6437 91.5686 49.4615C93.0037 49.4094 93.8647 50.0343 94.9867 50.7895C96.6827 51.9352 98.7962 52.1435 100.831 52.3258" stroke="#1B1B20" stroke-width="2.5" stroke-miterlimit="10" stroke-linecap="round" stroke-linejoin="round"/>
<path d="M86.0961 61.7405C88.0414 63.9807 103.236 73.5144 100.844 76.3798C100.239 77.0831 99.0826 77.031 98.1362 76.8226C92.6945 75.6244 89.277 72.4986 85.5703 68.461" stroke="#1B1B20" stroke-width="2.5" stroke-miterlimit="10" stroke-linecap="round" stroke-linejoin="round"/>
<path d="M98.6678 77.3844C98.9056 79.1356 97.1617 79.4492 95.18 79.3447C93.1984 79.2401 91.3488 78.1685 89.7106 77.0447C86.8305 75.0844 85.2452 73.5424 82.8936 71.0856" stroke="#1B1B20" stroke-width="2.5" stroke-miterlimit="10" stroke-linecap="round" stroke-linejoin="round"/>
<path d="M81.4896 78.0309C82.8941 77.9516 83.3363 79.3274 83.1022 80.518C82.8681 81.7087 81.9318 82.8199 80.9174 83.4549C79.825 84.1693 78.0823 84.0635 77.4841 82.8728C77.0939 82.132 77.276 81.1795 77.7442 80.4916C78.2124 79.8036 78.8886 79.3009 79.5909 78.8247C80.1891 78.4278 80.8133 78.0574 81.4896 78.0309Z" stroke="#1B1B20" stroke-width="2.5" stroke-miterlimit="10" stroke-linecap="round" stroke-linejoin="round"/>
<path d="M91.8659 78.5358C92.2498 79.0678 92.5313 79.3465 92.5313 80.0051C92.5313 80.5371 92.3522 81.145 91.8659 81.373C91.61 81.4997 91.3029 81.525 91.0214 81.4743C89.9977 81.3477 88.7181 80.9677 87.9248 80.3597C87.1826 79.8024 86.4405 79.2958 85.7495 78.6625C84.6234 77.6492 83.2159 76.104 82.0898 75.0907" stroke="#1B1B20" stroke-width="2.5" stroke-miterlimit="10" stroke-linecap="round" stroke-linejoin="round"/>
<path d="M69.775 72.9546C68.1903 70.8219 65.982 69.2803 63.6439 68.1754C61.3058 67.0705 62.6307 67.5073 60.1367 66.8135" stroke="#1B1B20" stroke-width="2.5" stroke-miterlimit="10" stroke-linecap="round" stroke-linejoin="round"/>
<path d="M69.7744 73.9022C69.0065 74.006 68.2916 74.3173 67.5237 74.473C66.7558 74.6287 65.882 74.6028 65.2995 74.0838C64.664 73.5389 64.558 72.5788 64.8228 71.8004C65.0876 71.022 65.6437 70.3733 66.1733 69.7505" stroke="#1B1B20" stroke-width="2.5" stroke-miterlimit="10" stroke-linecap="round" stroke-linejoin="round"/>
<path d="M80.3381 77.9905C80.6074 77.2319 80.4997 76.3687 80.0418 75.7148C79.584 75.0609 78.8029 74.6162 77.995 74.5639C76.5406 74.4592 75.2748 75.5055 74.413 76.6303C73.7935 77.4412 73.2549 78.3828 73.2549 79.3768C73.2818 80.3969 74.0359 81.4432 75.0593 81.4956C76.0289 81.5479 77.2947 80.9463 77.9411 80.3185" stroke="#1B1B20" stroke-width="2.5" stroke-miterlimit="10" stroke-linecap="round" stroke-linejoin="round"/>
<path d="M76.7359 74.4097C76.6835 73.599 75.8459 73.0416 75.0344 72.839C72.6785 72.2056 69.93 73.6243 69.1709 75.879C68.8306 76.8417 68.883 78.0324 69.6683 78.7164C70.1133 79.1218 70.7153 79.2991 71.2912 79.3498C72.1288 79.4258 73.1497 79.1724 73.3853 78.3871" stroke="#1B1B20" stroke-width="2.5" stroke-miterlimit="10" stroke-linecap="round" stroke-linejoin="round"/>
<path d="M65.2236 48.9243C69.7098 53.0032 78.5519 51.8224 83.4293 54.2644" stroke="#1B1B20" stroke-width="2.5" stroke-miterlimit="10" stroke-linecap="round" stroke-linejoin="round"/>
<path d="M66.294 47.0554C65.1531 47.9941 64.5694 49.4803 64.0387 50.9143C61.9957 56.5202 60.4569 62.3085 59.4221 68.2012C59.2894 68.8791 59.2364 69.7395 59.767 70.1306C60.4303 70.626 61.412 69.8438 61.5447 68.9573" stroke="#1B1B20" stroke-width="2.5" stroke-miterlimit="10" stroke-linecap="round" stroke-linejoin="round"/>
<path d="M66.8301 46.7884C67.4421 47.4364 67.732 48.3274 67.6032 49.1914" stroke="#1B1B20" stroke-width="2.5" stroke-miterlimit="10" stroke-linecap="round" stroke-linejoin="round"/>
<path d="M66.8293 46.5214C65.1254 45.0352 61.795 44.0444 59.6006 44.1227" stroke="#1B1B20" stroke-width="2.5" stroke-miterlimit="10" stroke-linecap="round" stroke-linejoin="round"/>
<path d="M59.3334 44.1183C58.0769 45.5156 57.3177 47.7666 56.7156 49.6037C54.6999 55.943 53.8622 62.5927 53.4434 69.2166" stroke="#1B1B20" stroke-width="2.5" stroke-miterlimit="10" stroke-linecap="round" stroke-linejoin="round"/>
<path d="M60.6721 70.312C59.3199 70.574 57.9418 70.6264 56.5897 70.443C56.0956 70.3644 54.4055 70.05 53.9634 69.7618C53.5214 69.4736 53.4954 69.4998 53.4434 68.9496" stroke="#1B1B20" stroke-width="2.5" stroke-miterlimit="10" stroke-linecap="round" stroke-linejoin="round"/>
<path d="M57.3637 65.3615C58.118 65.7567 58.2258 66.9919 57.5253 67.5848C56.8249 68.1777 55.6395 67.8319 55.3701 66.9919C55.1007 66.152 55.9089 65.1639 56.771 65.2133C56.8787 65.6085 56.6632 66.5967 56.771 66.9919" stroke="#1B1B20" stroke-width="2.5" stroke-miterlimit="10" stroke-linecap="round" stroke-linejoin="round"/>
<path d="M65.475 47.9568C65.6053 47.8818 65.7355 47.8568 65.8658 47.8568C65.8658 47.8317 65.8658 47.7817 65.8658 47.7567C65.8658 47.5065 65.9961 47.2814 66.2305 47.2064C66.2566 47.0313 66.3608 46.8812 66.4911 46.7811C66.5171 46.7561 66.5171 46.7311 66.5432 46.7061C66.6213 46.606 66.7516 46.556 66.8558 46.5309C67.1424 46.4809 67.455 46.631 67.5332 46.8812C67.7677 47.5566 67.924 48.282 68.0021 48.9824C68.0542 49.2076 68.1063 49.4077 68.1584 49.6328C68.2106 49.833 68.0542 50.0581 67.8979 50.1582C67.7155 50.2832 67.5071 50.2832 67.2987 50.2082C67.1424 50.1331 66.96 50.0581 66.8037 49.958C66.7516 49.958 66.6734 49.933 66.6213 49.908C66.0742 49.6578 65.6053 49.2576 65.3187 48.7573C65.1624 48.5071 65.1884 48.1319 65.475 47.9568Z" fill="#1B1B20"/>
<path d="M89.0509 81.2261C88.3457 81.9922 87.2748 82.3885 86.2561 82.2828C85.2374 82.1772 84.2709 81.5695 83.6963 80.6977" stroke="#1B1B20" stroke-width="2.5" stroke-miterlimit="10" stroke-linecap="round" stroke-linejoin="round"/>
<path d="M106.989 65.7457C105.643 68.2717 101.735 70.8508 99.2246 72.1537" stroke="#1B1B20" stroke-width="2.5" stroke-miterlimit="10" stroke-linecap="round" stroke-linejoin="round"/>
<path d="M99.0162 51.6479C98.9636 51.1492 98.8848 50.5979 99.095 50.1254C99.3053 49.653 99.8835 49.3117 100.33 49.5217C100.593 49.653 100.751 49.9155 100.882 50.1517C104.378 56.2416 107.401 62.7252 108.294 69.6813C108.347 70.1013 108.373 70.5738 108.084 70.8625C107.821 71.125 107.375 71.125 107.007 71.02C105.876 70.7575 104.93 69.9176 104.51 68.8413" stroke="#1B1B20" stroke-width="2.5" stroke-miterlimit="10" stroke-linecap="round" stroke-linejoin="round"/>
<path d="M108.863 70.0176C110.143 68.848 111.632 67.9903 113.121 67.1326C119.731 63.2858 125.948 58.7893 132.14 54.3188C138.201 49.9523 146.194 45.4038 151.968 40.6473" stroke="#1B1B20" stroke-width="2.5" stroke-miterlimit="10" stroke-linecap="round" stroke-linejoin="round"/>
<path d="M142.865 21.6902C138.555 25.496 134.246 29.3019 129.466 32.4821C124.581 35.7406 119.279 38.2691 114.264 41.319C109.64 44.1343 105.096 47.1582 100.028 49.1914" stroke="#1B1B20" stroke-width="2.5" stroke-miterlimit="10" stroke-linecap="round" stroke-linejoin="round"/>
<path d="M111.828 63.7607C112.104 63.9029 112.049 64.2584 111.828 64.448C111.442 64.8035 110.67 64.7324 110.34 64.3295C110.037 63.9266 110.257 63.2867 110.781 63.1208C111.304 62.9549 111.966 63.263 112.076 63.7607" stroke="#1B1B20" stroke-width="2.5" stroke-miterlimit="10" stroke-linecap="round" stroke-linejoin="round"/>
<path d="M106.722 46.2545C111.69 51.3724 114.779 58.1876 115.289 65.2116" stroke="#1B1B20" stroke-width="2.5" stroke-miterlimit="10" stroke-linecap="round" stroke-linejoin="round"/>
<path d="M21.0479 31.0353C35.717 34.2117 45.4877 40.3564 59.8688 44.6524" stroke="#1B1B20" stroke-width="2.5" stroke-miterlimit="10" stroke-linecap="round" stroke-linejoin="round"/>
<path d="M14.0869 53.7305C19.3054 57.449 26.3859 59.4374 32.4173 61.4775C39.4191 63.879 46.5257 65.9965 53.711 67.8816" stroke="#1B1B20" stroke-width="2.5" stroke-miterlimit="10" stroke-linecap="round" stroke-linejoin="round"/>
<path d="M43.0954 19.0556C42.728 18.4109 42.3674 17.7901 42 17.1453" stroke="#1B1B20" stroke-width="2.5" stroke-miterlimit="10" stroke-linecap="round" stroke-linejoin="round"/>
<path d="M58.3028 83.5403C57.4845 84.1052 56.7134 84.7471 56 85.4425" stroke="#1B1B20" stroke-width="2.5" stroke-miterlimit="10" stroke-linecap="round" stroke-linejoin="round"/>
<path d="M128.874 12.9998C128.165 13.544 127.532 14.1827 127 14.8688" stroke="#1B1B20" stroke-width="2.5" stroke-miterlimit="10" stroke-linecap="round" stroke-linejoin="round"/>
<path d="M81.8741 43.4028C81.2402 42.6113 80.6063 41.7914 80 40.9998" stroke="#1B1B20" stroke-width="2.5" stroke-miterlimit="10" stroke-linecap="round" stroke-linejoin="round"/>
<path d="M135.686 27.2535C134.229 24.2534 132.591 18.0707 136.258 16.6098C137.48 15.8793 138.703 16.8445 139.665 17.6011C141.876 19.8185 143.333 22.2447 144.789 25.1926C145.023 25.6883 145.778 26.1839 146.012 26.6535C149.185 32.7841 152.358 38.6538 154.075 45.5149C154.569 47.7323 155.063 49.9237 154.075 52.1412C153.347 53.8629 151.136 53.8629 149.913 52.3759C147.963 49.9237 146.974 48.6976 145.361 46.1932" stroke="#1B1B20" stroke-width="2.5" stroke-miterlimit="10" stroke-linecap="round" stroke-linejoin="round"/>
<path d="M19.7495 57.2873C19.0917 59.0048 18.9601 59.4731 18.3023 61.1906C17.9602 62.1273 17.5655 63.0901 16.8551 63.8187C16.1447 64.5213 15.0132 64.9376 14.0923 64.4953C12.9082 63.9228 12.724 62.3615 12.7503 61.0344C12.9872 51.8749 16.3815 43.1057 19.7232 34.5446C21.2756 30.5633 22.8543 26.53 25.4856 23.1472C25.775 22.7829 26.1171 22.3926 26.5644 22.2625C27.2485 22.0804 27.959 22.5748 28.38 23.1472C29.3272 24.4223 29.5114 26.1137 29.222 27.675C28.9325 29.2363 28.2221 30.6674 27.5116 32.0986" stroke="#1B1B20" stroke-width="2.5" stroke-miterlimit="10" stroke-linecap="round" stroke-linejoin="round"/>
<path d="M108 80.9998C112.326 86.3331 116.674 91.6665 121 96.9998" stroke="#1B1B20" stroke-width="2.5" stroke-miterlimit="10" stroke-linecap="round" stroke-linejoin="round"/>
<path d="M101 30.496C105.512 22.7859 109.787 14.9451 113.851 6.99982" stroke="#1B1B20" stroke-width="2.5" stroke-miterlimit="10" stroke-linecap="round" stroke-linejoin="round"/>
<path d="M89.3835 38.8062C89.4716 36.2244 89.5532 33.617 89.6413 31.0352" stroke="#1B1B20" stroke-width="2.5" stroke-miterlimit="10" stroke-linecap="round" stroke-linejoin="round"/>
<path d="M92.7998 87.1057C94.4317 91.6631 95.8596 96.3 97.0835 100.99" stroke="#1B1B20" stroke-width="2.5" stroke-miterlimit="10" stroke-linecap="round" stroke-linejoin="round"/>
<path d="M67.7436 90.2597C66.1664 92.7337 64.5769 95.2299 62.9997 97.704" stroke="#1B1B20" stroke-width="2.5" stroke-miterlimit="10" stroke-linecap="round" stroke-linejoin="round"/>
<path d="M38.8032 93.4234C38.0449 93.9463 37.2866 94.4692 36.5347 94.9792" stroke="#1B1B20" stroke-width="2.5" stroke-miterlimit="10" stroke-linecap="round" stroke-linejoin="round"/>
<path d="M95.6846 14.6766C95.8053 14.1123 95.9066 13.5641 96.0273 12.9998" stroke="#1B1B20" stroke-width="2.5" stroke-miterlimit="10" stroke-linecap="round" stroke-linejoin="round"/>
<path d="M64.961 33.4809C62.6407 29.6626 60.3203 25.8181 58 21.9998" stroke="#1B1B20" stroke-width="2.5" stroke-miterlimit="10" stroke-linecap="round" stroke-linejoin="round"/>
<path d="M145.553 46.2658C145.936 46.7357 146.346 47.4406 146.729 47.9105C148.341 49.8425 148.98 51.0173 150.566 52.9231C150.847 53.2364 152.305 53.3147 152.101 52.9753C152.305 53.0014 152.536 53.0014 152.766 52.9753C153.84 52.7665 154.505 51.6177 154.352 50.5474C154.352 50.469 154.301 50.3907 154.224 50.3646C154.275 50.208 154.301 50.0774 154.326 49.9208C154.505 48.7199 154.173 47.4667 153.968 46.2658C153.763 45.091 153.61 43.8901 153.38 42.7413C153.226 42.0626 152.945 41.2794 152.305 40.9661C152.484 40.6789 152.177 40.209 151.845 40.4439C150.694 41.2794 149.517 42.1148 148.366 42.9241C147.855 43.2896 147.343 43.6551 146.857 44.0206C146.601 44.2033 146.346 44.3861 146.064 44.5949C145.885 44.7255 145.655 44.856 145.501 45.0388C145.143 45.4043 145.246 45.8742 145.553 46.2658Z" fill="#1B1B20"/>
<path d="M142.788 21.7931C140.828 23.8522 138.345 25.6246 135.993 27.2406C135.313 26.3805 134.869 24.8427 134.582 23.8001C134.268 22.7315 133.98 21.6628 133.98 20.542C133.98 19.4213 134.294 18.2744 135.052 17.4664C135.81 16.6584 137.064 16.2675 138.084 16.6845C138.554 16.8669 138.92 17.2058 139.286 17.5707C140.331 18.5872 141.69 19.9686 142.396 21.2458" fill="#1B1B20"/>
<path d="M21.7412 31.011C23.0471 32.044 24.6858 31.8056 26.2989 32.0175C26.4013 32.0705 26.7597 32.3619 26.8878 32.3619C27.3743 32.4413 27.5279 31.9381 27.8095 31.5408C28.0912 31.117 28.2704 30.5872 28.4241 30.1105C28.6033 29.5542 28.7569 28.945 28.8593 28.3623C29.2178 26.3493 29.3714 23.6476 27.4255 22.4822C27.3231 22.2438 27.0414 22.2173 26.8878 22.3233C26.6573 22.2173 26.4013 22.1909 26.1452 22.2703C25.6587 22.4028 25.3771 22.8795 25.1467 23.3033C24.609 24.3363 24.0969 25.3693 23.5592 26.4288C23.3031 26.932 23.0471 27.4618 22.791 27.965C22.5606 28.4418 22.2789 28.9186 22.0741 29.4218C22.0229 29.5542 21.9717 29.6867 21.9461 29.8191C21.6132 29.8191 21.434 30.7991 21.7412 31.011Z" fill="#1B1B20"/>
<path d="M79.0709 29.826C78.8104 21.5112 78.6078 17.3147 78 8.99982" stroke="#1B1B20" stroke-width="2.5" stroke-miterlimit="10" stroke-linecap="round" stroke-linejoin="round"/>
<path d="M106 37.6799L117.245 26.9998" stroke="#1B1B20" stroke-width="2.5" stroke-miterlimit="10" stroke-linecap="round" stroke-linejoin="round"/>
<path d="M108.285 69.1975C108.337 68.9414 108.337 68.6597 108.311 68.4036C108.258 67.6867 108.101 66.9697 107.865 66.2783C107.733 65.9198 107.287 65.9454 107.156 66.2271C107.077 66.2271 106.998 66.2783 106.946 66.3295C106.867 66.4063 106.788 66.5087 106.736 66.5856C106.683 66.6112 106.657 66.6624 106.631 66.7136C106.473 66.9184 106.316 67.1489 106.184 67.3794C106.158 67.4306 106.132 67.4562 106.106 67.5074C105.791 67.3794 105.502 67.6098 105.554 67.9427C105.554 67.9427 105.554 67.9427 105.554 67.9683C105.528 68.0451 105.502 68.122 105.475 68.1988C105.187 67.9683 104.688 68.3012 104.898 68.6853C105.213 69.2487 105.659 69.7352 106.184 70.0937C106.289 70.1705 106.421 70.2473 106.552 70.3242C106.552 70.3498 106.578 70.3498 106.578 70.3754C106.709 70.5034 106.919 70.5546 107.077 70.5034C107.156 70.4778 107.234 70.4522 107.313 70.401C107.55 70.6058 107.865 70.6058 108.075 70.3754C108.311 70.1193 108.258 69.7864 108.232 69.4791C108.285 69.4023 108.285 69.2999 108.285 69.1975Z" fill="#1B1B20"/>
<path d="M102.09 52.1039L102.037 52.0291C102.011 52.0042 102.011 52.0042 101.984 51.9793C101.958 51.9045 101.905 51.8547 101.826 51.8048C101.746 51.755 101.693 51.7301 101.614 51.6803C101.587 51.6553 101.561 51.6553 101.534 51.6304C101.481 51.0573 101.217 50.534 100.767 50.1354C100.502 49.9111 100.052 49.5622 99.6813 49.8114C99.3371 50.0357 99.2577 50.4344 99.2312 50.7832C99.2048 51.1819 99.2577 51.6055 99.3901 52.0042C99.443 52.1786 99.6548 52.3281 99.8666 52.2534C99.9724 52.2284 100.052 52.1537 100.105 52.054C100.264 52.2035 100.449 52.3032 100.634 52.3281C100.634 52.3281 100.634 52.3281 100.661 52.3281C100.661 52.3281 100.661 52.3281 100.687 52.3281C100.714 52.4029 100.767 52.4776 100.846 52.5025C100.925 52.5275 101.031 52.5773 101.111 52.6022C101.19 52.6271 101.296 52.6271 101.402 52.6521C101.561 52.677 101.72 52.6521 101.878 52.6271C101.958 52.6022 102.064 52.5275 102.117 52.4527C102.143 52.4029 102.17 52.3281 102.17 52.2783C102.143 52.2534 102.143 52.1786 102.09 52.1039Z" fill="#1B1B20"/>
<path d="M61.7424 68.5776C61.7424 68.4035 61.6686 68.2294 61.5702 68.0802C61.5702 67.9807 61.5456 67.8563 61.521 67.7568C61.4964 67.6573 61.4225 67.5579 61.3487 67.4832C61.2749 67.4086 61.1765 67.3838 61.078 67.3838C61.0534 67.3589 61.0288 67.334 61.0042 67.334C60.9304 67.2843 60.832 67.2843 60.7335 67.2843C60.7089 67.2843 60.7089 67.2594 60.6843 67.2594C60.6351 67.2345 60.5613 67.2345 60.5121 67.2345C60.4382 67.1599 60.3644 67.1102 60.266 67.0853C60.0937 67.0604 59.9461 67.135 59.8477 67.2843C59.7738 67.4086 59.7246 67.5827 59.6754 67.732C59.6016 68.0553 59.577 68.3786 59.6262 68.702C59.6508 68.8512 59.7 69.0253 59.7738 69.1746C59.7738 69.1994 59.7738 69.2243 59.7984 69.2492C59.8477 69.473 60.0199 69.672 60.2168 69.7218C60.4382 69.7964 60.6597 69.7218 60.8073 69.5476C60.832 69.5228 60.8566 69.473 60.8812 69.4482C60.8812 69.4482 60.8812 69.4482 60.9058 69.4482C61.0288 69.4979 61.1765 69.4482 61.2503 69.3487C61.2995 69.2989 61.3241 69.2492 61.3733 69.1746C61.4225 69.1497 61.4718 69.0999 61.4964 69.0502C61.644 68.9756 61.7424 68.7766 61.7424 68.5776Z" fill="#1B1B20"/>
</g>
<defs>
<clipPath id="clip0_522_8905">
<rect width="165" height="105" fill="white"/>
</clipPath>
</defs>
</svg>
