<svg width="64" height="64" viewBox="0 0 64 64" fill="none" xmlns="http://www.w3.org/2000/svg">
<path d="M15.7007 38.9209V27.3495C15.7007 23.7248 16.261 20.2582 16.3731 19.7842C16.4852 19.3102 17.1576 16.3478 19.6791 15.5183C19.7492 15.4952 19.8041 15.4766 19.8463 15.4619C19.9415 15.4139 20.0662 15.3852 19.8463 15.4619C19.7038 15.5337 19.6271 15.6487 20.8682 15.5183C22.7909 15.3163 20.1394 20.0168 22.8464 21.5403C25.5535 23.0639 40.6837 23.1147 42.8181 22.169C44.9526 21.2233 43.4309 14.9851 44.5516 15.5183C47.8639 16.4755 48.0771 18.848 48.4133 20.6254C48.7495 22.4028 48.8725 30.9225 48.8725 32.5814V50.2006C48.8725 53.2475 48.3578 53.9878 47.8639 55.036C47.37 56.0841 47.1915 57.4651 43.7174 57.4651H30.7177C29.4849 57.4651 21.304 57.8206 19.1748 56.8134C17.0455 55.8062 16.3731 51.7182 16.3731 50.9479C16.3731 50.3318 15.9248 42.6732 15.7007 38.9209Z" fill="#FFD000"/>
<path d="M23.262 27.5175C24.1175 27.8676 24.8553 28.949 24.3664 29.8733C24.0252 30.707 23.0551 31.0991 22.1996 30.749C21.3441 30.3989 20.8391 29.4032 21.1803 28.5694C21.5215 27.7357 22.4065 27.1674 23.262 27.5175Z" stroke="#1B1B20" stroke-width="2.5" stroke-linecap="round" stroke-linejoin="round"/>
<path d="M24.7335 46.4122C24.7335 47.2303 24.0121 48.1972 22.9715 48.1066C22.0706 48.1066 21.3403 47.4433 21.3403 46.6252C21.3403 45.807 22.0706 45.0596 22.9715 45.0596C23.8724 45.0596 24.7335 45.594 24.7335 46.4122Z" stroke="#1B1B20" stroke-width="2.5" stroke-linecap="round" stroke-linejoin="round"/>
<path d="M24.7335 37.8223C24.7335 38.6405 24.0121 39.6074 22.9715 39.5167C22.0706 39.5167 21.3403 38.8535 21.3403 38.0353C21.3403 37.2172 22.0706 36.4697 22.9715 36.4697C23.8724 36.4697 24.7335 37.0042 24.7335 37.8223Z" stroke="#1B1B20" stroke-width="2.5" stroke-linecap="round" stroke-linejoin="round"/>
<path d="M12.9824 25.4952V37.0667C13.2273 40.8189 13.7171 48.4775 13.7171 49.0937C13.7171 49.8639 14.4517 53.9519 16.7782 54.9591C19.1046 55.9663 28.043 55.6108 29.3899 55.6108H43.5933C47.3891 55.6108 47.5841 54.2299 48.1238 53.1817C48.6634 52.1335 49.2257 51.3932 49.2257 48.3464V30.7272C49.2257 29.0682 49.0914 20.5486 48.724 18.7712C48.3567 16.9938 48.1238 14.6212 44.5047 13.6641C43.2803 13.1308 36.6141 12.42 33.3081 12.3016C30.0021 12.1831 20.0842 12.8346 17.3292 13.6641C14.5742 14.4935 13.8395 17.4559 13.7171 17.9299C13.5946 18.4039 12.9824 21.8705 12.9824 25.4952Z" stroke="#1B1B20" stroke-width="2.5" stroke-linecap="round" stroke-linejoin="round"/>
<path d="M29.1794 11.9813C27.6398 10.4416 27.7681 7.10598 29.1794 6.52849C30.5907 5.951 32.9001 5.56636 33.9266 6.52849C34.953 7.49062 37.0058 9.09448 33.9266 11.9813" stroke="#1B1B20" stroke-width="2.5" stroke-linecap="round" stroke-linejoin="round"/>
<path d="M25.3154 13.4336C25.3154 13.9487 25.3154 16.4818 25.3154 16.9539C25.3154 17.426 25.6091 18.3705 27.1753 18.3705C28.7414 18.3705 35.7892 18.7568 37.4533 18.3705C39.1173 17.9841 39.1173 16.9539 39.2152 16.9539C39.2935 16.9539 39.2479 14.7501 39.2152 13.6482" stroke="#1B1B20" stroke-width="2.5" stroke-linecap="round" stroke-linejoin="round"/>
<path d="M28.8452 29.78C31.7874 29.7799 35.3894 29.3566 42.6536 29.78" stroke="#1B1B20" stroke-width="2.5" stroke-linecap="round" stroke-linejoin="round"/>
<path d="M29.6909 37.9965C30.7247 37.8682 35.2505 37.9965 42.6536 37.9965" stroke="#1B1B20" stroke-width="2.5" stroke-linecap="round" stroke-linejoin="round"/>
<path d="M29.6909 46.5034C32.282 46.5201 35.0825 46.5381 42.654 46.5867" stroke="#1B1B20" stroke-width="2.5" stroke-linecap="round" stroke-linejoin="round"/>
<path d="M43.3658 16.4775C43.3658 18.5134 43.6025 20.0178 42.5006 21.5161C41.3987 23.0145 23.1103 22.1269 22.1576 21.1883C21.2049 20.2498 21.4817 16.4777 21.4817 16.4777" stroke="#1B1B20" stroke-width="2.5" stroke-linecap="round" stroke-linejoin="round"/>
</svg>
