<svg viewBox="0 0 174 55" fill="none" xmlns="http://www.w3.org/2000/svg"><path d="M10 26.8a.6.6 0 00-1 .1L4 37a.6.6 0 00.6.9h7a.6.6 0 00.5-.4c1.5-3 .6-7.8-2-10.6zm3.7-9.1a13.2 13.2 0 00-.8 13l3.4 6.7a.6.6 0 00.5.4h7a.6.6 0 00.5-.9l-9.6-19.2a.6.6 0 00-1 0zM155.5 21v16.8h3.6V25l1.5 3.4 5 9.4h4.5V21h-3.5v10.8l-1.4-3.1-4-7.7h-5.7zm-22.7 0H129v16.8h4V21zm-8.4 11.8c0-3-1.5-4.3-6-5.2-2.3-.6-3-1.1-3-1.9 0-1 1-1.4 2.5-1.4 2 0 3.9.6 5.7 1.5v-3.9c-1.7-.8-3.6-1.2-5.5-1.1-4.4 0-6.6 1.9-6.6 5 0 2.4 1.1 4.4 5.6 5.2 2.7.6 3.3 1 3.3 2 0 .8-.6 1.4-2.5 1.4-2.3 0-4.5-.7-6.5-1.8v4c1.3.7 3.1 1.4 6.5 1.4 4.6 0 6.5-2 6.5-5.2m-16.2 0c0-3-1.6-4.3-6-5.2-2.4-.6-3-1.1-3-1.9 0-1 1-1.4 2.5-1.4 2 0 3.8.6 5.7 1.5v-3.9c-1.8-.8-3.7-1.2-5.6-1.1-4.3 0-6.6 1.9-6.6 5 0 2.4 1.2 4.4 5.7 5.2 2.7.6 3.2 1 3.2 2 0 .8-.5 1.4-2.4 1.4-2.3 0-4.6-.7-6.5-1.8v4c1.3.7 3 1.4 6.4 1.4 4.7 0 6.6-2 6.6-5.2M65 21v16.8h8l1.2-3.6H69V21h-4zm-15.9 0v3.6h4.4v13.2h3.9V24.6H62V21H49.1zm-5.7 0h-5.1l-5.9 16.8H37l.8-2.8c2 .6 4.3.6 6.3 0l.8 2.8h4.5l-6-16.8zM41 32c-.8 0-1.5-.2-2.2-.4l2.2-7.3 2.1 7.3-2.1.3zm45.8-11h-5.1l-5.9 16.8h4.5L81 35c2 .6 4.2.6 6.3 0l.8 2.8h4.4L86.8 21zm-2.6 11c-.7 0-1.4-.2-2.1-.4l2.1-7.3 2.2 7.3c-.7.2-1.4.3-2.2.3zm62.7-11h-5.2L136 37.8h4.5l.8-2.8c2 .6 4.2.6 6.2 0l.9 2.8h4.4L147 21zm-2.6 11c-.7 0-1.4-.2-2.1-.4l2.1-7.3 2.2 7.3c-.7.2-1.5.3-2.2.3z" fill="#1B1B20"/></svg>