<svg xmlns="http://www.w3.org/2000/svg" width="198" height="99" fill="none" viewBox="0 0 198 99">
  <path fill="#1B1B20" d="M75.93 43.06h-3.928v18.756h3.929v-7.604h8.618v7.604h3.802V43.06h-3.802v7.605H75.93V43.06Zm30.164 10.772c0 3.042-1.521 4.69-4.309 4.69-2.788 0-4.31-1.648-4.31-4.817V43.06h-3.801v10.772c0 5.323 2.915 8.364 8.111 8.364 5.196 0 8.111-3.041 8.111-8.49V43.058h-3.802v10.773Zm36.753-10.773-4.309 12.928-4.182-12.928H130.3l6.591 18.757h3.168l4.309-12.293 4.182 12.293h3.295l6.464-18.757h-3.929l-4.182 12.928-4.309-12.928h-3.042Zm29.276 7.224h-6.97v-3.802h10.138V43.06h-13.94v18.757h14.321v-3.422h-10.519v-4.689h6.97v-3.422Zm8.111-7.224h3.802v18.757h-3.802V43.06Zm-54.243 14.829 1.648 3.928h4.055l-8.237-18.757-.127-.126h-3.295l-8.238 18.883h3.929l1.647-3.675.127-.253h8.491Zm-4.309-10.14 2.662 6.338.126.38h-5.829l.126-.38 2.915-6.337ZM34.488 59.916s.127-.127 0-.127c-5.83-12.674-13.814-22.432-13.814-22.432s-4.31 4.055-4.056 8.238c.127 3.168 2.535 4.942 2.535 4.942 3.802 3.676 12.927 8.365 15.081 9.379h.254Zm-1.52 3.168c0-.127-.254-.127-.254-.127l-15.209.507c1.648 2.915 4.436 5.196 7.351 4.563 2.028-.507 6.59-3.676 7.984-4.69.254-.253.127-.253.127-.253Zm.253-1.394c.126-.127 0-.253 0-.253-6.717-4.563-19.644-11.407-19.644-11.407-1.141 3.676.38 6.59.38 6.59 1.647 3.55 4.816 4.563 4.816 4.563 1.394.634 2.915.634 2.915.634h11.406c.127 0 .127-.127.127-.127Zm1.013-30.923c-.633 0-2.408.506-2.408.506-4.055 1.014-4.942 4.69-4.942 4.69-.76 2.28 0 4.816 0 4.816 1.394 5.956 7.984 15.842 9.378 17.87l.127.126c.127 0 .127-.127.127-.127 2.28-22.178-2.282-27.882-2.282-27.882Zm5.07 27.881c.127 0 .253-.126.253-.126 1.521-2.155 7.985-11.913 9.379-17.87 0 0 .76-2.915 0-4.816 0 0-1.014-3.675-5.07-4.69 0 0-1.14-.253-2.408-.506 0 0-4.562 5.83-2.28 27.755 0 .253.126.253.126.253Zm3.548 4.31s-.126 0-.126.126v.253c1.52 1.014 5.83 4.183 7.984 4.69 0 0 3.929 1.394 7.35-4.563l-15.208-.507Zm19.391-13.054s-12.927 6.97-19.644 11.532c0 0-.127.127-.127.254 0 0 0 .127.127.127h11.66s1.14 0 2.661-.634c0 0 3.169-1.014 4.943-4.69 0-.126 1.52-3.04.38-6.59ZM41.332 59.916s.126.126.253 0c2.155-1.14 11.28-5.703 15.082-9.379 0 0 2.408-1.9 2.534-4.942.254-4.31-4.055-8.238-4.055-8.238s-7.985 9.505-13.814 22.305c0 0-.127.127 0 .254Z"/>
</svg>
