<svg fill="none" viewBox="0 0 174 55" xmlns="http://www.w3.org/2000/svg"><path d="M141.9 49.6H32V5h109.9z" fill="#1b1b20"/><path d="M34.1 27.3c0 10.8 22.2 19.8 52.8 19.8 30.7 0 52.8-9 52.8-19.8S117.6 7.6 87 7.6s-52.8 9-52.8 19.7z" fill="#fff"/><path d="M67.2 17.5c-.3.4-.3.9-.3 1.4v5.9l4-5.1c.5-.7 1.1-1.8 1.1-2.2h10.4c-.7.4-1.5 1.3-2.2 2-.5.8-3.7 4.7-3.7 4.7a12294.1 12294.1 0 006.5 9.6H71.1c0-.5-.4-1.5-1-2.2l-3.2-5v5.8c0 .4 0 .9.3 1.4h-10c.3-.5.3-1 .3-1.4V18.9c0-.5 0-1-.2-1.4zm36.6 0h-19c.2.4.2.9.2 1.4v13.5c0 .4 0 .9-.3 1.4h19.1v-4.5c-.4.2-.9.2-1.4.2h-8v-2.1h7.7v-3.5h-7.7v-2.2h8c.5 0 1 0 1.4.3zm26.5 14.9c.2.5.4 1 .8 1.4h-10.4c0-.5 0-1-.3-1.4l-.4-1v-.2h-6l-.1.3-.3.9c-.2.5-.4 1-.3 1.4H105l.8-1.4 4.8-13.5c.2-.5.4-1 .3-1.4h13.8c0 .5.2 1 .3 1.4.5 1 4.9 12.6 5.2 13.5zm-11.7-4.6l-1.4-3.8-.3-1-.3 1-1.4 3.8zm-66.3-9c0-.4 0-.9.3-1.3H41.8c.2.4.2.9.2 1.4v13.5c0 .4 0 .9-.2 1.4h10.8c-.3-.5-.3-1-.3-1.4V18.9zm74.7 0a2.1 2.1 0 104.3 0c0-1.2-.9-2.2-2-2.2h-.1a2 2 0 00-2.2 2zm3.9 0c0 .9-.8 1.7-1.7 1.7-1 0-1.7-.7-1.8-1.7 0-1 .7-1.7 1.6-1.8h.2c.9 0 1.7.7 1.7 1.7zm-.7 1.2h-.4l-.5-.9h-.6v1h-.3v-2.6h1c.4 0 .7.3.7.8 0 .3-.2.6-.4.8l.5 1zm-1-1.2c.3 0 .5-.2.5-.5 0-.2-.1-.4-.4-.4h-.6v.9h.6" fill="#1b1b20"/></svg>