<svg fill="none" viewBox="0 0 174 55" xmlns="http://www.w3.org/2000/svg"><g clip-rule="evenodd" fill="#1b1b20" fill-rule="evenodd"><path d="M31.4 20a3 3 0 012.1-.6h.8v-1H22v1h.8a2.9 2.9 0 012.1.6c.6.8.8 1.7.7 2.6v16c0 2.3-.5 3.3-3.2 3.3H22v1h12.3v-1H34c-2.7 0-3.2-1-3.2-3.2V22.5c-.1-.9.1-1.7.6-2.5zm27.2-1.6v1c3.7 0 3.2 2.1 3.2 6.4V33l.2 1.6-15.3-16.2h-8.2v1c2.7 0 3.6 1.3 3.5 3.8v13.4c0 4.9-.5 5.2-3.4 5.2v1h9v-1c-2.8 0-3.4-.5-3.2-4.8V25c0-.6-.1-1.1-.3-1.6l18.5 19.4h1.2V25.7c0-4.3-.4-6.4 3.4-6.4v-1zm27.5 11.8v1h.3c2.5 0 3 .4 3 2.7v6a8 8 0 01-8.3 1 9 9 0 01-3-2 12 12 0 01-2.9-8.3 11.8 11.8 0 012.9-8.5 8.2 8.2 0 015.9-2.4c2.2 0 4.4.8 6.1 2.2 1.3 1 2.2 2.4 2.6 4v.2h1l-.7-8.3h-1v.3c0 .5-.2 1.4-.7 1.4-.4 0-.7-.1-1-.3a16 16 0 00-6.5-1.3 14.3 14.3 0 00-10.3 4 13 13 0 00-2.7 14.2 11 11 0 003 3.8c2.8 2.4 6 3.4 10.4 3.4 3.3.2 6.5-.6 9.2-2.3l.6-.3v-6.4c0-2.7.3-3.2 2.6-3.2h.3v-1H86.1zm29.2-12.6h-2.2c.1.2.3.4.6.5 0 .2.2.3.4.4a1 1 0 00.7 0s.2-.3.2 0l.1.6v.5c-.2.3-.8.3-1 .6l-.2.2v.6l.8-.4v-.1l.7-.4v-.6l.1-.7V18a1 1 0 00-.3-.4zm5.5.1h-2l-.4.1a1 1 0 00-.3.2l.1 2c.3.1.7.3.7.7l1 .5.4-.6c-.3-.3-1.1-.2-1.1-.7l-.5-.3c0-.4 0-.8-.2-1.2h.1l.3.2c.3 0 .7.2 1 0l.2-.3.1-.1h.1l.4-.3c.2 0 .1 0 .1-.1zm1.4-2.7a6 6 0 00-1-.6l-.7.2a1 1 0 00-.5.4v.2l-.1.1c.7.3 1.3.9 1.6 1.5.2-.3.6-.1.8-.3l.1-.3c.1-.4 0-.8-.1-1.2zm-8.2.3c-.8.2-1.5.5-2 .8-.5-.3-1.3-.1-1.5-.6a1.5 1.5 0 01.4-.7l.3-.2.5-.2h.3c.7.2 1.8.3 2 1zm.8 6.9c0 .2-.2.3-.3.3l-.5.4v-.8zm.8-6a4 4 0 00-.6.8h-1v-.1c0-.3.3-.5.6-.6a2 2 0 011-.2zm3.4.7h-.9c-.4-.1-.1-.7-.7-.6 0 0-.1-.1 0-.2h.6c.5 0 .5.5 1 .5v.4zm0 5.3v.7l-.8-.7v-.1h.8z"/><path d="M151.4 31.3l-.1-1.3a15 15 0 00-1.3-4.6 14 14 0 00-4.7-6 9.5 9.5 0 01-3.1-3.2c-.4-.3-.8-.8-1.3-.9l.3.7a1.8 1.8 0 01-1.3-.6l.3-.3a2 2 0 00-.5-.1 11 11 0 00-4 .8v.1c.8.4 1 1.4 1.4 2 .1-.2.3 0 .5 0h.7l-.1-.4h.4c.5.2 1.2 0 1.4.5a3 3 0 00-1.3.3l.2.5-1.2-.4v.1a4 4 0 002 1.4c1.2.2 2.2-.3 3.3-.1 2.7 1.4 4.9 3.8 6 6.7v.4c.4.8.6 1.6.7 2.4v1c.2 1.5 0 3.1-.4 4.7a9.8 9.8 0 01-2.8 3.9 4.4 4.4 0 01-4 .8s-.2 0-.2-.2l.1-.3v-1.1l.2-2V35a15.2 15.2 0 00-2.8-8c-.7-1.2-1.8-2-3-2.6a2.2 2.2 0 00-2.3.4l-.4.6v.8c-.7.4-1.5.7-2.2.7l-.6.1h-.6c-1-.2-1.9-.6-2.6-1.2v-1.2a1.4 1.4 0 01-.8-1l.6.3c0-.7 0-1.3-.3-2-.3 0-.6-.2-.8-.3-.3-.2-.5-.5-.6-.8l1 .4-1-3.2c-.3-.7-1-1-1.6-1.5-.2-.3-.3-.6-.6-.7-.4 0-.3-.3-.4-.5l.5.1c-.3-1.2-1-2.3-2-3.1h-.2l-1.4.2.8-.5a2 2 0 00-1-.4c-.3.2-.6.4-1 .4v-.3a.3.3 0 01.3-.4h-1.4c0 .3-.3.5-.3.7v.2a5 5 0 01-.7.7v-.4l.2-.8.1-.3-1 .5c-.5-.4-1.1-.7-1.7-.9h-.1c.5.3.3 1 .3 1.5l-.3-.2c-.1-.4-.6-.7-.6-1.1a6 6 0 00-1.4.4 1.1 1.1 0 01.8.6L112 12s0-.2-.2-.2a4 4 0 00-.7.5 6 6 0 00-.7.9l-.6.9.5.1-.7.6v1.3l-.7 1-.2 1-.2 1v3l-.6.3V24c.1-.3.5-.5.7-.7v1l-.4.3a.5.5 0 00-.2.5v1c0 .1 0 .3.2.3 0-.2.2-.3.3-.5l.5-.2-.1.6-.2.5-.3.2-.1.3c.3 1.8.8 3.5 1.5 5.2l-.3.4-.3.9-.2.4-.2.5-.2.3v.4c-.3.5-.4 1.1-.6 1.6v.4l-.2.3-.6-.3a2.3 2.3 0 00-2.3.5 2 2 0 00-1.5.3 2 2 0 00-.7 1v.5c-.3.2-.5.4-.6.7v.2a2.8 2.8 0 00.5 2.2H116l-.5-.8c-.3-.5 0-1-.1-1.6l.8-1.6.2-.3.6-.3c.4 0 .6-.2 1-.1.3.4.3-.4.7-.5a2.2 2.2 0 012.4.8c0 .1.2.1.1.2h-.3c-.6-.1-1.3-.5-1.8-.2l-.1.4v.5c.3 0 .6.3.9.6a1.5 1.5 0 011-.6c.2 0 .5 0 .8.2.5.5.2 1.2.2 1.8.4.2 1 .3 1.3.6-.2.1-.4.3-.7.3l-.7-.1s-.2 0-.3-.2l-.7 1H131l-.5-.9-.4-1.1 1-1.5h1.7c.3-.2.4-.6.7-.6a2 2 0 011.6.4v.1c-.2.3-.6 0-.8 0-.3.1 0 .3 0 .5l-.2.1a.6.6 0 01-.4-.1v-.1c-.3.2-.4.4-.5.7l.5.5-.2.7-.6-.3v2h1l.1-1.4c.2-1 .7-1.7 1.4-2.4.6-.5 1 .5 1.6.8v.2c.2 0-.1.2-.2.2-.3.1-.5-.2-.7-.4l-.5.6.5.8a1 1 0 01-.4.8l-.5-1c-.4 0-.5.5-.6 1 0 .3-.3.4-.2.8h5.3a3 3 0 001.7-.5c2 .3 4-.2 5.6-1.3a12.6 12.6 0 003.2-4l.2-.7a9.8 9.8 0 00.7-3c.2-.8.3-1.6.3-2.5zm-12.6-14.8l-.6.1-.5-.1 1-.5 1 .5h-1zm2.6 1.4c-.2-.3-.5-.6-.8-.7l.9-.1c.3.2.5.6.6 1v.3c0-.3-.3-.5-.6-.6zm-22 14.7c-.5-.3-.6-1-1.2-1.2V31l1.3.4.3.3.7.7c-.3.2-.7.2-1 .1zm.1 2.5c-.3-.1-.7-.3-1-.6v-.4h.6zm-3.3.2l-.5-.7h1.3l.2.7a1.2 1.2 0 01-1 0zm-.7-6.7l.1.8v.3c-.4-.3-.7-.7-.9-1.3v-.1c.2.3.5.3.8.4zm-1.5-1.2l-.1 1a3 3 0 01-.7-1.5zm-2-.4v.2c.3.6.8 1 .9 1.6a3 3 0 01-1.5-1.2v-1c.2 0 .4.2.6.4zm0 2.8c0 .4-.3.8-.6 1.1l-.4.4v-.8l.1-.6a.9.9 0 011 0v-.1zm-.7 2.5c.6-.3 1.1-.8 1.4-1.4h.4l-.4 1.3a2 2 0 01-1.3.2zm-1.6-3.5l.4-.5.7.2-1 1zm4.4 3l.7-.6h.6c-.2.4-.4 1-1 1-.3.2-.7.3-1 .2.1-.2.4-.3.7-.5zm1.3 1.4l.7-1c.3-.2.6 0 1-.2l-.2.3v.2l-.6.7-1.3.5.3-.5zm6.3 2.1c0-.3.3-.6.5-.8.7.3 1-.9 1.6-.2l.7.2c.6 0 .7.6.9 1-.3 0-.7 0-.9-.4-.1 0-.2-.2-.4-.1-.4.4-.8-.2-1.3 0a4 4 0 00-1 .4h-.1zm-3.5-6.2l.7-.7.3 1.5c-.1-.2-.9-.4-.9-.8zm2.1-1.8l.3 1.1v.4c0 .3.6.5.7.7-.3.1-.9.2-1.1-.1s-.3-.5-.3-.8v-.3l.2-.6.3-.4zm1.7.3c0 .4.2.6.5.8a1.3 1.3 0 01-1.2-.6l-.4-1.3c.5.4 1.2.4 1 1zm2.8 3.3c-.3 0-.7 0-1-.2a4 4 0 01-1-.9l.9-.3.3.5.9.9zm2-1.4a3 3 0 01-2-.5c.3 0 .6-.5.8-.1.5.2 1 .4 1.3.7h-.1zm-1.3-3.4h-.8l-.2-.5c.3-.1.6-.3.9 0l.6.6h-.5zm-2.4 1l.6-.4.8.6c-.5 0-1 .2-1.3-.1zm-1.1 3.7h.1l.4.5 1 .5a.3.3 0 00-.3.1 3 3 0 01-2.5-.9c.5 0 .9 0 1.3-.2zm-1 5.9l.1-.5a4 4 0 011-.3l.7-.1a3.4 3.4 0 012.8 1v.4c-.4-.2-.9-.2-1-.5l-1-.2c-.3.2-.7.1-1 .3-.4.1 0-.3-.2-.3-.6 0-1 .3-1.5.6v-.4zm5.6-8.7l.6-.3.8.5a1.7 1.7 0 01-1.3-.2zm-2.1-4.8v-.7c0 .2.2.4.3.5.3-.2.3.3.5.5l.2.5c-.5.2-.8-.3-1-.7zm-1.3-4l.4.7v.8l-.7.2.1-.5zm-11.8-5.6l.5-.2c.3-.2.7-.6 1.2-.3l1 .2a.4.4 0 00.1.5c.5 0 .6.6.9 1 .2.3.5 0 .7 0l1 .4a3 3 0 012.2-.4c0-.3.1-.5.3-.8l.1-.1h.1c.4-.4.9-.7 1.3-.6.5.2 1 .2 1.4.6s.4.9.7 1.3c-.1.4 0 .8-.2 1v.2c0 .2-.1.3-.3.4l-.4.3-.5.2c.1.4.2.7.1 1l-.1.7-.2.3a.8.8 0 00.6-.3v.8l-.1.3-.6.6v.4l-.1.2-.2.3-.8.4v.2c1.2 0 2.4.4 3.4 1v.4c-1-.6-2-1-3.2-1l-.1.5c1 .5 2 1 2.8 1.8v.6a9.4 9.4 0 00-3-2l-.5.7c-.6-.5-1.2-.8-2-1-.2 0-.3-.2-.3-.4v-.4c.2 0 .3-.2.4-.4l.3-.4v-.1h.5V21.2c0-.5-.8-.5-1.3-.6-.5 0-1.2 0-1.7.3a.2.2 0 000 .1v.5l.2.1h.4a1 1 0 00.6.9v.6c-.2.4-.7.2-1 .4-.5.1-1 .3-1.4.6-.3-.1-.5-.4-.7-.6-.8.3-1.5.7-2.1 1.2l-.7.6v-.7c.8-.6 1.7-1.2 2.6-1.5v-.7h-1c-.8.2-1.5.5-2.2 1v-.5l.2-.2c1-.5 2-.8 3.1-.8a.3.3 0 000-.2c0-.2 0-.4-.2-.5-.5-.4-.8-1-1-1.8h.2a4.6 4.6 0 010-2.3c-.5-.2-1-.6-1.2-1l-.4-1.1.2-.3c0-.4.2-.8.3-1.1zm-1 2.8v.9l-.6.3V17l.5-.5zm-.7 2.8l.1-.3.7-.2-.3.4v.8l-.2.8v.6l-.4-1.4v-.7zm3 19.6c-.2-.4 0-.8-.4-1l.2-.4v-.1c-.1-.2-.3-.2-.4-.3h-.2a6 6 0 01-1.6-1.1c-.4-.2-.7 0-1 .2l-.2-.3c.3-.2.4-.8.8-.7.3 0 .6.1.8.3.3 0 .5.4.8.6l1 .7a.5.5 0 00.3.4c.5 0 .3.6.5 1zm-4-1.6l.3-.3h.2a.2.2 0 01.2 0v.1c.2 0 .6 0 .6.3.2.2.8.2.8.5v.6c-.5-.3-1-.6-1.7-.8h-.5zm-5 3.3l-.2.2v1.6a.8.8 0 01-.5-.4v-1.7l.8-.9a1.3 1.3 0 01.5 1.3l-.7-.2zm2.8-.2l-.3.4a1.3 1.3 0 00-.7-.8l-.2.3V42l-.7.4a3.5 3.5 0 01-.1-1.1v-.5c0-.4.1-.9.3-1.3v-.2l.5-.8h.8l-.1.2-.2.4c.2.2.6 0 .6.4v.8zm3 .3l-1 1.4v-.5l.2-1s.1-.1 0-.2c-.3 0-.5-.3-.8-.3l-.2.3v.2l-.2.4-.5.7-.1.3v.2-1.7l.2-1 .2-.3a2 2 0 011.3-.7l.4.2-.2.4c.3.2.9.5.8 1zm2.2-.3l-.6-1.6-.3-.3c.3 0 .8 0 1 .4l.2.5zm2-4v.2c-.3-.5-.6-1-1.2-1.2a3 3 0 01-.7-.8c-.3 0-.6 0-.8-.2-.3-.2-.7.1-1 .2l-.2-.2.6-.7c.6.1 1.3 0 1.8.6l.9.6v.1l.5.5.1.5v.5zm3.7-6.6l-.5.5-.2-1c.4-.1.6-.3.8-.6v.5zm.5-3.8l-.2.6v.2c-.2.2-.5.2-.8.2v-.4l-.2-.7a.2.2 0 000 .1.4.4 0 01-.2.3l-.2.5v.1a1 1 0 01-.8-.3v-.8h-.1l-.5.4a2 2 0 01-.3-1.4c1.3-.6 2.8-.6 4.1-.1.2 0 .4 0 .5.3l-.2.8-.5.7-.4-.7-.1.1h-.2v.1zm5.8 14.5l-.3.2c-.2-.3 0-1-.5-1.2-.3 0-.6-.2-.8-.4l.2-.1c.1 0 .3-.1.4 0a.8.8 0 01.3.5l.6.1.1.5zm2.6-.3c-.2-.4-.3-1.1-1-1.2 0-.3-.2-.6-.4-.8h-.8c0 .1.5.3.5.6.1.3.5.4.7.7v.9l-.5.3c0-.6.1-1.3-.5-1.6-.5.1-.6-.6-1-.8 0 0-.1-.4-.3-.3-.3.1-1 .1-1.3.4h-.1v-.4a.4.4 0 01.3-.3c.3-.2.7-.1 1-.2l.6-.2 2.1.6a1.3 1.3 0 01.6 1c.1 0 .4 0 .5.3zm1.3-1.5v.4l-.4-.7V37.7l-.4-1.7c.3.3.8.6.8 1.1v1.7zm5.5-8v.1l-1.9-2c.6 0 .8.6 1.4.7l.4.5v.7zm-4.4-.9l.5.8v.2l-.2.4a.8.8 0 01-.4-.8v-.5zm.8 6.3c0-.4-.2-1-.5-1.3a.7.7 0 00.1-.3c-.2-.2-.5-.3-.5-.6v-.3l.4-.5a.2.2 0 01.1.1l.2 1c0 .4.4.4.5.7l-.4 1.2zm1-3.6c-.2.1-.3.3-.5.3l-.4-.8.1-1 .4.2v.6l.3.6zm1.4 3.3l-.1.2-.2.3-.2.3-.2.3v-.3a1.2 1.2 0 00-.1-1c-.1 0-.4 0-.4-.2 0-.4.1-1-.3-1.3v-.2c.2-.4.6-.5.8-.7.2.3 0 .7.1 1l.2.6v.2l-.1.3.1.2.3.1v.2zm.6-.9c-.2 0-.1-.2-.2-.4L132 33c-.4-.7-.8-1.4-1-2.2l-.7-.7c.3 0 .7.1 1 .3a.6.6 0 00.2.5c.7.2.6.8 1 1.2l-.2.2h-.1v.2c.2 0 .4.2.6.5v.3l-.3 1.6zm1.4-1.4v.5l-1-1.4v-.2h.3s.3-.1.4 0l.2.4v.7zm5.9 6.1c0-.5-.6-.8-.8-1.3l.3-.6.6.7-.1.4v.2s.2 0 .2.2-.2.3-.3.4zm-1.6-6.3V33l-.1-.1a2 2 0 00-1.6.1c-.2 0-.3-.4-.4-.5-.1-.2 0 0 0-.1a.7.7 0 00.6-.2c.6-.2 1.1-.1 1.6 0 0 .5.7.6.7 1.1v.4l-.8-.4zm.4-1.7l-.2-.4V31c-.3-.2-.7 0-1 .1-.3 0-.5 0-.6.2l.1.2-.6.3a1 1 0 01-.7-.2v-.7c.2-.1.6 0 .8-.3.6-.4 1.3 0 1.8.1a.6.6 0 00.5-.2c.3.1.5.4.8.4l.2.9c-.4 0-.8-.3-1-.4zm-1.3-2.3c-.5 0-.8.4-1.3.4l-.6.4v-1c.3 0 .5-.3.8-.4.5 0 1 0 1.4-.2.4 0 .1.8.6.5a.7.7 0 01.6-.2 1.7 1.7 0 01.9 1c-.8-.3-1.6-.6-2.5-.6h.1zm-.7-2l.7.1.3.6c-.5 0-1.3-.3-1.7.1l-.6.3v-.7c.3-.3.7-.8 1.2-.4zm-1.5-1.3l.5-.5c.2 0 .5-.2.7 0 0 .5.6.3 1 .3l.4.7c-.6-.2-1.3-.3-2-.3l-.6.3v-.1c-.2-.1-.1-.3-.1-.4zm2.2 12.7L136 38v-.1a.5.5 0 00-.5-.2 1 1 0 01-.6.2c.3-.2.3-.6.7-.8 0-.2.2 0 .3 0l.6.2v.3l.5.2a.9.9 0 01.5.7l-.2.2zm1-1.8v.7l-.7-.6V36.6c-.4-.5-1-.2-1.5-.2l-.2-.2V36l.3-.4.7-.2c.4 0 .6.4 1 .4l.4.7v.2zm.4-2.2v.9c-.2 0-.2-.3-.4-.4a1.5 1.5 0 00-1.2-.6c-.3 0-.5.3-.8.4l.1-.2V34a.4.4 0 01.3-.2h.6c.2.6 1 .2 1.3.7zm1.9 3l-.1.1-.5-.7v-.2c0-.1 0-.3.2-.4v-.2a.3.3 0 01.4.2v.8l-.1.3z"/><path d="M116.8 40.5c0-.5 0-1 .2-1.4l-1 .3-.2.5h.3l.4.1c0 .4-.5.5-.8.6-.2.8.5 1.2.6 1.9h1c-.3-.6-.5-1.3-.5-2zm1.9-.1l-.7-.6-.4.6c0 .7.1 1.4.4 2h.7l.1-2zm1.8-.3a.8.8 0 00-.5-.1c-.3 0-.4.3-.5.5l-.3 2h.8l.4-1.4c.1-.3.4-.7 0-1zm11.3-.6a4 4 0 00-.8.1l.2.2a1 1 0 01-.2 1l-.4-.5-.3.3c0 .7.2 1.3.6 1.9h.8l-.2-1.9c0-.4.1-.7.3-1z"/></g></svg>