<svg xmlns="http://www.w3.org/2000/svg" width="198" height="99" fill="none" viewBox="0 0 198 99">
  <path fill="#1B1B20" d="M115.746 77.264h4.399v1.018h-4.399v-1.018Zm-73.168-6.176-.394 10.22v.176c0 .867.256 1.044 1.634 1.142v.473c-1.004-.079-1.398-.098-1.95-.098-.55 0-.944.02-1.968.098v-.473c1.378-.098 1.575-.255 1.614-1.319l.414-9.668v-.118c0-.906-.276-1.103-1.634-1.181v-.492c.768.058 1.063.078 1.614.078.729 0 1.123-.02 1.87-.098l3.663 9.963 3.722-9.963c.886.078 1.3.098 1.89.098.492 0 .807-.02 1.556-.078v.492c-1.34.078-1.635.275-1.635 1.161v.138l.217 9.668c.02 1.064.197 1.221 1.614 1.32v.472c-1.24-.118-1.712-.157-2.46-.157-.75 0-1.222.039-2.462.157v-.473c1.339-.078 1.634-.295 1.634-1.22v-.099l-.177-10.2-3.249 8.782-.236.65-.276.729-.256.748-.217.65h-.295l-.216-.63-.276-.768-.276-.768-.236-.69-3.23-8.722Zm14.786 6.36c.197-2.264.945-3.426 2.205-3.426 1.28 0 1.93 1.102 2.048 3.426h-4.253Zm2.56 5.159c-1.792 0-2.58-1.379-2.6-4.45h5.868c-.04-3.032-1.28-4.647-3.603-4.647-2.363 0-3.84 1.91-3.84 4.942s1.477 4.805 4.017 4.805c1.93 0 3.19-1.202 3.446-3.23h-.788c-.236 1.674-1.103 2.58-2.5 2.58Zm4.44-8.368v-.355c1.123-.098 1.792-.217 2.6-.453.098.729.137 1.044.177 1.634v.217c.433-1.122 1.28-1.772 2.303-1.772.985 0 1.713.65 1.713 1.595 0 .57-.334.945-.826.945-.454 0-.808-.276-.808-.67 0-.039.02-.117.04-.196l.039-.197v-.177c0-.276-.236-.473-.59-.473-1.025 0-1.674 1.24-1.674 3.19v4.115c0 .847.197 1.004 1.397 1.063v.394c-1.082-.098-1.496-.118-2.185-.118-.709 0-1.122.02-2.205.118v-.394c1.2-.059 1.417-.216 1.417-1.063v-6.439c-.02-.847-.118-.945-1.142-.965h-.256Zm14.326-.906v3.249h-.434c-.354-1.713-1.082-2.54-2.284-2.54-1.476 0-2.343 1.594-2.343 4.41 0 2.757.768 4.155 2.284 4.155 1.221 0 1.95-.867 2.186-2.6h.807c-.256 2.108-1.378 3.25-3.15 3.25-2.284 0-3.84-1.93-3.84-4.805 0-2.934 1.575-4.942 3.899-4.942.846 0 1.378.216 2.008.827l.532-1.004h.335Zm3.233 4.115c.197-2.264.945-3.426 2.206-3.426 1.28 0 1.93 1.102 2.047 3.426h-4.253Zm2.56 5.159c-1.792 0-2.58-1.379-2.6-4.45h5.869c-.04-3.032-1.28-4.647-3.604-4.647-2.363 0-3.84 1.91-3.84 4.942s1.477 4.805 4.018 4.805c1.93 0 3.19-1.202 3.445-3.23h-.787c-.237 1.674-1.103 2.58-2.501 2.58Zm8.722.118c-1.418 0-2.166-1.477-2.166-4.292 0-2.856.689-4.254 2.106-4.254 1.458 0 2.206 1.497 2.206 4.391 0 2.737-.729 4.155-2.146 4.155Zm3.701-1.674V69.683a18.7 18.7 0 0 1-2.973.539v.334c1.24 0 1.398.138 1.398 1.162v3.446c-.728-1.181-1.3-1.536-2.363-1.536-2.106 0-3.583 1.989-3.583 4.824 0 2.836 1.496 4.825 3.642 4.825 1.123 0 1.89-.513 2.442-1.615.079.748.079.827.276 1.575.807-.256 1.142-.335 2.303-.472l.296-.04v-.335c-1.32-.04-1.438-.138-1.438-1.339Zm3.798-3.603c.197-2.264.945-3.426 2.205-3.426 1.28 0 1.93 1.102 2.048 3.426h-4.253Zm2.56 5.159c-1.792 0-2.58-1.379-2.599-4.45h5.867c-.039-3.032-1.28-4.647-3.603-4.647-2.363 0-3.84 1.91-3.84 4.942s1.477 4.805 4.017 4.805c1.93 0 3.19-1.202 3.446-3.23h-.788c-.236 1.674-1.102 2.58-2.5 2.58Zm4.94.67v-3.289l.433-.02c.354 1.792 1.181 2.658 2.56 2.658 1.161 0 2.028-.767 2.028-1.772 0-.67-.374-1.122-1.339-1.555l-.749-.335-.905-.413c-1.438-.67-1.891-1.221-1.891-2.363 0-1.556 1.221-2.619 2.954-2.619.768 0 1.339.177 2.008.63l.335-.807h.355v3.052h-.454c-.177-1.575-.826-2.324-2.067-2.324-1.043 0-1.851.71-1.851 1.635 0 .787.295 1.043 2.087 1.83l.827.355c1.497.65 2.028 1.28 2.028 2.442 0 1.654-1.319 2.835-3.17 2.835-.905 0-1.614-.236-2.362-.827l-.473.887h-.354Zm17.309-6.794c1.043 0 1.634.177 2.087.63.453.453.709 1.3.709 2.245 0 1.97-.985 3.072-2.738 3.072h-.708c-1.044 0-1.221-.158-1.221-1.024v-4.923h1.871Zm-1.871-5.966h1.674c1.654 0 2.382.807 2.382 2.639 0 .905-.216 1.555-.65 2.067-.433.492-.964.65-2.067.65h-1.339v-5.356Zm5.809 2.6c0-1.025-.434-1.93-1.182-2.502-.669-.492-1.437-.709-2.717-.709h-5.179v.493c1.418.079 1.615.236 1.615 1.3v9.55c0 1.063-.158 1.2-1.615 1.319v.472h4.982c1.457 0 2.245-.177 3.071-.69.985-.63 1.635-1.83 1.635-3.07 0-1.064-.453-2.029-1.221-2.62-.414-.315-.847-.492-1.555-.63 1.417-.531 2.166-1.535 2.166-2.914Zm3.824 4.331c.197-2.264.945-3.426 2.205-3.426 1.28 0 1.93 1.102 2.048 3.426h-4.253Zm2.56 5.159c-1.792 0-2.58-1.379-2.6-4.45h5.868c-.039-3.032-1.28-4.647-3.603-4.647-2.363 0-3.839 1.91-3.839 4.942s1.476 4.805 4.016 4.805c1.93 0 3.19-1.202 3.446-3.23h-.788c-.236 1.674-1.102 2.58-2.5 2.58Zm4.311-8.29v-.334c1.142-.158 1.811-.316 2.599-.591.098.453.157.965.197 1.713.709-1.064 1.516-1.536 2.658-1.536 1.182 0 2.205.61 2.599 1.575.197.473.295 1.024.295 1.772v4.726c0 .847.198 1.004 1.399 1.063v.394c-1.044-.098-1.438-.118-2.147-.118-.728 0-1.122.02-2.146.118v-.394c1.063-.04 1.319-.236 1.319-1.024v-4.824c0-1.713-.512-2.402-1.772-2.402-1.339 0-2.048.847-2.048 2.461v4.765c0 .788.256.985 1.28 1.024v.394c-1.024-.098-1.417-.118-2.126-.118-.69 0-1.103.02-2.127.118v-.394c1.201-.059 1.398-.216 1.398-1.063v-6.38c-.02-.807-.138-.925-1.122-.925-.059 0-.158-.02-.256-.02Zm10.512 8.723 5.336-8.782h-2.422c-1.28 0-1.595.276-2.304 2.048h-.393l.452-2.56h6.774l-5.356 8.782h2.304c1.339 0 1.89-.532 2.481-2.323h.414l-.513 2.835h-6.773Zm-29.77-46.354a21.778 21.778 0 0 0-.299-3.254 23.16 23.16 0 0 0-.813-3.272 20.834 20.834 0 0 0-1.332-3.152 21.558 21.558 0 0 0-1.705-2.761 22.536 22.536 0 0 0-2.122-2.51 22.556 22.556 0 0 0-2.463-2.162 20.288 20.288 0 0 0-2.772-1.778 22.278 22.278 0 0 0-3.057-1.357 22.252 22.252 0 0 0-3.205-.868 21.641 21.641 0 0 0-3.362-.375 22.012 22.012 0 0 0-6.449.736 21.746 21.746 0 0 0-6.175 2.748 22.647 22.647 0 0 0-2.728 2.083 21.967 21.967 0 0 0-4.291 5.244 22.62 22.62 0 0 0-1.486 3.05 20.172 20.172 0 0 0-.995 3.25 22.872 22.872 0 0 0-.476 3.365 22.238 22.238 0 0 0 .635 6.832 21.738 21.738 0 0 0 2.76 6.347 22.46 22.46 0 0 0 2.08 2.75 21.54 21.54 0 0 0 2.452 2.362 21.81 21.81 0 0 0 9.228 4.493 22.064 22.064 0 0 0 6.78.405 22.601 22.601 0 0 0 3.142-.53 21.261 21.261 0 0 0 2.965-.958 21.905 21.905 0 0 0 5.702-3.393 22.047 22.047 0 0 0 4.393-4.884c.59-.9 1.122-1.84 1.571-2.819.452-.986.839-2 1.145-3.04.311-1.06.535-2.141.685-3.234.15-1.098.212-2.21.192-3.318Zm-38.877 9.269c-.039.024-.075.031-.106-.008a19.27 19.27 0 0 1-1.402-3.494 19.43 19.43 0 0 1-.663-7.331c.127-1.262.387-2.5.75-3.715a18.636 18.636 0 0 1 1.455-3.473 19.374 19.374 0 0 1 8.014-7.922 19.578 19.578 0 0 1 3.486-1.414 18.688 18.688 0 0 1 3.706-.707c.3-.027.601-.047.902-.06.074.005.044.102.036.154l-.043.302-.172 1.197-.262 1.83-.324 2.252-.356 2.484-.361 2.518-.338 2.355-.287 2-.206 1.433-.097.68-.005.028v-.002a.297.297 0 0 1-.106.185l-13.62 10.708Zm33.236 1.47a19.294 19.294 0 0 1-2.303 2.937 19.101 19.101 0 0 1-2.876 2.476 19.17 19.17 0 0 1-3.341 1.884 19.22 19.22 0 0 1-7.725 1.614 19.78 19.78 0 0 1-3.666-.351 18.782 18.782 0 0 1-3.624-1.08 19.502 19.502 0 0 1-3.34-1.768 19.097 19.097 0 0 1-2.914-2.37 19.705 19.705 0 0 1-2.452-2.962 18.806 18.806 0 0 1-.246-.378c-.012-.033.012-.058.04-.071l1.537-.617 1.577-.634 1.625-.652 1.56-.627 1.633-.656 1.508-.605 1.593-.64 1.537-.618 1.712-.687 1.514-.608.393-.158-.093.038a.267.267 0 0 1 .2-.006l.959.386 2.191.88 2.432.976 1.681.675 1.056.425.125.05c.072.019.146.06.216.087.009.005.02.009.031.013.01.002.021.008.03.012.053.013.105.043.155.063l.03.012.016.006.077.031c0 .007.099.04.108.044l.015.006.032.013.029.012h.001l.015.006h.001l.031.013.03.012h.001l.03.013.016.006.015.006.015.006h.001l.03.013h.001l.015.006.015.006h.001l.015.007.015.006.015.006h.001l.03.013h.001l.014.006h.001l.031.012.015.007.014.005h.002l.015.007.74.297 1.684.676a3541.71 3541.71 0 0 1 3.948 1.583l.157.063.005.003c.046.022.059.039.047.07Zm3.012-9.916a19.03 19.03 0 0 1-.382 3.415 20.103 20.103 0 0 1-.983 3.293 18.31 18.31 0 0 1-.809 1.76c-.021.023-.036.017-.069-.004a1666.313 1666.313 0 0 0-2.717-2.133l-1.279-1.004-1.319-1.035-1.313-1.03c-.469-.37-.939-.738-1.408-1.106l-1.354-1.063-1.34-1.052-1.23-.965-1.44-1.13-.256-.201a.297.297 0 0 1-.103-.184l.016.115.014.011-.008-.006-.006-.005-.249-1.742-.23-1.609-.234-1.636-.24-1.677-.252-1.767-.235-1.645-.235-1.647-.249-1.742-.23-1.606-.235-1.65-.063-.438-.014-.103v.002c-.005-.05 0-.09.056-.094a19.078 19.078 0 0 1 5.612 1.096 19.134 19.134 0 0 1 5.189 2.816 19.635 19.635 0 0 1 2.189 1.946 19.39 19.39 0 0 1 3.386 4.78 19.03 19.03 0 0 1 1.105 2.708c.286.894.512 1.81.661 2.736.152.95.239 1.906.257 2.867.004.243.003.486-.003.729Z"/>
</svg>
