<svg xmlns="http://www.w3.org/2000/svg" width="199" height="99" fill="none" viewBox="0 0 199 99">
  <path fill="#1B1B20" fill-rule="evenodd" d="M133.835 48.904c-.9-2.298-3.074-4.072-5.397-4.646-6.371-1.7-14.44-1.024-18.838 4.297-2.548 3.272-4.046 8.194-2.148 12.342.925 2.423 3.497 4.172 5.921 4.621 5.347.7 12.241 1 16.539-2.922 4.022-3.348 5.372-8.944 3.923-13.691Zm-13.191 9.844c-.599.224-1.574.324-2.123-.1-1.275-.7-.851-2.274-.701-3.324.599-1.949 1.274-4.697 3.698-5.072.796-.077 1.798.276 2.124 1.2.224 2.823-.587 5.694-2.998 7.296ZM62.688 32.876l-4.497 13.043-3.419-13.043h-9.085L34.533 64.718h10.615l4.228-12.143 3.148 12.143h9.625l11.153-31.842H62.688Zm17.601 9.5c1.874-.276 3.847-.875 4.872-2.724.75-1.474.475-3.248-.424-4.547-1.45-1.524-3.448-1.673-5.572-1.549-1.949.275-3.922 1.25-4.621 3.273-.325 1.274-.25 2.823.6 3.847 1.248 1.525 3.272 1.749 5.145 1.7Zm-7.732 2.132-7.106 20.24h10.075l7.106-20.24H72.557Z" clip-rule="evenodd"/>
  <path fill="#1B1B20" fill-rule="evenodd" d="M111.523 44.48H99.83l-5.847 6.836 6.386-18.44H90.115L78.96 64.72h10.254l2.878-8.005 1.62 8.005h10.704l-1.8-9.715 8.906-10.524Zm46.045-.241c-4.496 0-7.465 1.979-8.994 3.328l1.169-3.059h-10.614l-7.107 20.24h10.614l3.419-9.715c.538-1.53 1.438-2.25 2.967-2.25 1.53 0 1.89 1.53 1.439 2.789l-3.237 9.175h10.254l4.588-13.133c1.26-3.598 0-7.375-4.498-7.375Zm5.175 16.269a2.112 2.112 0 0 0-1.959 1.3 2.123 2.123 0 0 0 .457 2.313 2.126 2.126 0 0 0 2.313.458 2.122 2.122 0 0 0 1.143-1.15 2.128 2.128 0 0 0-.461-2.303 2.113 2.113 0 0 0-1.493-.618Zm0 3.979a1.858 1.858 0 0 1-1.862-1.869 1.849 1.849 0 0 1 .546-1.314 1.856 1.856 0 0 1 1.316-.542 1.857 1.857 0 0 1 1.856 1.856c.001.245-.046.487-.138.714a1.871 1.871 0 0 1-1.005 1.011 1.86 1.86 0 0 1-.713.144Z" clip-rule="evenodd"/>
  <path fill="#1B1B20" fill-rule="evenodd" d="M163.83 62.065c0-.2-.09-.41-.267-.51-.177-.105-.377-.116-.575-.116h-1.031v2.366h.288v-1.091h.533l.676 1.091h.343l-.714-1.091c.419-.012.747-.184.747-.649Zm-1.142.418h-.443v-.837h.677c.292 0 .615.044.615.41-.001.482-.516.427-.849.427Z" clip-rule="evenodd"/>
</svg>
