<svg viewBox="0 0 174 55" fill="none" xmlns="http://www.w3.org/2000/svg"><path d="M43.3 12.7c-1.7-1.9-4.8-2.7-8.6-2.7H23.4a1.6 1.6 0 00-1.6 1.4L17 40.9a1 1 0 00.5 1l.3.1H25l1.8-11v.3a1.6 1.6 0 011.6-1.3h3.3c6.5 0 11.6-2.6 13-10.2 0-.3 0-.5.2-.7a7 7 0 00-1.6-6.4h.1z" fill="#1B1B20"/><path d="M127 27.1c-.4 2.8-2.5 2.8-4.6 2.8h-1.2l.8-5.1c0-.2.1-.3.3-.4l.4-.1h.5c1.4 0 2.8 0 3.5.7a2.4 2.4 0 01.4 2.1zm-.8-7h-7.9c-.3 0-.5 0-.7.2a1 1 0 00-.4.7L114 40.3l.1.4c.1.2.3.3.4.3h4.2c.2 0 .3 0 .5-.2l.2-.4 1-5.5c0-.2.1-.5.3-.6.2-.2.5-.3.7-.3h2.5c5.1 0 8.1-2.4 9-7.2a5.5 5.5 0 00-1-4.8 7.3 7.3 0 00-5.8-2z" fill="#8B8B8B"/><path d="M72 27c-.5 2.7-2.6 2.7-4.7 2.7h-1.2l.9-5c0-.1 0-.3.2-.4l.4-.1h.5c1.4 0 2.8 0 3.5.7a2.5 2.5 0 01.3 2.1zm-1-7h-7.7c-.3 0-.5.2-.7.3a1 1 0 00-.4.6L59 40l.1.4c.1.2.3.3.4.3h3.9c.2 0 .5-.1.7-.3.2-.1.3-.3.3-.6l.9-5.1c0-.2.2-.5.4-.6.2-.2.4-.3.7-.3h2.5c5.2 0 8.1-2.3 9-7a5.4 5.4 0 00-1-4.8 7.3 7.3 0 00-5.9-2zm18.2 13.8c-.1 1-.6 1.8-1.4 2.5-.8.6-1.8 1-2.8 1a3 3 0 01-2.5-1 2.7 2.7 0 01-.6-2.5 4 4 0 011.4-2.5c.8-.6 1.8-1 2.8-1a3.4 3.4 0 012.5 1 3 3 0 01.6 2.5zm5.2-6.9h-3.7c-.2 0-.3 0-.5.2l-.2.4-.2 1-.2-.4a5.3 5.3 0 00-4.4-1.5c-2 0-4 .8-5.6 2.1a8 8 0 00-2.7 5 6.4 6.4 0 001.4 5.5A6 6 0 0083 41c1.9 0 3.7-.8 5-2l-.2 1 .1.4.4.2H92c.3 0 .5 0 .7-.2l.4-.6 2-12.1a.6.6 0 00-.1-.5.6.6 0 00-.4-.2h-.1z" fill="#1B1B20"/><path d="M144.2 33.5a4.1 4.1 0 01-4.1 3.6 2.8 2.8 0 01-2.8-1.5 2.9 2.9 0 01-.3-2 4.1 4.1 0 015.5-3.4 3 3 0 011.7 2v1.3zm5-7.1h-3.5a.6.6 0 00-.7.5l-.1 1-.3-.3a5.3 5.3 0 00-4.3-1.6 8.4 8.4 0 00-8.2 7.4 7 7 0 001.4 5.7 5.7 5.7 0 004.7 1.9 7 7 0 005-2.1l-.2 1a.7.7 0 00.6.7h3.4a1 1 0 001-.9l2-12.5a.6.6 0 00-.5-.8h-.2z" fill="#8B8B8B"/><path d="M113.3 26h-3.8a1 1 0 00-.8.6l-5.2 7.8-2.2-7.5c0-.3-.2-.5-.4-.6a1 1 0 00-.6-.2h-3.6c-.2 0-.4 0-.5.2l-.2.4v.3l4.1 12.4-3.9 5.6a.7.7 0 00.2.9l.4.1h3.7a1 1 0 001-.5L113.8 27a.6.6 0 00-.2-.9.5.5 0 00-.3-.1h-.1z" fill="#1B1B20"/><path d="M153.1 20.6l-3 19.7a.6.6 0 00.2.6l.2.1h3.3a1 1 0 001-.9l3.2-19.4-.1-.4a.7.7 0 00-.4-.3h-3.7l-.4.1-.2.4z" fill="#8B8B8B"/><path d="M43.3 12.7c-1.7-1.9-4.8-2.7-8.6-2.7H23.4a1.6 1.6 0 00-1.6 1.4L17 40.9a1 1 0 00.5 1l.3.1H25l1.8-11v.3a1.6 1.6 0 011.6-1.3h3.3c6.5 0 11.6-2.6 13-10.2 0-.3 0-.5.2-.7a7 7 0 00-1.6-6.4h.1z" fill="#1B1B20"/><path d="M28.6 19.1A1.4 1.4 0 0130 18h9a19.7 19.7 0 014.3.6c.6.1 1.1.3 1.6.6a7.1 7.1 0 00-1.6-6.4c-1.7-1.9-4.8-2.7-8.6-2.7H23.4a1.6 1.6 0 00-1.6 1.4L17 40.9a1 1 0 00.8 1.1H25l1.8-11 2-11.9z" fill="#1B1B20"/><path d="M44.2 20l-.1.6c-1.4 7.4-6.2 9.9-12.4 9.9h-3c-.5 0-.8.1-1 .4-.4.2-.5.5-.6.9l-1.6 10.4-.5 2.9a.8.8 0 00.4.8l.3.1h5.6c.4 0 .7-.1 1-.3.2-.2.3-.5.4-.9v-.2l1-6.8v-.4c0-.3.2-.6.5-.8.2-.2.5-.3.8-.3h.9c5.4 0 9.6-2.2 10.8-8.6a7.5 7.5 0 00-1.1-6.5c-.5-.5-1-1-1.5-1.2h.1z" fill="#8B8B8B"/><path d="M43.4 18.5l-.8-.2H42c-1-.3-2-.3-3-.3h-8.8l-.9.3c-.2.2-.4.5-.4.9L27 30.7v.3c0-.4.2-.7.5-1a2 2 0 011-.3H32c6.5 0 11.5-2.6 13-10l.1-.6-1.2-.5h-.4z" fill="#1B1B20"/></svg>