<svg xmlns="http://www.w3.org/2000/svg" width="199" height="99" fill="none" viewBox="0 0 199 99">
  <path fill="#1B1B20" d="M85.106 49.41c0 4.55 3.389 7.905 9.008 7.905a15.813 15.813 0 0 0 6.935-1.457l2.112 2.874c-2.919 1.542-5.726 2.355-10.035 2.355-8.991 0-15.599-4.331-15.599-11.678 0-7.34 6.608-11.678 15.599-11.678 4.309 0 6.777.627 9.821 1.932l-2.158 3.309a13.1 13.1 0 0 0-6.68-1.468c-5.648 0-9.008 3.354-9.008 7.905m34.302 8.047c-4.783 0-7.427-3.597-7.427-8.053 0-4.455 2.644-8.052 7.427-8.052 4.783 0 7.432 3.597 7.432 8.053 0 4.455-2.649 8.052-7.432 8.052Zm0-19.73c-8.703 0-14.977 4.33-14.977 11.683 0 7.352 6.274 11.684 14.977 11.684s14.983-4.343 14.983-11.684c0-7.34-6.28-11.683-14.983-11.683Zm37.607 13.372V60.5h7.195V38.313h-7.195v8.465h-10.99v-8.465h-7.178V60.5h7.178v-9.402h10.99ZM73.19 38.313h-7.573V60.5h7.573V38.313ZM43.889 48.472v2.123a56.518 56.518 0 0 1 9.827 9.905h8.47c-2.953-3.467-7.476-7.584-10.808-9.656 3.913-.159 8.273-1.745 8.273-6.212 0-5.76-6.161-6.816-12.385-6.816-5.082 0-9.77.232-12.582.463v22.243h7.11V41.605a44.456 44.456 0 0 1 5.54-.299c3.643 0 5.484 1.203 5.484 3.303 0 1.796-.763 3.953-8.929 3.863"/>
</svg>
