<svg xmlns="http://www.w3.org/2000/svg" width="199" height="99" fill="none" viewBox="0 0 199 99">
  <path fill="#1B1B20" d="M93.926 89.24c.567 0 1.546-.199 2.319-1.56-.438-1.08-.747-3.235-.799-4.03-.231-4.057 1.185-7.86 2.731-7.944 1.133-.085 2.035 1.106 2.138 3.036.284 5.05-1.236 7.15-2.01 8.965.13.71 1.212 1.902 2.242 1.902.386 0 .824-.2.953-.37a4.401 4.401 0 0 1-.154-1.22c0-2.922 1.7-5.39 3.194-5.39 1.185 0 1.855 1.702 1.855 2.837 0 1.334-1.031 2.412-2.525 3.462.258.283.747.51 1.185.51 2.164 0 3.298-2.865 4.122-5.504.155-.51.412-1.22.953-1.22.902 0 1.288 6.582 2.808 6.582.644 0 1.185-1.475 1.185-2.582 0-.822-.257-.907-.257-2.127 0-1.334.644-2.469 1.519-2.469.541 0 .722.568.722 1.277 0 2.667-1.752 7.632-4.328 7.632-1.932 0-1.778-3.66-2.473-3.66-.773 0-1.829 3.717-5.565 3.717-.618 0-1.262-.34-1.777-.993-.902.68-1.675.965-2.55.965-1.392 0-2.01-1.59-2.577-1.59-.67 0-1.442 1.618-3.71 1.618-1.828 0-2.112-2.667-2.756-2.667-.566 0-1.442 2.667-2.395 2.667-1.598 0-1.933-4.625-3.324-4.625-1.107 0-4.56 4.71-5.513 4.596-.386-.056-.54-.368-.489-.766.052-.567.515-2.127.696-2.865.309-1.277.592-2.667.747-3.093.154-.454.566-.766.901-.738.18.029.232.37.284.653.18 1.021.463 2.071.747 2.071.54 0 2.292-3.717 3.323-3.717 1.262 0 1.391 5.845 3.117 5.845.567 0 .979-.737 1.365-1.674.026-1.532.413-3.745 1.546-3.745.799 0 1.185 1.958.593 3.66-.052 2.043 1.159 2.554 1.957 2.554Zm30.296-4.994c-.464 2.156-1.881 5.306-4.019 5.306-.49 0-1.366-.199-1.366-.766 0-.596 3.324-.653 3.324-3.462 0-1.05-.876-2.497-2.164-2.497-1.701 0-3.375 2.043-3.375 4.88 0 2.554 1.443 3.377 2.885 3.377 2.499 0 4.019-2.242 4.818-4.143.386 1.249.592 4.143 1.545 4.143.387 0 .644-.199 1.108-1.334 1.133-2.809 2.241-6.015 3.761-6.015.567 0 .232 1.135 1.597 1.135.644 0 1.108-.596 1.108-1.248 0-.965-.799-1.703-2.009-1.703-3.555 0-4.328 5.874-4.895 5.874-.953 0-.644-4.71-1.34-4.71-.592 0-.901.794-.978 1.163Zm-25.118-4.398c-.077-1.163-.309-1.702-.901-1.645-.747.056-1.108 2.667-.953 5.419.103 1.787.335 2.071.566 2.043.438-.029 1.417-3.235 1.288-5.817Zm-6.156-2.44c-.052-.68-.541-1.135-1.185-1.135-.722 0-1.392.823-1.314 1.873.051.68.412 1.248 1.133 1.248.825 0 1.443-1.05 1.366-1.986Zm11.772 8.484c0-.71-.335-1.305-.747-1.305-.335 0-1.133.425-1.133 1.759 0 1.05.335 1.532.489 1.759 1.082-.37 1.391-1.362 1.391-2.213Zm14.813-1.39c.799 0 1.03 1.05.824 1.673-.18.625-.876 1.334-1.932 1.532-.232-.624-.335-3.206 1.108-3.206Zm-43.614-2.98c-.103-.369-.412-1.22-.515-1.873-.18-1.39.464-2.298 1.082-2.525.67-.198.953.17 1.21 1.05.336 1.334.387 3.093.258 5.59-.154 3.433-1.7 7.547-5.564 7.462-3.323-.057-4.791-2.44-4.946-6.072-.077-1.703.026-3.433.67-5.845.335-1.305.644-1.76 1.7-2.014.824-.17.747.794.567 1.929-.412 2.497-.618 3.717-.464 6.554.155 3.008 1.391 4.171 2.757 4.171 2.035.057 2.962-1.844 3.323-4.54.335-2.184.103-3.206-.078-3.887Zm44.671-54.249c.258 2.1 3.143 4.937 3.942 4.88.515-.057.721-2.752.721-4.88 0-1.22.051-2.156-.515-2.383-.928 2.043-3.375 2.468-4.148 2.383Zm.155-.936c2.086 0 3.993-1.845 3.993-3.462 0-.766-.335-1.362-1.16-1.475.129.198.207.34.207.71 0 1.22-1.675 2.581-3.504 2.581-.67 0-.876.51-.876.766.026.596.567.88 1.34.88Zm-.438-2.497c-.284 0-.696 0-.902-.482-.18-.398-.129-1.05-.464-1.334.335.113.696.113.979.113.902 0 1.778-.68 2.448-.68.438 0 .566.312.566.624 0 .964-1.777 1.759-2.627 1.759ZM75.356 41.175c.67 0 .541-4.596 1.649-4.596.257 0 .335.284.335.653 0 1.05-.464 2.553-.464 3.404 0 .426.103.568.283.568.49 0 1.314-5.079 2.139-5.079.257 0 .386.284.386.568 0 1.05-1.237 4.114-1.237 4.993 0 .142.052.256.13.256.514 0 1.52-2.384 1.828-3.575.18-.625.412-.965.644-.965.206 0 .387.255.387.766 0 1.192-1.005 4-1.88 5.902-.696 1.447-1.753 3.575-1.753 4.738 0 .596.103 1.22.876 1.958-1.288-.085-1.803-.227-2.292-1.334-2.139 4.71 3.967 4.256 1.88 8.427-.36-.795-3.375-1.56-3.375-5.93 0-3.774 3.014-5.987 3.014-7.576 0-.312-.103-.567-.36-.822-.67-.625-.696-1.135-1.211-1.135-.386 0-.85.964-.36 1.844.154.283.309.454.309.737 0 .625-.876 2.27-1.495 2.27-.618 0-1.107-1.702-1.107-4.454 0-2.44.49-4.88 1.133-4.88.18 0 .232.142.232.312 0 .283-.077.85-.077 1.844-.026 1.021.206 1.106.386 1.106Z"/>
  <path fill="#1B1B20" d="M80.479 47.673c.85 0 1.546-.681 1.546-2.213v-2.27c0-.851.051-1.844.592-2.525-.052.284-.052.596-.052.88 0 1.9.954 3.206.954 5.05 0 .68-.18 1.05-.67 1.05-.464 0-.412-.454-.515-.454-.078 0-.207.283-.207.595 0 .454.31 1.192 1.134 1.192.721 0 1.314-.738 1.314-1.56 0-1.986-1.417-4.2-1.417-6.328 0-.936.232-1.56.412-2.042 0 4.397 3.4 7.603 3.4 9.448 0 .425-.283.766-.695.766-.464 0-.696-.397-.696-.71 0-.141-.025-.198-.077-.198-.129 0-.49.454-.49 1.021 0 .738.542 1.618 1.546 1.618 1.134 0 1.778-1.05 1.778-2.015 0-2.327-4.122-5.845-4.122-9.618 0-.653.103-1.674.515-2.469-2.653 1.873-3.477 4.37-3.477 6.583 0 1.9-.052 2.865-.953 2.865-.464 0-.593-.453-.748-.453-.128 0-.18.397-.18.51.026.795.567 1.277 1.108 1.277Zm34.828-22.103c.876 0 1.546-.453 1.546-.709 0-.085-.129-.142-.387-.142-.257 0-.773-.028-1.777-.198-.85-.142-1.494-.511-1.726-.511-.078 0-.129.057-.129.113.026.54.979 1.447 2.473 1.447Zm-4.379-2.837c.257-.198 1.391.114 2.859-.68a.942.942 0 0 1 .515-.143c.696 0 .516.88 1.16.88.489 0 1.133-.454 1.52-.454.592 0 1.468 2.071 1.468 3.064 0 1.135-1.546 1.816-3.375 1.816-2.679 0-4.276-2.553-4.276-4.227 0-.142.077-.199.129-.256ZM80.892 56.015c-.67.17-1.726 1.334-1.726 3.15 0 2.156 2.112 5.504 5.59 5.504 2.937 0 3.658-2.242 3.658-3.745 0-3.348-1.88-5.675-4.302-5.675-1.34 0-2.524 1.05-2.524 2.639 0 1.475 1.004 3.66 3.4 3.66 1.133 0 1.778-.88 1.778-1.901 0-.993-.825-2.355-2.036-2.355-.36 0-.618.255-.618.68 0 .54.67 1.05 1.494 1.05.206 0 .36-.056.438-.084.052.056.052.17.052.255 0 .51-.438.823-1.134.823-1.03 0-2.01-.852-2.01-2.185 0-.795.62-1.362 1.52-1.362 1.778 0 2.86 1.76 2.86 3.49 0 1.56-.772 2.468-2.395 2.468-3.17 0-4.74-3.177-4.045-6.412Zm21.381 8.54c0 .482.361.88.799.88.438 0 .799-.398.799-.88s-.361-.88-.799-.88c-.438 0-.799.398-.799.88Zm1.572 4.426c.953 0 .901-.085 1.211-.085.309 0 .309.199.309.34 0 .483-.979 1.079-2.731 1.079-1.03 0-1.649-.596-1.829-1.277-1.005.71-2.525 1.362-4.045 1.362-4.121 0-5.152-1.958-6.44-2.61-.979-.483-2.499.453-4.611-2.129.283.057.67.086.953.086 1.855 0 2.834-.993 2.834-2.582a5.09 5.09 0 0 0-.052-.624c.567.255 1.855 1.305 2.138 3.177.052.227.876.426 1.392.426.72 0 1.648-.34 1.777-1.646 2.422-.227 4.045-1.787 4.38-3.773.875.312 1.854 1.163 2.086 1.617.335-.142.747-.199 1.211-.199.644 0 1.365.142 2.241.426.052-.284.077-.653.49-.653.592 0 .438.738.644 1.164.103.227.592.368.592.794a.534.534 0 0 1-.515.568.572.572 0 0 1-.232-.057c-.412.142-.412 3.348-2.112 3.348-1.237 0-2.396-1.135-2.886-2.554-.128-.425-.438-.68-.72-.68-.31 0-.49.056-.877.538-1.082 1.305-2.885 2.44-5.126 2.44-.696 0-1.237-.056-1.366-.056-.077 0-.077.028-.077.056 0 .142.696.766 2.164.766 3.53 0 4.405-2.184 4.972-2.184.077 0 .31 0 .464.34.824 2.1 2.627 2.582 3.761 2.582ZM116.03 54.88c-.412 0-2.757 3.433-4.251 3.433-.36 0-.67-.766-.67-1.334 0-.312.181-.539.825-.68 3.452-.852 2.679-3.717 5.641-3.717 1.623 0 3.427 1.22 3.427 3.972 0 2.922-3.787 6.554-4.328 6.554-.464 0-.953-.738-.953-1.22 0-.142.051-.34.463-.54 1.932-.85 3.04-2.78 3.04-3.773 0-.227-.103-.454-.361-.454-.334 0-1.803 3.66-3.426 3.66-1.133 0-2.267-1.134-2.267-1.645 0-.88 3.246-2.525 3.246-3.774-.026-.454-.232-.482-.386-.482Zm2.164-1.362c-.284 0-.593.255-.593.851 0 .653.464 1.078.721 1.22.129.085.361.17.593.17.593 0 1.056-.17 1.056-.709 0-.71-.901-1.532-1.777-1.532ZM80.661 27.869c0 .482.36.88.799.88.438 0 .798-.398.798-.88 0-.483-.36-.88-.798-.88-.438 0-.799.397-.799.88Zm-1.056-1.986c0 .482.36.88.798.88.438 0 .799-.398.799-.88 0-.483-.36-.88-.799-.88-.438 0-.798.397-.798.88Zm-.722 6.071c-.463.142-1.416.738-1.416 1.845 0 .794.566 1.305 1.262 1.305.36 0 .618-.085.773-.227a2.68 2.68 0 0 1-.773-1.93c.026-.454.077-.737.154-.993Zm-4.92.313c-.026.113-.026.226-.026.34 0 1.05.49 1.617 1.16 1.617.49 0 1.082-.34 1.597-1.05-.232.057-.49.057-.722.057-.72-.028-1.52-.227-2.009-.965Zm-.695 1.957c0 1.674.463 2.469 1.288 2.469.644 0 1.494-.511 2.524-1.476-.773.199-1.39.34-1.932.34-.721 0-1.288-.311-1.88-1.333Zm5.203-8.852c.103-.369.18-.795.18-1.277 0-1.05-.437-2.667-1.803-2.667-.772 0-1.34.68-1.34 1.504-.025 1.73 1.572 2.44 2.963 2.44Zm-1.7 5.59c-.67 0-1.391-.909-1.391-1.731 0-.454.31-.994.515-.994.078 0 .129.057.129.228a2.55 2.55 0 0 0 1.365 2.014c.052.057.103.057.103.114.026.141-.36.368-.72.368Zm1.83-2.696c.128.199.514.454.514.624 0 .312-.154.71-.49.71-.695 0-1.261-1.164-1.261-1.845 0-.425.231-.454.515-.454.129 0 .206.029.309.085.206.085.206.54.412.88Zm-4.715 2.724a.615.615 0 0 0-.052.255c0 .199.206.426.387.426.154 0 .257-.057.335-.057.49 0 1.03.369 1.803.369.464 0 1.005-.142 1.7-.54 1.443-.794 2.01-2.78 2.01-3.092 0-.426-.31-.369-.567-.766-.258-.397-.155-.738-.31-.908-.102-.113-.386-.113-.746-.142-.13-.028-.284-.028-.438-.028-.67 0-1.443.085-2.319.71-1.777 1.248-1.52 3.262-1.803 3.773Zm6.672-.88c-.438.568-.902 1.56-.902 2.554 0 1.191.67 2.184 1.7 2.184.98 0 1.443-.936 1.443-1.872 0-1.476-1.236-2.525-2.241-2.866Zm-4.302-4.256s-.593.483-1.314.483c-.876 0-1.546-.71-1.546-1.703 0-.68.31-1.39 1.057-1.759-.026.142-.026.255-.026.369.026 1.305.67 2.241 1.829 2.61Zm35.448 7.349c0 .51.387.936.85.936.464 0 .851-.425.851-.936 0-.51-.387-.937-.851-.937-.489.029-.85.426-.85.937Zm.052 2.809c0 .567.412 1.05.953 1.05.515 0 .953-.454.953-1.05 0-.568-.412-1.05-.953-1.05-.541 0-.953.454-.953 1.05Zm-2.911 1.872c0 .852.618 1.532 1.391 1.532s1.391-.68 1.391-1.532c0-.85-.618-1.532-1.391-1.532-.747 0-1.391.681-1.391 1.532Zm.747-3.12c0 .482.361.879.799.879.437 0 .798-.397.798-.88 0-.482-.361-.88-.798-.88-.438 0-.799.398-.799.88Zm-2.628 1.758c0 .483.361.88.799.88.438 0 .798-.397.798-.88 0-.482-.36-.88-.798-.88-.438 0-.799.398-.799.88Zm2.061-5.163c0 .766.593 1.418 1.288 1.418.696 0 1.288-.652 1.288-1.418 0-.767-.592-1.42-1.288-1.42-.695 0-1.288.654-1.288 1.42Zm1.52-2.724c0 .454.335.851.773.851.412 0 .773-.369.773-.851 0-.454-.335-.851-.773-.851s-.773.397-.773.85Zm-3.632 2.128c0 .454.335.85.747.85s.773-.368.773-.85c0-.454-.335-.852-.773-.852-.412 0-.747.37-.747.852Zm-.103 2.865c0 .767.541 1.362 1.211 1.362.695 0 1.236-.596 1.236-1.362 0-.766-.541-1.361-1.236-1.361-.67.028-1.211.624-1.211 1.361Zm-2.525 1.42c0 .68.515 1.247 1.134 1.247.618 0 1.133-.567 1.133-1.248 0-.68-.515-1.248-1.133-1.248-.619 0-1.134.567-1.134 1.248Zm.67-3.122c0 .482.361.88.799.88.437 0 .798-.398.798-.88s-.361-.88-.798-.88c-.438 0-.799.398-.799.88Zm7.058 6.81c0-.454.361-.823.748-.823.437 0 .772.369.772.823 0 .51-.335.85-.772.85-.387.03-.748-.34-.748-.85Zm.514 25.479c.103 0 .231.056.231.454 0 .482-.206 1.135-.927 1.645-.515.37-1.185.681-2.19.71.155-.54.284-1.079.284-1.618 0-.17-.026-.312-.052-.51h.258c1.597 0 2.292-.681 2.396-.681Zm.154-2.213c.155-.142.206-.398.206-.653v-.51c0-.653-.876-1.022-2.086-1.022-1.469 0-2.242.738-2.242 1.05v1.021c0 .426.876.851 1.984.851.85 0 1.623-.227 2.138-.737Zm1.056.255c-.515.454-1.751 1.447-3.787 1.447-1.082 0-1.571-.369-1.726-.369-.206 0-.412.227-.644.51-.489.625-1.107 1.76-1.107 3.037 0 .88.618 1.759 1.777 1.759 3.761 0 6.569-2.582 6.569-4.682.026-1.22-.618-1.702-1.082-1.702Zm.697-18.613c0 .539.155 1.192.67 1.192.412 0 .773-.71.773-1.476 0-.88-.129-1.56-.129-1.93 0-.141.051-.226.129-.226.309.028.592.936.901.936.361 0 .902-.738 1.134-.738.051 0 .077.086.077.114 0 .34-.464 1.05-.464 1.362 0 .255 1.16.284 1.16.51 0 .341-1.211.341-1.804.625-.566.255-.901.596-.901 1.05 0 .453.412.539.979.539 1.339 0 2.292-.795 2.576-.795.051 0 .103.057.103.114 0 .227-.696.964-.696 1.276 0 .37 1.237.823 1.237 1.05-.026.057-.103.085-.232.085-.232 0-.567-.056-.824-.056-.155 0-.31.028-.361.113-.129.17.051 1.362-.232 1.362-.258 0-.953-2.61-2.499-2.61-.232 0-.386.198-.386.539 0 .88.773 1.9 1.52 2.383.335.255.901.482.901.624 0 .256-1.288.029-1.288.454 0 .398.155.993.155 1.362 0 .114-.026.256-.129.256-.232 0-.824-1.22-1.108-1.22-.231 0-.772.737-.979.737-.051 0-.103-.057-.103-.142 0-.51.747-1.674.747-2.78 0-.54-.051-1.674-.644-1.674-.489 0-1.03.851-1.262 1.674-.129.482-.051 2.355-.361 2.355-.309 0-.231-1.249-.618-1.249-.309 0-.953.596-1.159.596-.052 0-.077-.028-.077-.056 0-.256.592-1.136.592-1.306 0-.34-1.339-.369-1.339-.652 0-.142.515-.256 1.004-.34 1.031-.2 2.525-1.022 2.525-2.157 0-1.277-1.134-1.844-1.855-2.383-.386-.256-.799-.483-.799-.653 0-.17.49-.17.696-.17.309 0 .593-.029.593-.284 0-.199-.052-.596-.052-.908 0-.227.026-.397.103-.397.309 0 .721 1.078.927 1.078.31 0 .773-.88 1.057-.88.103 0 .128.057.128.256 0 .71-.386 1.645-.386 2.44Zm-9.583-6.497c.232 1.872 2.525.936 2.525 3.206 0 .34-.078.822-.078 1.248 0 .482.052.908.387.908s.412-.255.412-.624c0-.34-.077-.795-.077-1.05 0-.766.515-.965.798-.965.773 0 1.34.852 2.499.852-.258 1.418-2.911 1.05-2.911 2.581 0 .767.696.965 1.159.965.412 0 .567-.057.567-.454 0-.227-.052-.454-.052-.624 0-.085.052-.17.155-.17.438 0 2.602 1.816 2.602 2.383 0 .51-2.293 1.022-2.963 1.022-.206 0-.232-.142-.232-.256 0-.142.335-.624.335-.88 0-.198-.309-.34-1.107-.34-.387 0-.67.057-.67.369 0 .596.876 1.333.876 1.873 0 .453-.232.709-.876.709-.541 0-1.365-.454-1.365-1.249 0-.624.592-1.248.592-1.617 0-.113-.077-.283-.309-.283-.747 0-.953 2.156-3.581 2.411.412-.425.773-.88.773-1.844 0-.454-.103-.851-.103-1.362 0-.653.283-.993.67-.993.747 0 1.107 1.163 1.597 1.163.257 0 .541-.255.541-.652 0-1.674-2.937-1.447-2.937-3.802.026-.624.232-1.419.773-2.525Z"/>
  <path fill="#1B1B20" d="M108.664 51.532c0 .312.206.567.49.567.309 0 .515-.312.515-.652 0-.455-.387-1.107-.747-1.107-.155 0-.103.255-.129.567-.026.199-.129.454-.129.625Zm-1.03-2.923c2.112.454 3.246 2.185 3.246 3.83 0 1.135-.644 2.157-1.778 2.157-1.03 0-1.777-.766-1.777-2.015 0-.936.669-1.9.669-2.865.026-.37-.077-.738-.36-1.107Zm-2.679 3.745a.929.929 0 0 1 .257.653c0 .34-.129.68-.129 1.05 0 .539.361.993.876.993.567 0 .953-.482.953-1.05 0-.823-.798-1.646-1.957-1.646Zm6.646-1.418c.129.255.206.482.206.71 0 .623-.386 1.19-.386 1.843 0 .738.515 1.334 1.262 1.334.824 0 1.391-.738 1.391-1.589 0-1.192-.953-2.185-2.473-2.298Zm-6.157-1.163c.927.141 1.159.482 1.159.765 0 .483-.412.653-.798.653-.284 0-.593-.057-.953-.057-.438 0-.876.114-1.237.568.258.057.644.255.644.68 0 1.278-3.246.228-3.246 3.519 0 1.76 1.649 3.66 4.148 3.66 1.288 0 2.112-.454 2.112-.993 0-.425-.695-.142-.695-.482 0-.142.231-.454.231-.681 0-.114-.077-.312-.231-.312-.361 0-1.057.652-2.422.652-1.082 0-2.138-.68-2.138-1.617 0-.199.077-.312.206-.312s.283.085.412.085.129-.085.129-.34c0-.256 0-.937.386-.937.387 0 1.108 1.56 3.89 1.56.928 0 2.705-.198 3.375-.85-.026 2.44-1.752 5.646-5.358 5.646-3.762 0-5.77-3.32-5.77-6.384 0-3.377 2.498-6.47 5.95-6.47.876 0 1.623.341 1.623.739-.026.567-1.314.227-1.417.907Zm-13.011-25.28c1.314 0 1.932 1.248 1.932 2.667 0 .624-.154 1.532-.412 1.532-.257 0-.231-.511-.257-.965-.052-.596-.13-.738-.31-.738-.334 0-.566.88-.566 1.703 0 .51.077 1.078.438 1.078.206 0 .386-.114.515-.255-.077 1.021-.773 1.9-1.726 1.9-1.778 0-2.421-2.27-2.628-3.603-1.056 1.249-2.06 2.156-3.812 2.156-1.649 0-2.396-1.333-2.396-2.581 0-.37.129-1.362.54-1.362.49 0 .052 1.816 1.057 1.816.232 0 .696-.227.927-.965.13-.454.232-.908.232-1.305 0-.596-.128-.965-.515-.965-.335 0-.773.284-.901.454.489-1.589 1.648-2.412 2.936-2.412 1.598 0 2.422 1.56 2.422 3.263 0 .256-.026.51-.052.766.619-1.22 1.546-2.184 2.576-2.184Zm-1.545 2.61c0-.369-.078-.454-.155-.454-.206 0-.412.255-.747.851.052.794.155 1.163.36 1.163.233 0 .542-.794.542-1.56Zm-2.757.908c.232 0 .516-.255 1.03-.908.052-.284.052-.568.052-.88 0-.454-.154-.936-.412-.936-.592 0-.901 1.76-.901 2.242 0 .255.102.482.231.482Zm3.272 1.986c.49 0 1.056-2.128 1.056-3.462 0-.283-.051-.595-.154-.595-.413 0-1.134 2.184-1.134 3.376.026.482.129.68.232.68Zm-4.92-1.22c.695 0 1.468-4.086 1.468-4.767 0-.17-.051-.312-.206-.312-.618 0-1.494 3.887-1.494 4.738.025.142.051.34.232.34Z"/>
  <path fill="#1B1B20" d="M88.672 30.45c-.875 0-.901 1.164-.901 3.462-.644-1.532-1.7-3.178-2.963-3.178-.85 0-1.159.624-1.159 1.703 0 .227.026.567.052.766.103-.37.412-.54.824-.54.876 0 1.906.738 2.602 1.731-.773-.142-1.546-.312-2.19-.312-.412 0-.773.057-1.056.199-.593.284-1.365 1.248-1.365 2.667 0 .227.025.454.051.738.696-1.731 2.576-2.497 3.787-2.497.232 0 .412.028.567.057-.619.624-.773 1.702-.799 2.44-.026.34-.154.368-.386.368 0 .738.515 1.816.515 2.355 0 .2-.103.37-.206.426 0 .965.876 1.674.876 2.298a.76.76 0 0 1-.103.37c.051.396 1.03 1.077 1.159 1.39.155.397.335.482.438.482.335 0 .876-.454.876-.851a.475.475 0 0 0-.18-.34c-.387-.313-.593-.966-.748-1.42-.128 0-.335-.056-.386-.312-.103-.454-.103-1.305-.283-1.816-.258-.056-.387-.17-.387-.766 0-.283.155-1.418.155-1.816-.129 0-.284-.085-.284-.34 0-.71.644-1.248.825-2.156 1.133.936 1.417 1.872 1.417 2.724 0 .454-.052.85-.13 1.248.85-.454 2.113-1.163 2.113-2.554 0-.822-.335-1.73-2.602-2.07a6.619 6.619 0 0 1 2.319-.455c1.288 0 2.035.454 2.19 1.447.257-.454.463-.965.463-1.419 0-1.078-.824-1.787-1.88-1.787-1.237 0-2.319.71-3.478 1.56.515-1.191.876-1.9 1.52-1.9.103 0 .206.028.309.056-.18-1.021-1.082-1.957-1.572-1.957Zm33.877 15.946c1.005 0 1.803 1.447 1.803 3.121 0 1.788-.772 3.746-2.138 5.08-.026-2.98-3.349-2.044-3.349-4.2 0-.936.593-1.56 1.34-1.56.644 0 1.133.198 1.52.595-.361-.369-.541-.908-.541-1.418 0-.823.463-1.618 1.365-1.618Zm-14.918-22.641c-.154-.284-.773-.454-1.03-.454-.876 0-1.494.68-1.597 1.305a2.341 2.341 0 0 1-.129-.766c0-.965.592-2.157 2.061-2.157 1.288 0 1.777.766 1.958.766.206 0 .412-.227.566-.227.232 0 .232.37.232.653 0 .88-.361 2.412-1.262 2.98a2.128 2.128 0 0 0-1.005-1.05.37.37 0 0 1-.206-.341c-.026-.256.18-.568.412-.71Zm-3.04 1.617c.516.567.979.794 1.546.794.232 0 .49-.057.618-.057.181 0 .309.085.309.256 0 .255-.206.652-.437.851.231.113.515.142.772.142 1.134 0 2.448-.795 2.448-2.78.232.34.386 1.078.386 1.418 0 2.412-1.597 3.348-3.091 3.348-.979 0-1.443-.34-1.572-.34-.386 0-.36.85-.618.822-.464-.085-.876-1.22-.876-2.411 0-.738.155-1.476.515-2.043ZM87.386 11.299c0-.142-.593-.255-1.417-.255-1.314 0-1.133 1.191-2.138 1.191-1.056 0-.773-1.248-2.112-1.248-.8 0-1.546.142-1.546.34 0 .256.953.142.953.88 0 .766-2.035.993-2.035 1.447 0 .142.155.227.36.227.439 0 1.134-.227 1.65-.227.283 0 .54.057.54.34 0 .568-1.082 1.56-1.082 1.986 0 .142.103.17.206.17.413 0 1.082-1.134 1.726-1.134 1.057 0 .361 2.497.954 2.497.592 0 .334-2.469 1.21-2.469.696 0 1.237 1.703 1.7 1.703.13 0 .232-.114.232-.256 0-.454-.592-1.418-.592-2.043 0-.369.232-.567.567-.567.463 0 1.082.312 1.416.312.13 0 .232-.057.232-.199 0-.539-1.777-1.106-1.777-1.787-.026-.596.953-.596.953-.908Zm4.74 2.27c0 .397 1.262 1.248 1.855 1.248.335 0 .438-.51.438-1.05 0-.652-.258-.68-.773-.68-.696 0-1.52.198-1.52.482Zm2.087 4.37c0-1.334-3.272-3.746-3.298-4.768a.47.47 0 0 1 .13-.283c.566-.653 2.884-1.135 2.884-1.674 0-.284-.49-.284-.721-.284-1.88 0-4.611.766-4.611 1.475 0 .767 2.447 2.582 2.447 3.49 0 .256-.129.34-.36.34-.67 0-2.165-.907-2.886-.907-.309 0-.438.255-.438.596 0 1.05 1.134 3.064 1.134 3.66 0 .056-.026.142-.103.142-.361 0-2.061-2.213-2.68-2.213-.231 0-.231.34-.231.822v.766c0 .511-.026.823-.232.823-.515 0-.773-1.617-1.263-1.617-.515 0-.618 2.866-1.133 2.866-.593 0-.077-3.178-.644-3.178-.618 0-1.314 2.1-1.778 2.1-.154 0-.206-.17-.206-.341 0-.653.335-1.674.335-2.298 0-.312-.077-.482-.309-.482-.618 0-1.984 1.106-2.524 1.106-.078 0-.18-.057-.18-.142 0-.539 2.189-2.213 2.189-2.95 0-.738-3.014-.256-3.014-1.079 0-.71 2.164-1.447 2.164-2.156 0-.653-2.55-.937-3.53-.937-1.184 0-1.829.142-1.829.54 0 .567 2.705.766 2.705 1.248s-2.782 1.788-2.782 2.554c0 .652 3.942.056 3.942.737 0 .738-3.427 4-3.427 5.08 0 .254.155.368.387.368 1.056 0 3.761-2.185 4.508-2.185.258 0 .283.34.283.653 0 .567-.18 1.447-.18 2.1 0 .51.129.85.515.85.747 0 1.417-1.39 1.932-1.39.644 0 .258 4.086 1.237 4.086.824 0 1.16-4.426 1.7-4.426.515 0 .953 1.277 1.417 1.277.593 0 .31-2.242.953-2.242.696 0 2.705 2.667 3.607 2.667.283 0 .386-.255.386-.567 0-1.164-1.494-3.83-1.494-4.682 0-.227.052-.284.283-.284.773 0 3.066 1.192 4.148 1.192.335.057.567-.17.567-.454ZM75.87 16.66c0 .454-1.52 1.93-2.061 1.93-.206 0-.258-.256-.258-.511 0-.454.18-1.05.412-1.248.258-.256.876-.398 1.314-.398.258-.028.593.057.593.227Zm14.76 2.27c0 .766 2.525 4.568 2.99 4.568.411 0 .695-.766.695-1.447 0-.17-.052-.34-.13-.482-.36-.568-2.91-2.78-3.477-2.78a.16.16 0 0 0-.077.141Zm32.277-6.695c0 .312.232.54.515.54.284 0 .516-.256.516-.54 0-.312-.232-.567-.516-.567-.309 0-.515.255-.515.567Zm-3.271 4.88c0-1.56-3.427-1.958-3.427-2.326 0-.284 1.907-.766 2.886-.795-1.495-2.128-3.659-1.9-3.659-2.27 0-.227 1.598-.652 3.092-.652 1.236 0 2.421.312 2.421 1.362 0 .567-.412 1.163-.412 2.07 0 .483.232.909.799.909.618 0 .773-.738.773-1.504 0-.653-.103-1.135-.103-1.447 0-.936.566-1.56 1.391-1.56.695 0 .85.34 1.854.34-.541.369-.747.993-.747 1.305 0 .936.541 1.56.541 3.462 0 3.49-2.962 4.738-6.62 4.738a19.73 19.73 0 0 1-3.117-.255c-.155-.029-.206-.057-.206-.17 0-.284 1.416-.455 1.416-1.873 0-.568-.154-1.079-.154-1.277 0-.114.077-.17.154-.17.31 0 .902 1.277 2.036 1.277.334-.029 1.082-.142 1.082-1.164Zm3.374-2.213c0 1.958-1.314 3.462-3.658 3.887a6.8 6.8 0 0 0 .747.029c2.757 0 3.761-1.362 3.761-2.526 0-.652-.309-1.22-.85-1.39Zm-1.362 28.515c.335-1.107.722-1.873 1.391-3.064-.669-.369-2.421-1.163-2.421-2.469 0-1.532 1.726-2.724 2.086-2.724.155 0 .207.142.207.455 0 .794-.335 2.07-.335 2.78 0 .624.36 1.22.695 1.22.335 0 1.288-1.333 1.288-2.639 0-2.355-1.88-3.064-2.447-3.064-.541 0-1.52.965-3.838.965-4.328 0-5.307-4.71-5.307-6.781 0-.085.026-.114.051-.114.103 0 .516.568 1.881.568.695 0 1.339-.199 2.37-.199 2.396 0 3.478 1.844 4.972 4.17.901.625 3.04 1.618 3.04 4.427 0 2.468-2.396 3.859-2.963 6.498.927-.114 1.468-1.93 2.422-1.93.489 0 .695.426.695 1.078 0 .965-.515 2.44-1.468 3.348.026-.085.026-.198.026-.34 0-.624-.232-1.504-.876-1.504-1.005 0-1.314 1.192-1.881 2.185-.592-2.27-1.365-4.285-2.782-5.533-1.417-1.248-3.89-.567-3.89-2.866 0-.624.361-1.503.361-2.213a1.34 1.34 0 0 0-.155-.652c1.932.794 1.237 2.213 2.447 3.66.747.936 2.783 1.816 3.968 5.646.025-.114.051-.397.051-.596 0-3.263-3.941-6.497-4.276-7.802 2.293.283 2.679.908 3.787 4.227.154.71.901 2.412.901 3.263Zm-.541-10.725c0-.454-1.056-.51-1.159-1.816-.026-.198-.077-.539-.309-.539-.361 0-.077 1.22-.49 1.22-.927 0-1.236-1.986-1.571-1.986-.077 0-.18.057-.18.34 0 .256.051.398.051.681 0 .284-.051.483-.309.483-.541 0-1.03-1.39-1.494-1.39-.103 0-.206.056-.206.17 0 .255.412.766.412.993 0 .539-1.314.255-1.314.68 0 .2.181.256.412.256.413 0 1.082-.198 1.417-.198.206 0 .515.056.515.34 0 .312-.721.71-.721.993 0 .142.129.199.232.199.541 0 1.494-1.05 2.19-1.05.129 0 .412.057.412.255 0 .284-.696.795-.696 1.22 0 .114.052.256.181.256.36 0 .85-1.05 1.52-1.05.257 0 .644.113.85.113.206 0 .257-.113.257-.17Z"/>
  <path fill="#1B1B20" d="M106.14 19.414c.335 0 .387.85.438 1.361.052.256.078.284.181.284.232 0 .618-1.021.876-1.021.386 0 1.416 1.163 3.117 1.163 2.421 0 4.714-1.873 4.714-5.192 0-3.206-2.061-5.079-4.895-5.079-1.339 0-2.344.738-2.859.738-.309.028-.799-.851-1.031-.851-.103 0-.206.226-.206.595 0 .256 0 1.022-.232 1.022-.489 0-2.344-1.532-2.344-.965 0 .51 1.237 2.071 1.237 2.469 0 .397-1.237.766-1.237 1.05 0 .482 1.314.567 1.314 1.191 0 .624-1.365 1.107-1.365 1.56 0 .37 1.365.114 1.365.568 0 .454-1.005 2.015-1.005 2.469 0 .113.026.113.103.113.413-.028 1.546-1.475 1.829-1.475Zm.593-3.604c0-.255-.773-.71-.773-.965 0-.056.052-.056.103-.056.232 0 .593.085.902.085.257 0 .309-1.248.489-1.248.129 0 .387 1.163.593 1.163.257 0 .747-.34.953-.34.051 0 .077.028.077.056 0 .142-.515.738-.515.936 0 .199 1.133.454 1.133.624 0 .227-1.159.2-1.159.398 0 .142.412.766.412.964 0 .057-.025.057-.051.057-.155 0-.773-.312-.953-.312-.232 0-.567.908-.773.908-.052 0-.103-.085-.103-.199l-.052-.88c0-.084-.051-.17-.129-.17-.231 0-.695-.028-.85-.028-.103 0-.128-.028-.128-.056.025-.17.824-.795.824-.937Zm3.916 4.2c-1.417 0-2.345-.767-2.345-1.164 0-.198.129-.34.284-.34.438 0 1.417.737 1.726.737.077 0 .129-.056.129-.17 0-.397-.335-1.05-.335-1.39 0-.085.051-.142.18-.142.541 0 1.34.255 1.777.255.129 0 .181-.085.181-.17 0-.482-1.314-1.447-1.314-1.73 0-.256 1.623-.653 1.623-1.079 0-.454-2.216-.142-2.216-.567 0-.312.413-.851.413-1.079 0-.113-.078-.141-.232-.141-.181 0-1.159.425-1.546.425-.206 0-.438-.056-.438-.34 0-.511.773-1.05 2.01-1.05 1.983 0 3.168 1.504 3.168 4.029.052 3.12-1.983 3.915-3.065 3.915ZM97.046 58.285c0 .199-.052.426-.232.653-.232-.455-.85-.653-1.134-.653-2.06 0-1.288 3.291-3.503 3.291-.928 0-1.005-.142-1.34-.142-.129 0-.231.057-.231.199 0 .567.747 1.986 2.807 1.986 2.061 0 4.07-1.39 4.07-3.121 0-.284-.05-.596-.18-.908.078-.142.284-.227.464-.227.31 0 .49.397.799.397.335 0 .566-.255.566-.624 0-.284-.128-.482-.386-.624a.805.805 0 0 0 .283-.596c0-.369-.231-.738-.644-.738-.18 0-.309.057-.438.227-.051-.397-.231-.766-.618-.766-.309 0-.515.256-.515.624 0 .37.232.653.232 1.022Z"/>
  <path fill="#1B1B20" d="M91.635 59.136c-.593 0-1.52-.71-1.52-1.107 0-.34.284-.51.49-.51.515 0 1.416.68 1.416 1.248.026.17-.077.369-.386.369Zm-5.616-4.966c1.597.454 2.422 1.39 2.576 2.526.155 1.078.36 1.958.747 2.411.516.625 1.494 1.164 2.344 1.164.722 0 1.314-.256 1.314-.993 0-.795-.979-2.582-2.421-2.582-.129 0-.31.028-.515.028-.18 0-.438-.057-.593-.198-.31-.313-.412-1.958-1.03-2.98-.67-1.106-1.392-1.418-2.37-1.418-.696 0-1.495.425-1.495 1.05-.025.368.155.652 1.443.992Z"/>
  <path fill="#1B1B20" d="M96.115 51.475c0-.993-1.88-1.021-1.88-2.525 0-.369.232-1.022.67-1.703.18 1.164.592 1.76 1.52 2.129 1.777.737 2.035 1.844 2.035 3.007 0 1.986-1.262 4.483-4.534 4.483-2.602 0-4.483-2.554-4.483-4.738 0-.596.13-1.249.49-1.249.309 0 .412.256.644.54.901.992 1.88 1.248 3.323 1.248 1.262-.029 2.215-.596 2.215-1.192Zm.078 1.589c-.696.34-.953.284-.953 1.05 0 .284-.052.652-.052.851 0 .255.052.426.31.426.72 0 1.88-1.362 1.88-2.497 0-.312-.155-.454-.335-.454-.18.028-.36.397-.85.624Zm-6.415-11.179c0-1.419 3.066-2.156 3.066-3.915a3.1 3.1 0 0 0-.283-1.164c1.056.653 1.854 1.731 1.854 2.61 0 1.533-1.442 2.242-1.442 3.178 0 1.107 1.545 1.277 1.545 2.667 0 1.135-1.468 2.44-1.468 3.887 0 1.135.721 2.072 1.829 2.214a4.48 4.48 0 0 1-1.03.142c-2.036 0-4.122-1.845-4.122-4.03 0-1.078.412-2.042 1.056-2.723.567.539 1.133.88 1.494.88.31 0 .464-.171.464-.455 0-.794-2.963-1.532-2.963-3.291ZM78.136 52.837c.077.766.721 1.334 1.443 1.249.257-.029.515-.114.67-.227.154.709.695 1.163 1.416 1.05.747-.114 1.237-.738 1.16-1.561a1.455 1.455 0 0 0-.13-.51s.104 0 .181-.03c.721-.141 1.21-.794 1.16-1.56-.078-.794-.722-1.39-1.418-1.305-.257.029-.515.142-.67.312-.18-.652-.746-1.248-1.52-1.106-.695.113-1.159.794-1.081 1.617 0 .142.051.284.103.454 0 0-.129.028-.206.028-.567.057-1.211.71-1.108 1.59Zm3.735-.88c.052.455-.257.88-.67.937-.412.057-.798-.284-.85-.738-.051-.454.258-.88.67-.936.438-.057.825.284.85.738Z"/>
</svg>
