<svg width="24" height="24" viewBox="0 0 24 24" fill="none" xmlns="http://www.w3.org/2000/svg"><path d="M17.7 9.42v2.35a.83.83 0 01-.47.76 12.97 12.97 0 01-5.24 1.27c-1.8-.05-3.59-.48-5.22-1.26a.83.83 0 01-.48-.77V9.42a.66.66 0 01.93-.59c1.5.67 3.13 1.03 4.77 1.07 1.65-.04 3.28-.4 4.79-1.06a.66.66 0 01.92.58z" fill="#06F"></path><path d="M23.86 14.92a5.66 5.66 0 01-5.71 5.18H15L9 24v-3.9l6-3.9h3.15a1.77 1.77 0 001.82-1.58c.19-3 .17-6-.04-9a1.67 1.67 0 00-1.58-1.52c-2.04-.12-4.2-.2-6.36-.2-2.15 0-4.3.07-6.36.22a1.67 1.67 0 00-1.57 1.51c-.21 3-.23 6-.04 9a1.76 1.76 0 001.82 1.57h3.15v3.9H5.84a5.67 5.67 0 01-5.7-5.18c-.2-3.2-.19-6.4.04-9.6A5.58 5.58 0 015.35.22a93.82 93.82 0 0113.28 0 5.58 5.58 0 015.19 5.1c.23 3.2.24 6.4.04 9.6z" fill="#06F"></path></svg>