<svg width="229" height="33" viewBox="0 0 229 33" fill="none" xmlns="http://www.w3.org/2000/svg"><path d="M1.2 21h2.3v-3.6h2.4c2.5 0 4.1-1.6 4.1-3.8 0-2.3-1.5-3.8-4.1-3.8H1.2V21zm2.3-5.5v-3.9h2.2c1.5 0 2.1.9 2.1 2 0 1-.6 2-2 2H3.4zM14 21.2c1 0 2-.4 2.4-1v.8h2v-5.3c0-2-1.3-3.2-3.4-3.2-1.8 0-3.1.9-3.6 2.5h2c.3-.5.7-.8 1.5-.8.9 0 1.4.6 1.4 1.3v1.2c-.4-.4-1.1-.7-2.1-.7-2 0-3.4.8-3.4 2.6 0 1.6 1.3 2.6 3.2 2.6zm.6-1.4c-1 0-1.6-.5-1.6-1.3 0-.7.6-1.1 1.6-1.1s1.7.4 1.7 1.1c0 .7-.8 1.3-1.7 1.3zm6 1.2h2.1v-3.8c0-1.7.8-2.4 2.2-2.4h.5v-2.2H25c-1.2 0-2.2.4-2.5 1.7v-1.6h-2V21zm9.1 0h1.6v-1.8h-1c-.5 0-.7-.2-.7-.7v-4h1.8v-1.8h-1.8v-2.3h-2.2v2.3h-1.2v1.7h1.2v4.2c0 1.5.7 2.4 2.3 2.4zm3.3 0h2.2v-5c0-1 .6-1.6 1.6-1.6s1.5.7 1.5 1.6v5h2.2v-5.3c0-2-1.2-3.2-3-3.2-1.2 0-2 .4-2.4 1.2v-1H33V21zm13 .2c1.9 0 3.4-1.1 3.6-2.6h-1.9c-.2.5-.7 1-1.7 1-1.2 0-1.7-.8-1.7-1.8v-.2h5.4V16c0-2-1.2-3.6-3.7-3.6s-3.8 1.6-3.8 3.8v1.2c0 2.3 1.5 3.7 3.8 3.7zM44.3 16c0-1.1.4-2 1.7-2 1.2 0 1.7.8 1.7 1.8v.3h-3.4V16zm7.2 5h2.2v-3.8c0-1.7.7-2.4 2.1-2.4h.5v-2.2H56c-1.2 0-2.2.4-2.5 1.7v-1.6h-2V21zm10 0h2.2v-3.6H66c2.5 0 4.2-1.6 4.2-3.8 0-2.3-1.6-3.8-4.2-3.8h-4.6V21zm2.2-5.5v-3.9H66c1.4 0 2 .9 2 2 0 1-.6 2-2 2h-2.3zm8 5.5H74v-3.8c0-1.7.8-2.4 2.2-2.4h.4v-2.2h-.2c-1.3 0-2.2.4-2.5 1.7v-1.6h-2V21zm9.7.2c2.5 0 4-1.6 4-3.8v-1.2c0-2-1.5-3.7-4-3.7s-3.9 1.6-3.9 3.7v1.2c0 2.2 1.4 3.8 4 3.8zm1.8-3.6c0 1-.5 1.9-1.8 1.9-1.2 0-1.8-.8-1.8-2v-1.4c0-1 .6-1.9 1.8-1.9 1.3 0 1.8.8 1.8 1.9v1.5zm7.6 6.4c2.3 0 4-1.4 4-3.2v-8.1h-2.1v1c-.3-.6-1.2-1.2-2.5-1.2-2.3 0-3.4 1.6-3.4 3.4v1.3c0 1.8 1.1 3.4 3.4 3.4 1 0 2-.5 2.4-1.1v1.3c0 1-.7 1.5-1.8 1.5-.9 0-1.6-.2-1.8-.8h-2.2c.4 1.6 2 2.5 4 2.5zm-.1-5.1c-1.2 0-1.8-.8-1.8-1.9v-1c0-1 .6-1.8 1.9-1.8 1 0 1.8.8 1.8 1.9v1c0 1.1-.9 1.8-2 1.8zm6.2 2.1H99v-3.8c0-1.7.7-2.4 2.2-2.4h.4v-2.2h-.3c-1.2 0-2.2.4-2.5 1.7v-1.6h-2V21zm8.7.2c1 0 2-.4 2.4-1v.8h2.1v-5.3c0-2-1.4-3.2-3.5-3.2-1.8 0-3 .9-3.6 2.5h2c.3-.5.8-.8 1.5-.8.9 0 1.4.6 1.4 1.3v1.2c-.3-.4-1-.7-2-.7-2 0-3.4.8-3.4 2.6 0 1.6 1.3 2.6 3.1 2.6zm.6-1.4c-1 0-1.6-.5-1.6-1.3 0-.7.6-1.1 1.6-1.1s1.7.4 1.7 1.1c0 .7-.8 1.3-1.7 1.3zm6 1.2h2.2v-5c0-1 .5-1.6 1.5-1.6s1.5.7 1.5 1.6v5h2.2v-5c0-1 .6-1.6 1.5-1.6 1 0 1.5.7 1.5 1.6v5h2.2v-5.3c0-2-1.2-3.2-3-3.2-1.2 0-2.1.4-2.7 1.2a2.7 2.7 0 00-2.4-1.2c-1.2 0-2 .4-2.4 1.2v-1h-2.1V21z" fill="#1B1B20"/><path fill="#808189" d="M142 3h1v27h-1z"/><path d="M185.8 19.8a6.4 6.4 0 01-6.4 5.8H176L169 30v-4.4l6.8-4.4h3.5a2 2 0 002-1.8c.3-3.3.2-6.7 0-10a1.9 1.9 0 00-1.8-1.8 117.2 117.2 0 00-14.3 0 1.9 1.9 0 00-1.7 1.7c-.3 3.4-.3 6.8 0 10.2a2 2 0 002 1.7h3.5v4.4h-3.5a6.4 6.4 0 01-6.4-5.8 81 81 0 010-10.8 6.3 6.3 0 015.8-5.7 105.5 105.5 0 0115 0 6.3 6.3 0 015.8 5.7c.2 3.6.3 7.2 0 10.8z" fill="#FF5100"/><path d="M222 13.6v2.6a1 1 0 01-.6.9c-1.9.9-3.9 1.4-6 1.4-2 0-4-.5-5.8-1.4a1 1 0 01-.5-.9v-2.6a.7.7 0 01.3-.6.7.7 0 01.7 0c1.7.7 3.5 1 5.4 1.1 1.8 0 3.7-.4 5.4-1.2a.7.7 0 011 .7z" fill="#06F"/><path d="M228.8 19.8a6.4 6.4 0 01-6.4 5.8H219L212 30v-4.4l6.8-4.4h3.5a2 2 0 002-1.8c.3-3.3.3-6.7 0-10a1.9 1.9 0 00-1.8-1.8 117.3 117.3 0 00-14.3 0 1.9 1.9 0 00-1.7 1.7c-.3 3.4-.3 6.8 0 10.2a2 2 0 002 1.7h3.5v4.4h-3.5a6.4 6.4 0 01-6.4-5.8 81 81 0 010-10.8 6.3 6.3 0 015.8-5.7 105.6 105.6 0 0115 0 6.3 6.3 0 015.8 5.7 81 81 0 010 10.8z" fill="#06F"/></svg>