<svg width="229" height="33" viewBox="0 0 229 33" fill="none" xmlns="http://www.w3.org/2000/svg">
<path d="M1.232 20H3.472V16.384H5.888C8.4 16.384 10.048 14.8 10.048 12.56C10.048 10.32 8.464 8.8 5.888 8.8H1.232V20ZM3.472 14.544V10.64H5.744C7.168 10.64 7.808 11.456 7.808 12.56C7.808 13.664 7.168 14.544 5.744 14.544H3.472ZM13.997 20.192C14.957 20.192 16.013 19.792 16.397 19.232V20H18.493V14.688C18.493 12.752 17.069 11.488 14.989 11.488C13.197 11.488 11.901 12.352 11.421 13.968H13.437C13.661 13.52 14.125 13.184 14.877 13.184C15.773 13.184 16.317 13.76 16.317 14.528V15.664C15.933 15.344 15.197 14.96 14.205 14.96C12.205 14.96 10.845 15.792 10.845 17.6C10.845 19.216 12.125 20.192 13.997 20.192ZM14.557 18.752C13.645 18.752 12.957 18.304 12.957 17.536C12.957 16.768 13.597 16.352 14.621 16.352C15.597 16.352 16.317 16.784 16.317 17.52C16.317 18.224 15.517 18.752 14.557 18.752ZM20.5564 20H22.7324V16.16C22.7324 14.48 23.5004 13.776 24.9244 13.776H25.3724V11.616H25.1164C23.8684 11.616 22.8924 12.048 22.6204 13.296V11.68H20.5564V20ZM29.7493 20H31.2533V18.24H30.3733C29.7973 18.24 29.5893 18.016 29.5893 17.472V13.44H31.3653V11.68H29.5893V9.408H27.3973V11.68H26.2133V13.44H27.3973V17.632C27.3973 19.104 28.1493 20 29.7493 20ZM32.9939 20H35.1699V15.072C35.1699 13.952 35.7939 13.376 36.7699 13.376C37.8259 13.376 38.2899 14.064 38.2899 15.024V20H40.4659V14.672C40.4659 12.672 39.3299 11.488 37.5219 11.488C36.3379 11.488 35.4899 11.904 35.0739 12.672V11.68H32.9939V20ZM46.0291 20.192C47.8691 20.192 49.3571 19.088 49.6451 17.568H47.7411C47.5331 18.144 46.9571 18.624 46.0291 18.624C44.7651 18.624 44.2691 17.776 44.2691 16.8V16.592H49.7091V15.136C49.7091 13.136 48.4611 11.488 45.9971 11.488C43.5011 11.488 42.1571 13.088 42.1571 15.344V16.48C42.1571 18.816 43.6771 20.192 46.0291 20.192ZM44.2691 14.976C44.2691 13.856 44.7491 13.024 45.9971 13.024C47.1651 13.024 47.7091 13.808 47.7091 14.848V15.056H44.2691V14.976ZM51.4783 20H53.6543V16.16C53.6543 14.48 54.4223 13.776 55.8463 13.776H56.2943V11.616H56.0383C54.7903 11.616 53.8143 12.048 53.5423 13.296V11.68H51.4783V20ZM61.7789 20H64.0189V16.384H66.4349C68.9469 16.384 70.5949 14.8 70.5949 12.56C70.5949 10.32 69.0109 8.8 66.4349 8.8H61.7789V20ZM64.0189 14.544V10.64H66.2909C67.7149 10.64 68.3549 11.456 68.3549 12.56C68.3549 13.664 67.7149 14.544 66.2909 14.544H64.0189ZM72.0564 20H74.2324V16.16C74.2324 14.48 75.0004 13.776 76.4244 13.776H76.8724V11.616H76.6164C75.3684 11.616 74.3924 12.048 74.1204 13.296V11.68H72.0564V20ZM81.749 20.192C84.245 20.192 85.669 18.56 85.669 16.432V15.248C85.669 13.12 84.245 11.488 81.749 11.488C79.253 11.488 77.829 13.12 77.829 15.248V16.432C77.829 18.56 79.253 20.192 81.749 20.192ZM83.557 16.576C83.557 17.664 82.981 18.48 81.749 18.48C80.517 18.48 79.941 17.664 79.941 16.576V15.104C79.941 14.016 80.517 13.2 81.749 13.2C82.981 13.2 83.557 14.016 83.557 15.104V16.576ZM91.079 22.976C93.399 22.976 95.063 21.6 95.063 19.824V11.68H92.983V12.688C92.695 12.128 91.799 11.488 90.519 11.488C88.247 11.488 87.079 13.088 87.079 14.944V16.16C87.079 17.984 88.263 19.616 90.503 19.616C91.575 19.616 92.535 19.056 92.887 18.48V19.792C92.887 20.72 92.183 21.328 91.079 21.328C90.231 21.328 89.575 21.072 89.287 20.496H87.175C87.511 22.064 89.127 22.976 91.079 22.976ZM91.015 17.872C89.831 17.872 89.239 17.104 89.239 16.048V15.088C89.239 13.952 89.863 13.232 91.079 13.232C92.119 13.232 92.887 13.968 92.887 15.088V16.048C92.887 17.216 92.039 17.872 91.015 17.872ZM97.2126 20H99.3886V16.16C99.3886 14.48 100.157 13.776 101.581 13.776H102.029V11.616H101.773C100.525 11.616 99.5486 12.048 99.2766 13.296V11.68H97.2126V20ZM105.95 20.192C106.91 20.192 107.966 19.792 108.35 19.232V20H110.446V14.688C110.446 12.752 109.022 11.488 106.942 11.488C105.15 11.488 103.854 12.352 103.374 13.968H105.39C105.614 13.52 106.078 13.184 106.83 13.184C107.726 13.184 108.27 13.76 108.27 14.528V15.664C107.886 15.344 107.15 14.96 106.158 14.96C104.158 14.96 102.798 15.792 102.798 17.6C102.798 19.216 104.078 20.192 105.95 20.192ZM106.51 18.752C105.598 18.752 104.91 18.304 104.91 17.536C104.91 16.768 105.55 16.352 106.574 16.352C107.55 16.352 108.27 16.784 108.27 17.52C108.27 18.224 107.47 18.752 106.51 18.752ZM112.51 20H114.686V15.072C114.686 13.952 115.262 13.376 116.238 13.376C117.294 13.376 117.726 14.064 117.726 15.024V20H119.902V15.072C119.902 13.952 120.494 13.376 121.454 13.376C122.51 13.376 122.942 14.064 122.942 15.024V20H125.118V14.672C125.118 12.672 123.886 11.488 122.142 11.488C120.926 11.488 119.998 11.888 119.39 12.672C118.894 11.92 118.062 11.488 116.99 11.488C115.806 11.488 115.006 11.904 114.59 12.672V11.68H112.51V20Z" fill="#FCFCFC"/>
<rect x="142" y="3" width="1" height="27" fill="#4E4E58"/>
<path d="M185.832 19.7839C185.695 21.3873 184.956 22.8795 183.764 23.9607C182.572 25.0419 181.015 25.632 179.406 25.6125H175.862L169.112 30V25.6125L175.862 21.225H179.412C179.915 21.2432 180.405 21.07 180.785 20.7405C181.165 20.411 181.405 19.9497 181.458 19.4498C181.664 16.0773 181.647 12.6949 181.407 9.32475C181.366 8.87519 181.165 8.45527 180.841 8.14171C180.516 7.82816 180.089 7.64191 179.639 7.617C177.337 7.47525 174.914 7.3875 172.487 7.3875C170.06 7.3875 167.637 7.4685 165.335 7.6305C164.885 7.65541 164.458 7.84166 164.133 8.15521C163.808 8.46877 163.607 8.88869 163.567 9.33825C163.327 12.7084 163.31 16.0908 163.516 19.4632C163.572 19.9607 163.814 20.4187 164.193 20.7454C164.572 21.0722 165.061 21.2435 165.561 21.225H169.112V25.6125H165.568C163.961 25.6285 162.407 25.0364 161.217 23.9548C160.028 22.8733 159.292 21.3822 159.156 19.7805C158.932 16.1834 158.949 12.5754 159.206 8.9805C159.334 7.48975 159.99 6.09366 161.056 5.04407C162.123 3.99449 163.529 3.36051 165.021 3.2565C167.424 3.08438 169.956 3 172.487 3C175.018 3 177.549 3.08438 179.952 3.2565C181.449 3.35784 182.861 3.99237 183.93 5.04501C184.999 6.09765 185.656 7.49868 185.781 8.994C186.037 12.5855 186.054 16.1901 185.832 19.7839Z" fill="#FF5100"/>
<path d="M221.909 13.5941V16.2367C221.912 16.4159 221.864 16.5922 221.77 16.7448C221.676 16.8974 221.54 17.0198 221.379 17.0974C219.539 17.9796 217.534 18.466 215.493 18.525C213.455 18.4677 211.451 17.9837 209.611 17.1041C209.448 17.0262 209.311 16.9029 209.217 16.7491C209.122 16.5952 209.074 16.4173 209.078 16.2367V13.5941C209.082 13.473 209.116 13.3549 209.177 13.2498C209.237 13.1448 209.322 13.056 209.424 12.9912C209.527 12.9264 209.643 12.8875 209.764 12.8779C209.885 12.8683 210.006 12.8882 210.118 12.936C211.814 13.6826 213.64 14.0908 215.493 14.1375C217.347 14.0928 219.174 13.687 220.872 12.9427C220.983 12.8958 221.104 12.8764 221.223 12.886C221.343 12.8956 221.459 12.934 221.561 12.998C221.663 13.062 221.747 13.1496 221.808 13.2534C221.869 13.3572 221.903 13.4741 221.909 13.5941Z" fill="#0066FF"/>
<path d="M228.845 19.7839C228.707 21.3873 227.968 22.8795 226.776 23.9607C225.583 25.0419 224.025 25.632 222.416 25.6125H218.87L212.117 30V25.6125L218.87 21.225H222.422C222.925 21.2432 223.416 21.07 223.795 20.7405C224.175 20.411 224.416 19.9497 224.469 19.4498C224.675 16.0773 224.658 12.6949 224.418 9.32475C224.377 8.87519 224.176 8.45527 223.851 8.14171C223.526 7.82816 223.099 7.64191 222.649 7.617C220.346 7.47525 217.921 7.3875 215.493 7.3875C213.066 7.3875 210.641 7.4685 208.338 7.6305C207.887 7.65541 207.461 7.84166 207.136 8.15521C206.811 8.46877 206.61 8.88869 206.569 9.33825C206.329 12.7084 206.312 16.0908 206.518 19.4632C206.574 19.9607 206.816 20.4187 207.196 20.7454C207.575 21.0722 208.064 21.2435 208.565 21.225H212.117V25.6125H208.571C206.963 25.6285 205.408 25.0364 204.219 23.9548C203.029 22.8733 202.292 21.3822 202.156 19.7805C201.932 16.1834 201.949 12.5754 202.206 8.9805C202.334 7.48975 202.99 6.09366 204.057 5.04407C205.124 3.99449 206.531 3.36051 208.024 3.2565C210.428 3.08438 212.961 3 215.493 3C218.026 3 220.558 3.08438 222.963 3.2565C224.46 3.35784 225.872 3.99237 226.942 5.04501C228.012 6.09765 228.669 7.49868 228.794 8.994C229.051 12.5855 229.068 16.1901 228.845 19.7839Z" fill="#0066FF"/>
</svg>
