<svg width="24" height="24" viewBox="0 0 24 24" fill="none" xmlns="http://www.w3.org/2000/svg"><path d="M23.85 14.92a5.66 5.66 0 01-5.71 5.18h-3.15l-6 3.9v-3.9l6-3.9h3.15a1.76 1.76 0 001.82-1.58c.19-3 .17-6-.04-9a1.67 1.67 0 00-1.57-1.52c-2.05-.12-4.2-.2-6.36-.2s-4.31.07-6.36.22a1.67 1.67 0 00-1.57 1.51c-.21 3-.23 6-.05 9a1.76 1.76 0 001.82 1.57H9v3.9H5.84a5.66 5.66 0 01-5.7-5.18c-.2-3.2-.19-6.4.04-9.6A5.58 5.58 0 015.35.22a93.73 93.73 0 0113.27 0 5.58 5.58 0 015.19 5.1c.22 3.2.24 6.4.04 9.6z" fill="#FF5100"></path></svg>