<svg fill="none" height="311" width="396" xmlns="http://www.w3.org/2000/svg"><path d="M249 201.8c-20.2 7.5-64.3 11.4-111.5-13.3C98 167.8 81.9 134.9 97.9 65.7c10.3-44.7 68.7-82 99.4-47.2 14.8 16.6 4 45 26.3 66 22.3 21.1 54 12.4 72.3 32.3 18.2 19.9 16.6 61.3-46.9 85z" stroke="#1b1b20" stroke-width="4"/><path d="M166.9 189.7c-5.4.6-10.6 3.3-14.4 7.3-1.8 1.8-3.4 4-5 6a31.6 31.6 0 00-4.1 8.5l-.5 1.6-.4 3.8c0 1.7 0 3.5.6 5.1.7 2.5 1.6 4.9 3 7a32.3 32.3 0 0024.6 14.7 28.3 28.3 0 0011-1.5c2.7-1 5-2.3 7-4.3 2-1.8 3.5-4.2 4.8-6.6 1.1-2.2 2-4.5 2.7-6.6.7-1.7 1-3.4 1-5.3.4-2.8.2-5.7-.8-8.3a32.3 32.3 0 00-5.8-9c-.6-2.2-2-3.5-3.8-4.8l-5.6-3.8a26.7 26.7 0 00-7-3.2c-2.4-.7-4.9-1-7.3-.6zm3.4 16.9l3.7 2.1c.4.3.4.7.8 1 1.2 1.3 2.6 2.6 3.7 4.1.6 1 1.3 1.9 1.6 2.7V218.1a19.5 19.5 0 01-3.4 7.8l-.6.4-.4.2-2.3.6-2.5-.1c-1.3-.4-2.6-.5-4-1l-4-2.3-2.3-2.4c-.6-.9-1.2-1.6-1.5-2.5-.1-.2 0-.4-.2-.6v-.6l.6-2.3c.8-1.6 1.7-2.9 2.7-4.3 1-1.3 2.2-2.5 3.4-3.5.5-.5 1.2-.7 1.6-1l1-.3h.3l1.8.4zm-2.4-.3l-1 .1h1zm-8.6 12.6l.1 1-.1-1zm.4.5l.5 1c-.3-.2-.4-.6-.5-1zM35.7 39.6a2 2 0 003 2.3c.7-.8.7-2-.3-2.7-.9-.4-2-.3-2.6.4zM148.6 167a2 2 0 003 2.3 2 2 0 00-3-2.3zM79 8.8a2 2 0 003 2.3c.7-.7.6-2-.3-2.6a2 2 0 00-2.7.3zM98.7 242a2 2 0 003 2.3c.6-.7.6-2-.4-2.7-.7-.5-1.8-.4-2.6.4zm39.3-20.5a2 2 0 003 2.3c.7-.8.6-2-.3-2.7-.9-.4-2.1-.4-2.7.4zm32.2-53.7a2 2 0 003 2.3 2 2 0 00-3-2.3zm18-120.9a2 2 0 003.1 2.3c.6-.8.6-2-.4-2.7-.7-.5-1.9-.2-2.6.4zm204.3 260.3a2 2 0 003 2.3c.7-.7.6-2-.3-2.6-.9-.5-2.1-.4-2.7.3zm-126.3-31.6a2 2 0 003 2.3c.7-.7.6-2-.3-2.7-.9-.4-2.1-.3-2.7.4zm-93-12.3a2 2 0 003 2.3c.6-.8.6-2-.4-2.7a2 2 0 00-2.6.4zm217-136a2 2 0 003 2.3c.6-.7.6-2-.4-2.6-.7-.6-1.8-.5-2.6.3zm-102.4-40c-1-.3-1.9-.5-3-.3-.6 0-1.4.3-2.2.4-.6.1-.9.6-1 1.1l-.3.6c0 .2 0 .2-.2.3-.3.5-.4.9-.3 1.4 0 2-.1 4 .4 5.9.3.9 1 1.6 1.8 2 .9.4 1.7.6 2.5.5.6 0 1.4-.2 1.8-.4l1.1-.6a8.5 8.5 0 003-2.3c.2-.3.5-.7.6-1.2.2-.5.3-1 .2-1.5 0-.7-.3-1.6-.6-2.4-.6-.8-1.1-1.7-2-2.4-.5-.4-1.1-.8-1.8-1.1zm0 4.6l.6.6c.1.1 0 .3.2.4.1.1 0 .3-.1.4l-.1.2-.1.1-.4.5-1 .7c-.3.1-.9.2-1.4.6h-.5-.3v-.2c-.2-1.3-.1-2.7-.2-4.2l1-.1h.7c.5 0 .6.2 1 .4l.7.6zm-65.5 123.7c0 .1-.2.6 0 .7.1.1.6.2.7 0 0-.1.2-.6 0-.7s-.6-.2-.7 0zm-12.8-3.3c-.1.2-.2.6 0 .7s.6.2.7 0c0-.1.2-.5 0-.6-.2-.2-.6-.2-.7 0zm-65-20.7v.7c.1 0 .6.2.7 0 .1-.1.2-.5 0-.7s-.5-.2-.6 0zm75.3-95.5c-.1.1-.2.5 0 .6.1.2.5.2.7 0 0 0 .2-.5 0-.6-.2-.1-.5-.4-.7 0zm34-68c-.2 0-.3.5-.1.6.1.1.6.2.7 0 0-.1.2-.5 0-.6-.2-.2-.6-.2-.7 0zm13.7-7.6c-.1.1-.2.6 0 .7.1 0 .6.2.7 0 0-.1.2-.6 0-.7-.2 0-.6-.2-.7 0zm-21.2 61c-.1.2-.2.6 0 .8h.6c.1-.2.2-.6 0-.7s-.4-.3-.6 0zm-9.5 15.9c0 .1-.2.5 0 .7h.7c0-.2.2-.6 0-.7-.1-.1-.4-.3-.7 0zm-35.4 121.2c-.1.2-.2.6 0 .7 0 .1.5.2.6 0 .1-.1.2-.5 0-.6s-.5-.2-.6 0zm16.2-26.2c0 .2-.2.6 0 .7.2.1.6.2.7 0 .1 0 .2-.5 0-.6s-.4-.4-.7 0zm5 4.7c-.2.1-.2.6 0 .7 0 0 .5.2.6 0 .1-.1.2-.6 0-.7s-.5-.2-.7 0zm-12.8 1s-.2.5 0 .6c.2.1.6.2.7 0 .1 0 .2-.5 0-.6-.1-.1-.4-.4-.7 0zm-11.9-6c-.1.2-.2.7 0 .8.1.1.5.2.7 0v-.7c-.2 0-.6-.2-.7 0zM32.5 14.3c-.8 1.1-.8 2.6.3 3.4 1 .8 2.6.7 3.4-.3.8-1.1.7-2.6-.4-3.4-1-.8-2.5-.7-3.3.3zm184.6 192c-.3.5-.3 1 .2 1.3.5.4 1 .3 1.3-.1s.3-1-.2-1.4c-.4-.3-1-.1-1.3.2zm36.1-35.8c-.3.5-.2 1 .2 1.3.5.4 1 .3 1.4-.1s.2-1-.2-1.4c-.5-.3-1-.3-1.4.2zm-27.8-144c-.3.4-.2 1 .2 1.3.5.3 1 .3 1.4-.2s.2-1-.2-1.3c-.5-.4-1-.3-1.4.2zm6.2 51.3c-.3.5-.2 1 .2 1.4s1 .2 1.4-.2c.3-.5.2-1-.2-1.4-.5-.3-1-.2-1.4.2zM143 22.1c-.4.5-.3 1 .2 1.4s1 .2 1.3-.2.3-1-.2-1.4-1-.2-1.3.2zm-103.5 33c-1.8 2.4-1.4 5.7.9 7.5s5.6 1.5 7.4-1a5.3 5.3 0 00-1-7.3c-2.4-1.6-5.6-1.4-7.3.9zM301.5 197c-.9 1.2-.8 3 .6 4 1.3 1 3 .8 4-.6 1-1.2.8-3-.5-4-1.4-.8-3.1-.6-4 .6zM1 66.2c-.9 1.3-.8 3 .6 4 1.2 1 3 .9 4-.5 1-1.2.8-3-.6-4-1.3-.8-3-.6-4 .5z" fill="#1b1b20"/></svg>