<svg width="382" height="464" fill="none" xmlns="http://www.w3.org/2000/svg"><path d="M134.2.6a2 2 0 00-.5 3.8c1 .1 2-.5 2.2-1.6 0-1-.7-1.9-1.7-2.2zM293 43a2 2 0 00-.5 3.7 2 2 0 00.5-3.7zM156.8 83a2 2 0 00-.5 3.7 2 2 0 00.5-3.8zm38.5-21.1a2 2 0 00-.6 3.8c1 0 2-.5 2.2-1.7.1-1-.5-1.8-1.6-2.1zm44.8-2.3a2 2 0 00-.6 3.8c1 .1 2-.5 2.2-1.6 0-1-.6-2-1.6-2.2zm62.6 2.8a2 2 0 00-.6 3.8 2 2 0 00.6-3.8zM182.6 170.6a2 2 0 00-.6 3.8c1 .1 2-.5 2.2-1.6.1-1-.7-1.9-1.6-2.2zM34.9 458.8a2 2 0 00-.6 3.8c1 .1 2-.5 2.2-1.6 0-1-.7-2-1.6-2.2zM2.7 332.6a2 2 0 00-.6 3.8c1 .2 2-.4 2.2-1.6 0-1-.7-2-1.6-2.2zm244.5-214.1a2 2 0 00-.6 3.8c1 .1 2-.5 2.2-1.6.1-1-.5-2-1.6-2.2zm-6 249.9a2 2 0 00-.5 3.8c1 .1 2-.5 2.1-1.6.2-1-.5-1.9-1.6-2.2zm-13.4-109.2c-.3-1-.5-1.8-1.2-2.7-.2-.6-1-1-1.4-1.7-.3-.5-1-.6-1.5-.4h-1c-.5 0-1 0-1.4.4-1.7.9-3.5 1.8-4.9 3.1-.7.7-1 1.6-1 2.6.1 1 .4 1.8.8 2.5l1.2 1.3 1 .7c1 .8 2.4 1.3 3.5 1.5h1.3a3 3 0 001.5-.5c.6-.3 1.3-1 1.8-1.7.5-1 1-1.8 1.2-3 0-.5.2-1.3 0-2zm-4 2.3c0 .2-.3.4-.3.8 0 .2-.2.1-.3.3 0 .2-.2.2-.4.2h-.4l-.5-.2-1-.5-1.3-1-.3-.4s0-.2-.2-.2l.2-.2c1.1-.8 2.4-1.4 3.6-2.2l.7.9.3.6v1l-.1 1zm115.8-104.4l-.6.3c0 .2.1.6.3.7.2 0 .6-.1.6-.3 0-.2 0-.6-.3-.7zm-3.2-12.8c-.2 0-.6.1-.6.3 0 .2 0 .6.3.6.2 0 .6 0 .6-.3 0-.1-.1-.5-.3-.6zm-66.9-93.1c-.1 0-.5 0-.6.3 0 .2.1.6.3.6.2 0 .6-.1.6-.3 0-.2 0-.6-.3-.6zM114.3 161.7c-.2 0-.6.1-.6.3 0 .2.1.6.3.6.2 0 .6 0 .6-.3 0-.2.1-.5-.3-.6zm.9 26.7c-.2 0-.6.1-.7.3 0 .2.1.6.3.6.2 0 .6 0 .7-.3 0-.1-.1-.5-.3-.6zm13.2 8.6c-.2 0-.6 0-.7.3 0 .2.1.6.3.6.2 0 .6-.1.6-.3 0-.2 0-.6-.2-.6zm11.2-19c-.1 0-.5.2-.6.4 0 .2.1.6.3.6.2 0 .6 0 .6-.3 0-.2.1-.5-.3-.6zm-18.3-.7c-.2 0-.6.1-.7.3 0 .2.1.6.3.6.2 0 .6 0 .6-.3 0-.2.1-.5-.2-.6zM327 140.2c-.2 0-.6 0-.6.2s0 .6.3.7c.1 0 .6-.1.6-.3 0-.2-.1-.6-.3-.6zm30.8 1.8c-.2 0-.6.1-.7.3 0 .2.1.6.3.6.2 0 .6 0 .6-.3 0-.1.1-.5-.2-.6zm-1.8 6.5l-.6.3c0 .2 0 .6.3.7.2 0 .6-.1.6-.3 0-.2-.1-.6-.3-.7zm-6.9-10.7c-.2 0-.6.1-.6.3 0 .2.1.6.3.6.2 0 .6 0 .6-.3 0-.1.1-.5-.3-.6zm-.5-13.3c-.2 0-.6.1-.6.3 0 .2 0 .6.3.7.2 0 .6-.1.6-.3 0-.2-.1-.6-.3-.7zM146.9 12.7c-1.3-.1-2.6.6-2.8 2-.2 1.3.6 2.6 1.9 2.8 1.3.2 2.6-.6 2.8-2 .2-1.3-.6-2.6-2-2.8zm198.5 135.4c-.6 0-1 .2-1 .8-.2.6.1 1 .7 1.1.6 0 1-.2 1-.8.2-.6-.3-1-.7-1.1zM89 271.1c-.6 0-1 .3-1.1.9-.1.6.2 1 .8 1 .5.2 1-.2 1-.7.1-.6-.2-1-.7-1.1zm14-108.3c-.5-.1-1 .2-1 .8-.1.5.2 1 .8 1 .6.2 1-.2 1-.7.2-.6-.2-1-.7-1.1zm33 .6c-.6 0-1 .2-1.1.8-.1.6.2 1 .8 1 .5.2 1-.2 1-.7.1-.6-.2-1-.8-1.1zm82.6-41.2c-.6 0-1 .2-1.1.8 0 .6.2 1 .8 1.1.6 0 1-.2 1-.8.2-.6-.2-1-.7-1zm-96.5-111a5.3 5.3 0 00-6 4.3c-.4 2.9 1.3 5.7 4.3 6.1 2.8.4 5.6-1.5 6-4.3.3-3-1.4-5.7-4.3-6.1zM88.7 326.3c-1.6-.2-3 .7-3.3 2.5-.2 1.5.7 3 2.4 3.2 1.5.2 3-.7 3.3-2.4 0-1.6-1-3-2.4-3.3zM19 12c-1.5-.3-3 .7-3.2 2.4-.2 1.5.7 3 2.4 3.3 1.5.2 3-.8 3.2-2.5 0-1.5-.9-2.8-2.4-3.2z" fill="#1B1B20"/><path d="M356.4 25.8c27 32.6 31.8 85.5 2 144.4-25 49.2-88.6 82.5-172.7 56.7-44.8-13.7-86.5-72.9-44-111.6 20.3-18.5 72.2 4.2 97.9-23.7 25.7-27.9 15-49.9 39.3-72.7 24.2-22.9 57.3-17.4 77.5 7z" stroke="#1B1B20" stroke-width="4"/><path d="M129.4 236.2c.1.7.4 1.3.8 1.9a8.1 8.1 0 003 3.5l3.4 1.8 3.2 1.9c2.3 1.3 4.6 2.5 6.8 4l6.2 3.1c1.4.8 2.8 1.6 4.2 2.2l4.3 2a67.4 67.4 0 007.2 2.8 10 10 0 0010.6-2.6 12 12 0 002.9-4.8c.5-1.4.7-2.8.9-4.4a15 15 0 000-3.7l-.7-4.7-1-5v-.7c0-1-.2-1.9-.3-2.8-.2-1.6-.4-3.2-.9-4.8-.3-1.3-.6-2.5-.7-3.8-.4-2.6-.8-5-1.5-7.6l-.9-3.2c-.3-1.3-.8-2.5-1.5-3.6a12 12 0 00-4-4.1c-1.7-1.1-3.6-1.5-5.6-1.6-2.1 0-4 .6-5.8 1.6-1.9.9-3.5 2.2-5.1 3.5l-3.5 3.1-2 1.7-1.7 1.5c-1.3 1-2.7 2-4.2 2.9l-3 1.8c-1 .7-1.9 1.4-2.7 2.3l-.5.5c-.5.3-1 .6-1.3 1l-1 1c-.6.5-1.3 1.1-1.8 1.8-.8 1-1.6 2-2.2 3.2l-.5.9c-.6 1-.9 2-1 2.9v-.5l-.5 3 .4 2zm35.1 4.6l-4.5-2.4c-3.9-2-7.7-4-11.5-6.3l.4-.3.4-.3 2.7-1.6 3.2-2.2 4.5-3.5 2.9-2.5.6-.6.2.7c.5 2.5.7 5 1.3 7.6l.8 3.3v.3c.3 2 .3 4 .7 5.9l.7 2.9-2.4-1z" fill="#1B1B20"/></svg>