<svg class="u-mb-lg u-Pr-xl lg:u-Pr-lg xl:u-pr-0" width="237" height="55" viewBox="0 0 237 55" fill="none" xmlns="http://www.w3.org/2000/svg">
              <path d="M84.3 39.9c8.4 0 13.6-5.6 14-12.3H92c-.5 3.7-2.8 6.9-7.8 6.9-5.6 0-8-3.7-8-9v-5.3c0-5.2 2.5-9 8-9 5 0 7.3 3.3 7.8 7h6.1C98 11.4 92.7 5.8 84.3 5.8c-10 0-14.5 6.3-14.5 14.6v4.7c0 8.4 4.5 14.7 14.5 14.7zM101.7 39.2h6.5V24.8c0-3.2 1.8-5 4.7-5 3.2 0 4.5 2 4.5 4.9v14.5h6.5V23.7c0-5.8-3.4-9.3-8.7-9.3-3.2 0-5.7 1.3-7 3.4V5.1h-6.5v34.1zM136.2 39.8c2.9 0 6-1.2 7.2-2.8v2.2h6.2V23.7c0-5.6-4.3-9.3-10.4-9.3-5.3 0-9.2 2.5-10.6 7.2h6c.7-1.3 2-2.3 4.2-2.3 2.7 0 4.3 1.7 4.3 4v3.3a10 10 0 00-6.3-2.1c-5.9 0-10 2.4-10 7.7 0 4.7 3.9 7.6 9.4 7.6zm1.7-4.2c-2.7 0-4.8-1.3-4.8-3.6 0-2.2 2-3.4 5-3.4 2.9 0 5 1.3 5 3.4 0 2.2-2.4 3.6-5.2 3.6zM161.6 39.2h4.5v-5.1h-2.6c-1.7 0-2.3-.7-2.3-2.3V20.1h5.3v-5.2h-5.3V8.3h-6.5v6.6h-3.5v5.2h3.5v12.2c0 4.3 2.2 7 7 7zM169.6 39.2h15.2c6.6 0 11.2-3.7 11.2-9.2 0-4.4-2.7-7-6.2-7.7a8.3 8.3 0 004.2-7.6c0-4.9-3.6-8.2-9.5-8.2h-14.9v32.7zm6.5-5.1v-9h8.3c3.1 0 5 1.8 5 4.5s-1.8 4.5-5 4.5h-8.3zm0-14v-8.5h7c2.7 0 4.3 1.6 4.3 4.1 0 2.5-1.5 4.4-4.3 4.4h-7zM209 39.8c7.5 0 11.7-4.8 11.7-11v-3.4c0-6.2-4.2-11-11.6-11-7.4 0-11.6 4.7-11.6 11v3.4c0 6.2 4.2 11 11.6 11zm5.4-10.6c0 3.2-1.7 5.6-5.3 5.6-3.7 0-5.4-2.4-5.4-5.6V25c0-3.2 1.7-5.5 5.4-5.5 3.6 0 5.3 2.3 5.3 5.5v4.3zM232.2 39.2h4.4v-5.1H234c-1.7 0-2.3-.7-2.3-2.3V20.1h5.3v-5.2h-5.3V8.3h-6.5v6.6h-3.5v5.2h3.5v12.2c0 4.3 2.2 7 7 7z" fill="#1B1B20"></path>
              <path d="M41.2 21.6V27a1.9 1.9 0 01-1.1 1.7c-3.8 1.8-8 2.8-12.2 3-4.2-.2-8.4-1.2-12.2-3a2 2 0 01-1-1.7v-5.4a1.5 1.5 0 01.7-1.2 1.6 1.6 0 011.4-.2c3.5 1.6 7.3 2.4 11.1 2.5 3.8-.1 7.6-1 11.1-2.4a1.6 1.6 0 012 .6l.2.7z" fill="#06F"></path>
              <path d="M55.5 34.2a13 13 0 01-4.3 8.5 13.3 13.3 0 01-9 3.4H35l-14 8.9v-9l14-8.9h7.3c1 0 2-.3 2.9-1a4 4 0 001.4-2.6c.4-6.9.3-13.8-.1-20.6-.1-1-.5-1.8-1.2-2.4a4 4 0 00-2.5-1.1 246 246 0 00-29.6 0 4 4 0 00-2.5 1.1c-.7.6-1 1.5-1.2 2.4-.4 6.9-.5 13.8 0 20.6 0 1 .6 2 1.3 2.6.8.7 1.8 1 2.9 1h7.3v9h-7.3c-3.3 0-6.6-1.2-9-3.4a13 13 0 01-4.3-8.5c-.4-7.3-.4-14.7.1-22A13 13 0 0112.4.5a221.5 221.5 0 0131 0c3 .2 6 1.5 8.2 3.7 2.2 2.1 3.5 5 3.8 8 .5 7.3.6 14.7.1 22z" fill="#06F"></path>
            </svg>