<svg class="u-mb-lg u-Pr-lg xl:u-pr-0" width="250" height="55" viewBox="0 0 250 55" fill="none" xmlns="http://www.w3.org/2000/svg">
          <path d="M55.7 34.2c-.3 3.3-1.9 6.3-4.3 8.5a13.4 13.4 0 01-9 3.4H35L21 55v-9l14-8.9h7.3c1 0 2.1-.3 2.9-1a4 4 0 001.4-2.6c.4-6.9.4-13.8-.1-20.6-.1-1-.5-1.8-1.2-2.4a4 4 0 00-2.5-1.1 247.4 247.4 0 00-29.7 0 4 4 0 00-2.5 1.1c-.6.6-1 1.5-1.1 2.4-.5 6.9-.6 13.8-.1 20.6 0 1 .6 2 1.4 2.6.8.7 1.8 1 2.8 1H21v9h-7.4c-3.3 0-6.5-1.2-9-3.4s-4-5.3-4.3-8.5c-.4-7.3-.4-14.7.1-22A13.1 13.1 0 0112.4.5a222.7 222.7 0 0131 0c3.2.2 6 1.5 8.3 3.7 2.2 2.1 3.6 5 3.8 8 .6 7.3.6 14.7.2 22z" fill="#FF5100"></path>
          <path d="M70 39.2h22v-5.4H76.6V6.5H70v32.7zM95.2 39.2h6.4V15h-6.4v24.3zm-.6-30.6c0 1 .5 1.8 1.2 2.5a3.8 3.8 0 005.2 0 3.7 3.7 0 00-1.1-6 3.8 3.8 0 00-4.2.7 3.7 3.7 0 00-1 2.8zM127 15h-6.5l-5.3 17.7L110 15h-6.5l8.4 24.3h6.8L127 15zM138.6 39.8c5.4 0 9.9-3.2 10.7-7.7h-5.6c-.7 1.7-2.4 3.1-5.1 3.1-3.8 0-5.3-2.5-5.3-5.3v-.6h16.2V25c0-5.8-3.7-10.6-11-10.6S127 19 127 25.6V29c0 6.8 4.5 10.9 11.5 10.9zm-5.3-15.2c0-3.3 1.4-5.7 5.2-5.7 3.5 0 5 2.2 5 5.3v.6h-10.2v-.2zM166.7 39.9c8.4 0 13.6-5.6 14-12.3h-6.2c-.5 3.7-2.8 6.9-7.8 6.9-5.6 0-8-3.7-8-9v-5.3c0-5.2 2.4-9 8-9 5 0 7.3 3.3 7.8 7h6.2c-.4-6.7-5.6-12.3-14-12.3-10 0-14.6 6.3-14.6 14.6v4.7c0 8.4 4.6 14.7 14.6 14.7zM184.2 39.2h6.5V24.8c0-3.2 1.8-5 4.7-5 3.2 0 4.5 2 4.5 4.9v14.5h6.5V23.7c0-5.8-3.4-9.3-8.7-9.3-3.2 0-5.8 1.3-7 3.4V5.1h-6.5v34.1zM218.8 39.8c2.8 0 6-1.2 7.1-2.8v2.2h6.2V23.7c0-5.6-4.2-9.3-10.4-9.3-5.3 0-9.2 2.5-10.6 7.2h6c.7-1.3 2-2.3 4.3-2.3 2.6 0 4.3 1.7 4.3 4v3.3a10 10 0 00-6.3-2.1c-6 0-10 2.4-10 7.7 0 4.7 3.8 7.6 9.4 7.6zm1.6-4.2c-2.7 0-4.7-1.3-4.7-3.6 0-2.2 1.9-3.4 5-3.4 2.8 0 5 1.3 5 3.4 0 2.2-2.4 3.6-5.3 3.6zM244.3 39.2h4.4v-5.1h-2.6c-1.7 0-2.3-.7-2.3-2.3V20.1h5.2v-5.2h-5.2V8.3h-6.5v6.6h-3.5v5.2h3.5v12.2c0 4.3 2.2 7 7 7z" fill="#1B1B20"></path>
        </svg>